<?xml version="1.0" standalone="no"?>
<!DOCTYPE svg PUBLIC "-//W3C//DTD SVG 1.1//EN" 
"http://www.w3.org/Graphics/SVG/1.1/DTD/svg11.dtd"> 
<svg
  xmlns="http://www.w3.org/2000/svg"
  version="1.1"
  width="11.7in" height="8.267in" viewBox="0 0 117000 82670 "
>
  <title>SVG Picture created as AlimV3-Dessus.svg </title>
  <desc>Picture generated by wxSVG v0101 </desc>
  <g style="fill:black; stroke:black; stroke-width:1">
</g>
<g style="fill:#000000; fill-opacity:0.0; 
  stroke:#0000C0; stroke-linecap:round; stroke-linejoin:round; stroke-opacity:1.0; stroke-opacity:1.0; stroke-width:0" 
   transform="translate(0 0) scale(1 1)">
<path d="M51498 45000 L51502 45000" /> 
<path d="M51500 44998 L51500 45002" /> 
</g>
<g style="fill:#A00000; fill-opacity:0.0; 
  stroke:#A00000; stroke-linecap:round; stroke-linejoin:round; stroke-opacity:1.0; stroke-opacity:1.0; stroke-width:120" 
   transform="translate(0 0) scale(1 1)">
<path d="M49029 45324 L49029 44524" /> 
<path d="M49029 44524 L49257 44524" /> 
<path d="M49257 44524 L49315 44562" /> 
<path d="M49315 44562 L49343 44600" /> 
<path d="M49343 44600 L49372 44676" /> 
<path d="M49372 44676 L49372 44790" /> 
<path d="M49372 44790 L49343 44867" /> 
<path d="M49343 44867 L49315 44905" /> 
<path d="M49315 44905 L49257 44943" /> 
<path d="M49257 44943 L49029 44943" /> 
<g style = "stroke-linecap:round;" > 
<path d="M49029 44943 L49029 44943" /> 
</g><path d="M49743 44524 L49857 44524" /> 
<path d="M49857 44524 L49915 44562" /> 
<path d="M49915 44562 L49972 44638" /> 
<path d="M49972 44638 L50000 44790" /> 
<path d="M50000 44790 L50000 45057" /> 
<path d="M50000 45057 L49972 45210" /> 
<path d="M49972 45210 L49915 45286" /> 
<path d="M49915 45286 L49857 45324" /> 
<path d="M49857 45324 L49743 45324" /> 
<path d="M49743 45324 L49686 45286" /> 
<path d="M49686 45286 L49629 45210" /> 
<path d="M49629 45210 L49600 45057" /> 
<path d="M49600 45057 L49600 44790" /> 
<path d="M49600 44790 L49629 44638" /> 
<path d="M49629 44638 L49686 44562" /> 
<path d="M49686 44562 L49743 44524" /> 
<path d="M50229 45286 L50315 45324" /> 
<path d="M50315 45324 L50458 45324" /> 
<path d="M50458 45324 L50515 45286" /> 
<path d="M50515 45286 L50544 45248" /> 
<path d="M50544 45248 L50572 45171" /> 
<path d="M50572 45171 L50572 45095" /> 
<path d="M50572 45095 L50544 45019" /> 
<path d="M50544 45019 L50515 44981" /> 
<path d="M50515 44981 L50458 44943" /> 
<path d="M50458 44943 L50344 44905" /> 
<path d="M50344 44905 L50286 44867" /> 
<path d="M50286 44867 L50258 44829" /> 
<path d="M50258 44829 L50229 44752" /> 
<path d="M50229 44752 L50229 44676" /> 
<path d="M50229 44676 L50258 44600" /> 
<path d="M50258 44600 L50286 44562" /> 
<path d="M50286 44562 L50344 44524" /> 
<path d="M50344 44524 L50486 44524" /> 
<path d="M50486 44524 L50572 44562" /> 
<g style = "stroke-linecap:round;" > 
<path d="M50572 44562 L50572 44562" /> 
</g><path d="M51115 45324 L50829 45324" /> 
<path d="M50829 45324 L50829 44524" /> 
<g style = "stroke-linecap:round;" > 
<path d="M50829 44524 L50829 44524" /> 
</g><path d="M52115 45324 L51915 44943" /> 
<g style = "stroke-linecap:round;" > 
<path d="M51915 44943 L51915 44943" /> 
</g><path d="M51772 45324 L51772 44524" /> 
<path d="M51772 44524 L52000 44524" /> 
<path d="M52000 44524 L52058 44562" /> 
<path d="M52058 44562 L52086 44600" /> 
<path d="M52086 44600 L52115 44676" /> 
<path d="M52115 44676 L52115 44790" /> 
<path d="M52115 44790 L52086 44867" /> 
<path d="M52086 44867 L52058 44905" /> 
<path d="M52058 44905 L52000 44943" /> 
<path d="M52000 44943 L51772 44943" /> 
<g style = "stroke-linecap:round;" > 
<path d="M51772 44943 L51772 44943" /> 
</g><path d="M52458 45324 L52400 45286" /> 
<path d="M52400 45286 L52372 45248" /> 
<path d="M52372 45248 L52343 45171" /> 
<path d="M52343 45171 L52343 44943" /> 
<path d="M52343 44943 L52372 44867" /> 
<path d="M52372 44867 L52400 44829" /> 
<path d="M52400 44829 L52458 44790" /> 
<path d="M52458 44790 L52543 44790" /> 
<path d="M52543 44790 L52600 44829" /> 
<path d="M52600 44829 L52629 44867" /> 
<path d="M52629 44867 L52658 44943" /> 
<path d="M52658 44943 L52658 45171" /> 
<path d="M52658 45171 L52629 45248" /> 
<path d="M52629 45248 L52600 45286" /> 
<path d="M52600 45286 L52543 45324" /> 
<path d="M52543 45324 L52458 45324" /> 
<path d="M52858 44790 L53001 45324" /> 
<path d="M53001 45324 L53143 44790" /> 
<g style = "stroke-linecap:round;" > 
<path d="M53143 44790 L53143 44790" /> 
</g><path d="M53600 45286 L53543 45324" /> 
<path d="M53543 45324 L53429 45324" /> 
<path d="M53429 45324 L53372 45286" /> 
<path d="M53372 45286 L53343 45210" /> 
<path d="M53343 45210 L53343 44905" /> 
<path d="M53343 44905 L53372 44829" /> 
<path d="M53372 44829 L53429 44790" /> 
<path d="M53429 44790 L53543 44790" /> 
<path d="M53543 44790 L53600 44829" /> 
<path d="M53600 44829 L53629 44905" /> 
<path d="M53629 44905 L53629 44981" /> 
<path d="M53629 44981 L53343 45057" /> 
<g style = "stroke-linecap:round;" > 
<path d="M53343 45057 L53343 45057" /> 
</g><path d="M53886 45324 L53886 44790" /> 
<g style = "stroke-linecap:round;" > 
<path d="M53886 44790 L53886 44790" /> 
</g><path d="M53886 44943 L53914 44867" /> 
<path d="M53914 44867 L53943 44829" /> 
<path d="M53943 44829 L54000 44790" /> 
<path d="M54000 44790 L54057 44790" /> 
<g style = "stroke-linecap:round;" > 
<path d="M54057 44790 L54057 44790" /> 
</g></g>
<g style="fill:#A00000; fill-opacity:0.0; 
  stroke:#0000C0; stroke-linecap:round; stroke-linejoin:round; stroke-opacity:1.0; stroke-opacity:1.0; stroke-width:0" 
   transform="translate(0 0) scale(1 1)">
<path d="M51498 46240 L51502 46240" /> 
<path d="M51500 46238 L51500 46242" /> 
</g>
<g style="fill:#A00000; fill-opacity:0.0; 
  stroke:#A00000; stroke-linecap:round; stroke-linejoin:round; stroke-opacity:1.0; stroke-opacity:1.0; stroke-width:120" 
   transform="translate(0 0) scale(1 1)">
<path d="M47629 46335 L47915 46335" /> 
<g style = "stroke-linecap:round;" > 
<path d="M47915 46335 L47915 46335" /> 
</g><path d="M47572 46564 L47772 45764" /> 
<path d="M47772 45764 L47972 46564" /> 
<g style = "stroke-linecap:round;" > 
<path d="M47972 46564 L47972 46564" /> 
</g><path d="M48258 46564 L48200 46526" /> 
<path d="M48200 46526 L48172 46450" /> 
<path d="M48172 46450 L48172 45764" /> 
<g style = "stroke-linecap:round;" > 
<path d="M48172 45764 L48172 45764" /> 
</g><path d="M48486 46564 L48486 46030" /> 
<g style = "stroke-linecap:round;" > 
<path d="M48486 46030 L48486 46030" /> 
</g><path d="M48486 45764 L48457 45802" /> 
<path d="M48457 45802 L48486 45840" /> 
<path d="M48486 45840 L48514 45802" /> 
<path d="M48514 45802 L48486 45764" /> 
<path d="M48486 45764 L48486 45840" /> 
<g style = "stroke-linecap:round;" > 
<path d="M48486 45840 L48486 45840" /> 
</g><path d="M48772 46564 L48772 46030" /> 
<g style = "stroke-linecap:round;" > 
<path d="M48772 46030 L48772 46030" /> 
</g><path d="M48772 46107 L48800 46069" /> 
<path d="M48800 46069 L48858 46030" /> 
<path d="M48858 46030 L48943 46030" /> 
<path d="M48943 46030 L49000 46069" /> 
<path d="M49000 46069 L49029 46145" /> 
<path d="M49029 46145 L49029 46564" /> 
<g style = "stroke-linecap:round;" > 
<path d="M49029 46564 L49029 46564" /> 
</g><path d="M49029 46145 L49058 46069" /> 
<path d="M49058 46069 L49115 46030" /> 
<path d="M49115 46030 L49200 46030" /> 
<path d="M49200 46030 L49258 46069" /> 
<path d="M49258 46069 L49286 46145" /> 
<path d="M49286 46145 L49286 46564" /> 
<g style = "stroke-linecap:round;" > 
<path d="M49286 46564 L49286 46564" /> 
</g><path d="M49800 46526 L49743 46564" /> 
<path d="M49743 46564 L49629 46564" /> 
<path d="M49629 46564 L49572 46526" /> 
<path d="M49572 46526 L49543 46450" /> 
<path d="M49543 46450 L49543 46145" /> 
<path d="M49543 46145 L49572 46069" /> 
<path d="M49572 46069 L49629 46030" /> 
<path d="M49629 46030 L49743 46030" /> 
<path d="M49743 46030 L49800 46069" /> 
<path d="M49800 46069 L49829 46145" /> 
<path d="M49829 46145 L49829 46221" /> 
<path d="M49829 46221 L49543 46297" /> 
<g style = "stroke-linecap:round;" > 
<path d="M49543 46297 L49543 46297" /> 
</g><path d="M50086 46030 L50086 46564" /> 
<g style = "stroke-linecap:round;" > 
<path d="M50086 46564 L50086 46564" /> 
</g><path d="M50086 46107 L50114 46069" /> 
<path d="M50114 46069 L50172 46030" /> 
<path d="M50172 46030 L50257 46030" /> 
<path d="M50257 46030 L50314 46069" /> 
<path d="M50314 46069 L50343 46145" /> 
<path d="M50343 46145 L50343 46564" /> 
<g style = "stroke-linecap:round;" > 
<path d="M50343 46564 L50343 46564" /> 
</g><path d="M50543 46030 L50772 46030" /> 
<g style = "stroke-linecap:round;" > 
<path d="M50772 46030 L50772 46030" /> 
</g><path d="M50629 45764 L50629 46450" /> 
<path d="M50629 46450 L50657 46526" /> 
<path d="M50657 46526 L50715 46564" /> 
<path d="M50715 46564 L50772 46564" /> 
<g style = "stroke-linecap:round;" > 
<path d="M50772 46564 L50772 46564" /> 
</g><path d="M51229 46564 L51229 46145" /> 
<path d="M51229 46145 L51200 46069" /> 
<path d="M51200 46069 L51143 46030" /> 
<path d="M51143 46030 L51029 46030" /> 
<path d="M51029 46030 L50972 46069" /> 
<g style = "stroke-linecap:round;" > 
<path d="M50972 46069 L50972 46069" /> 
</g><path d="M51229 46526 L51172 46564" /> 
<path d="M51172 46564 L51029 46564" /> 
<path d="M51029 46564 L50972 46526" /> 
<path d="M50972 46526 L50943 46450" /> 
<path d="M50943 46450 L50943 46373" /> 
<path d="M50943 46373 L50972 46297" /> 
<path d="M50972 46297 L51029 46259" /> 
<path d="M51029 46259 L51172 46259" /> 
<path d="M51172 46259 L51229 46221" /> 
<g style = "stroke-linecap:round;" > 
<path d="M51229 46221 L51229 46221" /> 
</g><path d="M51429 46030 L51658 46030" /> 
<g style = "stroke-linecap:round;" > 
<path d="M51658 46030 L51658 46030" /> 
</g><path d="M51515 45764 L51515 46450" /> 
<path d="M51515 46450 L51543 46526" /> 
<path d="M51543 46526 L51601 46564" /> 
<path d="M51601 46564 L51658 46564" /> 
<g style = "stroke-linecap:round;" > 
<path d="M51658 46564 L51658 46564" /> 
</g><path d="M51858 46564 L51858 46030" /> 
<g style = "stroke-linecap:round;" > 
<path d="M51858 46030 L51858 46030" /> 
</g><path d="M51858 45764 L51829 45802" /> 
<path d="M51829 45802 L51858 45840" /> 
<path d="M51858 45840 L51886 45802" /> 
<path d="M51886 45802 L51858 45764" /> 
<path d="M51858 45764 L51858 45840" /> 
<g style = "stroke-linecap:round;" > 
<path d="M51858 45840 L51858 45840" /> 
</g><path d="M52230 46564 L52172 46526" /> 
<path d="M52172 46526 L52144 46488" /> 
<path d="M52144 46488 L52115 46411" /> 
<path d="M52115 46411 L52115 46183" /> 
<path d="M52115 46183 L52144 46107" /> 
<path d="M52144 46107 L52172 46069" /> 
<path d="M52172 46069 L52230 46030" /> 
<path d="M52230 46030 L52315 46030" /> 
<path d="M52315 46030 L52372 46069" /> 
<path d="M52372 46069 L52401 46107" /> 
<path d="M52401 46107 L52430 46183" /> 
<path d="M52430 46183 L52430 46411" /> 
<path d="M52430 46411 L52401 46488" /> 
<path d="M52401 46488 L52372 46526" /> 
<path d="M52372 46526 L52315 46564" /> 
<path d="M52315 46564 L52230 46564" /> 
<path d="M52687 46030 L52687 46564" /> 
<g style = "stroke-linecap:round;" > 
<path d="M52687 46564 L52687 46564" /> 
</g><path d="M52687 46107 L52715 46069" /> 
<path d="M52715 46069 L52773 46030" /> 
<path d="M52773 46030 L52858 46030" /> 
<path d="M52858 46030 L52915 46069" /> 
<path d="M52915 46069 L52944 46145" /> 
<path d="M52944 46145 L52944 46564" /> 
<g style = "stroke-linecap:round;" > 
<path d="M52944 46564 L52944 46564" /> 
</g><path d="M53601 45764 L53801 46564" /> 
<path d="M53801 46564 L54001 45764" /> 
<g style = "stroke-linecap:round;" > 
<path d="M54001 45764 L54001 45764" /> 
</g><path d="M54144 45764 L54515 45764" /> 
<path d="M54515 45764 L54315 46069" /> 
<path d="M54315 46069 L54401 46069" /> 
<path d="M54401 46069 L54458 46107" /> 
<path d="M54458 46107 L54487 46145" /> 
<path d="M54487 46145 L54515 46221" /> 
<path d="M54515 46221 L54515 46411" /> 
<path d="M54515 46411 L54487 46488" /> 
<path d="M54487 46488 L54458 46526" /> 
<path d="M54458 46526 L54401 46564" /> 
<path d="M54401 46564 L54229 46564" /> 
<path d="M54229 46564 L54172 46526" /> 
<path d="M54172 46526 L54144 46488" /> 
<g style = "stroke-linecap:round;" > 
<path d="M54144 46488 L54144 46488" /> 
</g><path d="M54772 46488 L54800 46526" /> 
<path d="M54800 46526 L54772 46564" /> 
<path d="M54772 46564 L54743 46526" /> 
<path d="M54743 46526 L54772 46488" /> 
<path d="M54772 46488 L54772 46564" /> 
<g style = "stroke-linecap:round;" > 
<path d="M54772 46564 L54772 46564" /> 
</g><path d="M55172 45764 L55229 45764" /> 
<path d="M55229 45764 L55286 45802" /> 
<path d="M55286 45802 L55315 45840" /> 
<path d="M55315 45840 L55344 45916" /> 
<path d="M55344 45916 L55372 46069" /> 
<path d="M55372 46069 L55372 46259" /> 
<path d="M55372 46259 L55344 46411" /> 
<path d="M55344 46411 L55315 46488" /> 
<path d="M55315 46488 L55286 46526" /> 
<path d="M55286 46526 L55229 46564" /> 
<path d="M55229 46564 L55172 46564" /> 
<path d="M55172 46564 L55115 46526" /> 
<path d="M55115 46526 L55086 46488" /> 
<path d="M55086 46488 L55058 46411" /> 
<path d="M55058 46411 L55029 46259" /> 
<path d="M55029 46259 L55029 46069" /> 
<path d="M55029 46069 L55058 45916" /> 
<path d="M55058 45916 L55086 45840" /> 
<path d="M55086 45840 L55115 45802" /> 
<path d="M55115 45802 L55172 45764" /> 
</g>
<g style="fill:#A00000; fill-opacity:0.0; 
  stroke:#A00000; stroke-linecap:round; stroke-linejoin:round; stroke-opacity:1.0; stroke-opacity:1.0; stroke-width:394" 
   transform="translate(0 0) scale(1 1)">
<path d="M53600 53900 L53600 54100" /> 
<path d="M55100 56600 L60000 56600" /> 
<path d="M54500 56000 L55100 56600" /> 
<path d="M54500 55000 L54500 56000" /> 
<path d="M53600 54100 L54500 55000" /> 
<path d="M60000 56600 L61900 56600" /> 
<path d="M61900 56600 L62000 56500" /> 
<path d="M53600 52500 L53600 53900" /> 
<path d="M53500 54000 L51400 54000" /> 
<path d="M53600 53900 L53500 54000" /> 
<path d="M51400 54000 L51400 52100" /> 
<path d="M51500 50500 L50400 50500" /> 
<path d="M52000 51000 L51500 50500" /> 
<path d="M52000 51500 L52000 51000" /> 
<path d="M51400 52100 L52000 51500" /> 
<path d="M60500 41100 L57400 41100" /> 
<path d="M54500 42000 L53500 41000" /> 
<path d="M56500 42000 L54500 42000" /> 
<path d="M57400 41100 L56500 42000" /> 
<path d="M51400 41000 L51400 39100" /> 
<path d="M51500 37500 L50400 37500" /> 
<path d="M52000 38000 L51500 37500" /> 
<path d="M52000 38500 L52000 38000" /> 
<path d="M51400 39100 L52000 38500" /> 
<path d="M51400 41000 L53500 41000" /> 
<path d="M53600 40900 L53600 39500" /> 
<path d="M53500 41000 L53600 40900" /> 
<path d="M60500 41100 L61900 41100" /> 
<path d="M61900 41100 L62000 41000" /> 
</g>
<g style="fill:#A00000; fill-opacity:0.0; 
  stroke:#A00000; stroke-linecap:round; stroke-linejoin:round; stroke-opacity:1.0; stroke-opacity:1.0; stroke-width:80" 
   transform="translate(0 0) scale(1 1)">
<path d="M43300 49000 L43300 50700" /> 
<path d="M43300 50700 L43000 51000" /> 
</g>
<g style="fill:#A00000; fill-opacity:0.0; 
  stroke:#A00000; stroke-linecap:round; stroke-linejoin:round; stroke-opacity:1.0; stroke-opacity:1.0; stroke-width:394" 
   transform="translate(0 0) scale(1 1)">
<path d="M64000 56500 L64000 58500" /> 
<path d="M44500 51000 L45000 51500" /> 
<path d="M45000 51500 L45000 57500" /> 
<path d="M44500 51000 L43000 51000" /> 
<path d="M45000 58500 L45000 57500" /> 
<path d="M45500 59000 L45000 58500" /> 
<path d="M63500 59000 L45500 59000" /> 
<path d="M64000 58500 L63500 59000" /> 
<path d="M54500 50000 L54500 53500" /> 
<path d="M66400 56600 L67000 56000" /> 
<path d="M67000 56000 L67000 55000" /> 
<path d="M67000 55000 L67500 54500" /> 
<path d="M67500 54500 L68000 54500" /> 
<path d="M68000 54500 L68500 54000" /> 
<path d="M68500 54000 L68500 45000" /> 
<path d="M68500 45000 L68000 44500" /> 
<path d="M68000 44500 L58000 44500" /> 
<path d="M58000 44500 L57500 45000" /> 
<path d="M57500 45000 L57500 52000" /> 
<path d="M66400 56600 L65500 56600" /> 
<path d="M57500 53500 L57500 52000" /> 
<path d="M57000 54000 L57500 53500" /> 
<path d="M55000 54000 L57000 54000" /> 
<path d="M54500 53500 L55000 54000" /> 
<path d="M65500 56600 L64100 56600" /> 
<path d="M64100 56600 L64000 56500" /> 
</g>
<g style="fill:#A00000; fill-opacity:0.0; 
  stroke:#A00000; stroke-linecap:round; stroke-linejoin:round; stroke-opacity:1.0; stroke-opacity:1.0; stroke-width:80" 
   transform="translate(0 0) scale(1 1)">
<path d="M41795 49000 L42700 49000" /> 
<path d="M41795 42000 L42700 42000" /> 
</g>
<g style="fill:#A00000; fill-opacity:0.0; 
  stroke:#A00000; stroke-linecap:round; stroke-linejoin:round; stroke-opacity:1.0; stroke-opacity:1.0; stroke-width:394" 
   transform="translate(0 0) scale(1 1)">
<path d="M47500 36500 L47500 35500" /> 
<path d="M56000 39500 L55400 39500" /> 
<path d="M56500 39000 L56000 39500" /> 
<path d="M56500 35500 L56500 39000" /> 
<path d="M56000 35000 L56500 35500" /> 
<path d="M48000 35000 L56000 35000" /> 
<path d="M47500 35500 L48000 35000" /> 
<path d="M49600 37150 L49150 37150" /> 
<path d="M48500 36500 L47500 36500" /> 
<path d="M49150 37150 L48500 36500" /> 
<path d="M55400 52500 L56000 52500" /> 
<path d="M47500 48500 L47500 49500" /> 
<path d="M48000 48000 L47500 48500" /> 
<path d="M56000 48000 L48000 48000" /> 
<path d="M56500 48500 L56000 48000" /> 
<path d="M56500 52000 L56500 48500" /> 
<path d="M56000 52500 L56500 52000" /> 
<path d="M49600 50150 L49150 50150" /> 
<path d="M48500 49500 L47500 49500" /> 
<path d="M49150 50150 L48500 49500" /> 
</g>
<g style="fill:#A00000; fill-opacity:0.0; 
  stroke:#A00000; stroke-linecap:round; stroke-linejoin:round; stroke-opacity:1.0; stroke-opacity:1.0; stroke-width:80" 
   transform="translate(0 0) scale(1 1)">
<path d="M43300 42000 L43300 43700" /> 
<path d="M43300 43700 L43000 44000" /> 
</g>
<g style="fill:#A00000; fill-opacity:0.0; 
  stroke:#A00000; stroke-linecap:round; stroke-linejoin:round; stroke-opacity:1.0; stroke-opacity:1.0; stroke-width:394" 
   transform="translate(0 0) scale(1 1)">
<path d="M64000 43500 L46000 43500" /> 
<path d="M46000 43500 L45500 44000" /> 
<path d="M43000 44000 L45500 44000" /> 
<path d="M45500 50500 L45500 48500" /> 
<path d="M45500 44000 L45500 48500" /> 
<path d="M46000 51000 L45500 50500" /> 
<path d="M46000 51000 L46000 51500" /> 
<path d="M47500 51500 L46000 51500" /> 
<path d="M49600 54000 L46500 54000" /> 
<path d="M46500 54000 L46000 53500" /> 
<path d="M46000 53500 L46000 51500" /> 
<path d="M58000 29000 L68000 29000" /> 
<path d="M64000 43500 L65000 43500" /> 
<path d="M68000 43500 L68500 43000" /> 
<path d="M65000 43500 L68000 43500" /> 
<path d="M54500 40500 L55000 41000" /> 
<path d="M55000 41000 L56000 41000" /> 
<path d="M56000 41000 L57500 39500" /> 
<path d="M57500 39500 L57500 29500" /> 
<path d="M57500 29500 L58000 29000" /> 
<path d="M54500 40500 L54500 37000" /> 
<path d="M68500 29500 L68500 43000" /> 
<path d="M68000 29000 L68500 29500" /> 
<path d="M64000 41000 L64000 43500" /> 
<path d="M49600 50850 L49150 50850" /> 
<path d="M48500 51500 L47500 51500" /> 
<path d="M49150 50850 L48500 51500" /> 
<path d="M65500 41100 L64100 41100" /> 
<path d="M64100 41100 L64000 41000" /> 
<path d="M43000 35500 L45500 35500" /> 
<path d="M49600 41000 L46000 41000" /> 
<path d="M45000 30000 L45000 29000" /> 
<path d="M45500 30500 L45000 30000" /> 
<path d="M45500 40500 L45500 35500" /> 
<path d="M45500 35500 L45500 30500" /> 
<path d="M46000 41000 L45500 40500" /> 
<path d="M45000 29000 L45500 28500" /> 
<path d="M45500 28500 L46500 28500" /> 
<path d="M45000 29000 L43000 29000" /> 
<path d="M49600 37850 L49150 37850" /> 
<path d="M48500 38500 L47500 38500" /> 
<path d="M49150 37850 L48500 38500" /> 
</g>
<g style="fill:#A00000; fill-opacity:0.0; 
  stroke:#A00000; stroke-linecap:round; stroke-linejoin:round; stroke-opacity:1.0; stroke-opacity:1.0; stroke-width:100" 
   transform="translate(0 0) scale(1 1)">
<path d="M70450 60450 L70450 60450" /> 
<path d="M69050 60450 L70450 60450" /> 
<path d="M69050 58210 L69050 60450" /> 
<path d="M69050 57792 L69050 58210" /> 
<path d="M69050 24210 L69050 57792" /> 
<path d="M69050 23792 L69050 24210" /> 
<path d="M68890 23406 L69050 23792" /> 
<path d="M68595 23110 L68890 23406" /> 
<path d="M68210 22950 L68595 23110" /> 
<path d="M67792 22950 L68210 22950" /> 
<path d="M67406 23110 L67792 22950" /> 
<path d="M67110 23405 L67406 23110" /> 
<path d="M66950 23790 L67110 23405" /> 
<path d="M66950 24208 L66950 23790" /> 
<path d="M67110 24594 L66950 24208" /> 
<path d="M67405 24890 L67110 24594" /> 
<path d="M67790 25050 L67405 24890" /> 
<path d="M68208 25050 L67790 25050" /> 
<path d="M68594 24890 L68208 25050" /> 
<path d="M68890 24595 L68594 24890" /> 
<path d="M69050 24210 L68890 24595" /> 
<path d="M69050 57792 L69050 24210" /> 
<path d="M68947 57543 L69050 57792" /> 
<path d="M68947 54000 L68947 57543" /> 
<path d="M68947 45000 L68947 54000" /> 
<path d="M68913 44829 L68947 45000" /> 
<path d="M68816 44684 L68913 44829" /> 
<path d="M68316 44184 L68816 44684" /> 
<path d="M68171 44087 L68316 44184" /> 
<path d="M68000 44053 L68171 44087" /> 
<path d="M58000 44053 L68000 44053" /> 
<path d="M57829 44087 L58000 44053" /> 
<path d="M57684 44184 L57829 44087" /> 
<path d="M57184 44684 L57684 44184" /> 
<path d="M57087 44829 L57184 44684" /> 
<path d="M57053 45000 L57087 44829" /> 
<path d="M57053 52000 L57053 45000" /> 
<path d="M57053 53315 L57053 52000" /> 
<path d="M56815 53553 L57053 53315" /> 
<path d="M55185 53553 L56815 53553" /> 
<path d="M54949 53317 L55185 53553" /> 
<path d="M55025 53349 L54949 53317" /> 
<path d="M55124 53349 L55025 53349" /> 
<path d="M55774 53349 L55124 53349" /> 
<path d="M55866 53311 L55774 53349" /> 
<path d="M55936 53241 L55866 53311" /> 
<path d="M55974 53150 L55936 53241" /> 
<path d="M55974 53051 L55974 53150" /> 
<path d="M55974 52947 L55974 53051" /> 
<path d="M56000 52947 L55974 52947" /> 
<path d="M56171 52913 L56000 52947" /> 
<path d="M56316 52816 L56171 52913" /> 
<path d="M56816 52316 L56316 52816" /> 
<path d="M56913 52171 L56816 52316" /> 
<path d="M56947 52000 L56913 52171" /> 
<path d="M56947 48500 L56947 52000" /> 
<path d="M56913 48329 L56947 48500" /> 
<path d="M56816 48184 L56913 48329" /> 
<path d="M56316 47684 L56816 48184" /> 
<path d="M56171 47587 L56316 47684" /> 
<path d="M56000 47553 L56171 47587" /> 
<path d="M55796 47553 L56000 47553" /> 
<path d="M55796 47110 L55796 47553" /> 
<path d="M55796 44010 L55796 47110" /> 
<path d="M47085 44010 L55796 44010" /> 
<path d="M47085 47110 L47085 44010" /> 
<path d="M55796 47110 L47085 47110" /> 
<path d="M55796 47553 L55796 47110" /> 
<path d="M48000 47553 L55796 47553" /> 
<path d="M47829 47587 L48000 47553" /> 
<path d="M47684 47684 L47829 47587" /> 
<path d="M47184 48184 L47684 47684" /> 
<path d="M47087 48329 L47184 48184" /> 
<path d="M47053 48500 L47087 48329" /> 
<path d="M47053 48661 L47053 48500" /> 
<path d="M46467 48661 L47053 48661" /> 
<path d="M46375 48699 L46467 48661" /> 
<path d="M46305 48769 L46375 48699" /> 
<path d="M46267 48860 L46305 48769" /> 
<path d="M46267 48959 L46267 48860" /> 
<path d="M46267 50139 L46267 48959" /> 
<path d="M46305 50231 L46267 50139" /> 
<path d="M46375 50301 L46305 50231" /> 
<path d="M46466 50339 L46375 50301" /> 
<path d="M46565 50339 L46466 50339" /> 
<path d="M48533 50339 L46565 50339" /> 
<path d="M48625 50301 L48533 50339" /> 
<path d="M48647 50279 L48625 50301" /> 
<path d="M48834 50466 L48647 50279" /> 
<path d="M48884 50500 L48834 50466" /> 
<path d="M48834 50534 L48884 50500" /> 
<path d="M48647 50721 L48834 50534" /> 
<path d="M48625 50699 L48647 50721" /> 
<path d="M48534 50661 L48625 50699" /> 
<path d="M48435 50661 L48534 50661" /> 
<path d="M46467 50661 L48435 50661" /> 
<path d="M46375 50699 L46467 50661" /> 
<path d="M46345 50728 L46375 50699" /> 
<path d="M46316 50684 L46345 50728" /> 
<path d="M45947 50315 L46316 50684" /> 
<path d="M45947 48500 L45947 50315" /> 
<path d="M45947 44185 L45947 48500" /> 
<path d="M46185 43947 L45947 44185" /> 
<path d="M64000 43947 L46185 43947" /> 
<path d="M65000 43947 L64000 43947" /> 
<path d="M68000 43947 L65000 43947" /> 
<path d="M68171 43913 L68000 43947" /> 
<path d="M68316 43816 L68171 43913" /> 
<path d="M68816 43316 L68316 43816" /> 
<path d="M68913 43171 L68816 43316" /> 
<path d="M68947 43000 L68913 43171" /> 
<path d="M68947 29500 L68947 43000" /> 
<path d="M68913 29329 L68947 29500" /> 
<path d="M68816 29184 L68913 29329" /> 
<path d="M68316 28684 L68816 29184" /> 
<path d="M68171 28587 L68316 28684" /> 
<path d="M68000 28553 L68171 28587" /> 
<path d="M58000 28553 L68000 28553" /> 
<path d="M57829 28587 L58000 28553" /> 
<path d="M57684 28684 L57829 28587" /> 
<path d="M57184 29184 L57684 28684" /> 
<path d="M57087 29329 L57184 29184" /> 
<path d="M57053 29500 L57087 29329" /> 
<path d="M57053 39315 L57053 29500" /> 
<path d="M55815 40553 L57053 39315" /> 
<path d="M55185 40553 L55815 40553" /> 
<path d="M54949 40317 L55185 40553" /> 
<path d="M55025 40349 L54949 40317" /> 
<path d="M55124 40349 L55025 40349" /> 
<path d="M55774 40349 L55124 40349" /> 
<path d="M55866 40311 L55774 40349" /> 
<path d="M55936 40241 L55866 40311" /> 
<path d="M55974 40150 L55936 40241" /> 
<path d="M55974 40051 L55974 40150" /> 
<path d="M55974 39947 L55974 40051" /> 
<path d="M56000 39947 L55974 39947" /> 
<path d="M56171 39913 L56000 39947" /> 
<path d="M56316 39816 L56171 39913" /> 
<path d="M56816 39316 L56316 39816" /> 
<path d="M56913 39171 L56816 39316" /> 
<path d="M56947 39000 L56913 39171" /> 
<path d="M56947 35500 L56947 39000" /> 
<path d="M56913 35329 L56947 35500" /> 
<path d="M56816 35184 L56913 35329" /> 
<path d="M56316 34684 L56816 35184" /> 
<path d="M56171 34587 L56316 34684" /> 
<path d="M56000 34553 L56171 34587" /> 
<path d="M48000 34553 L56000 34553" /> 
<path d="M47829 34587 L48000 34553" /> 
<path d="M47684 34684 L47829 34587" /> 
<path d="M47184 35184 L47684 34684" /> 
<path d="M47087 35329 L47184 35184" /> 
<path d="M47053 35500 L47087 35329" /> 
<path d="M47053 35661 L47053 35500" /> 
<path d="M46467 35661 L47053 35661" /> 
<path d="M46375 35699 L46467 35661" /> 
<path d="M46305 35769 L46375 35699" /> 
<path d="M46267 35860 L46305 35769" /> 
<path d="M46267 35959 L46267 35860" /> 
<path d="M46267 37139 L46267 35959" /> 
<path d="M46305 37231 L46267 37139" /> 
<path d="M46375 37301 L46305 37231" /> 
<path d="M46466 37339 L46375 37301" /> 
<path d="M46565 37339 L46466 37339" /> 
<path d="M48533 37339 L46565 37339" /> 
<path d="M48625 37301 L48533 37339" /> 
<path d="M48647 37279 L48625 37301" /> 
<path d="M48834 37466 L48647 37279" /> 
<path d="M48884 37500 L48834 37466" /> 
<path d="M48834 37534 L48884 37500" /> 
<path d="M48647 37721 L48834 37534" /> 
<path d="M48625 37699 L48647 37721" /> 
<path d="M48534 37661 L48625 37699" /> 
<path d="M48435 37661 L48534 37661" /> 
<path d="M46467 37661 L48435 37661" /> 
<path d="M46375 37699 L46467 37661" /> 
<path d="M46305 37769 L46375 37699" /> 
<path d="M46267 37860 L46305 37769" /> 
<path d="M46267 37959 L46267 37860" /> 
<path d="M46267 39139 L46267 37959" /> 
<path d="M46305 39231 L46267 39139" /> 
<path d="M46375 39301 L46305 39231" /> 
<path d="M46466 39339 L46375 39301" /> 
<path d="M46565 39339 L46466 39339" /> 
<path d="M48533 39339 L46565 39339" /> 
<path d="M48625 39301 L48533 39339" /> 
<path d="M48695 39231 L48625 39301" /> 
<path d="M48733 39140 L48695 39231" /> 
<path d="M48733 39041 L48733 39140" /> 
<path d="M48733 38871 L48733 39041" /> 
<path d="M48816 38816 L48733 38871" /> 
<path d="M49335 38297 L48816 38816" /> 
<path d="M49600 38297 L49335 38297" /> 
<path d="M49690 38279 L49600 38297" /> 
<path d="M49829 38279 L49690 38279" /> 
<path d="M49921 38241 L49829 38279" /> 
<path d="M49991 38171 L49921 38241" /> 
<path d="M50029 38080 L49991 38171" /> 
<path d="M50029 37981 L50029 38080" /> 
<path d="M50029 37940 L50029 37981" /> 
<path d="M50045 37857 L50029 37940" /> 
<path d="M50079 37891 L50045 37857" /> 
<path d="M50170 37929 L50079 37891" /> 
<path d="M50269 37929 L50170 37929" /> 
<path d="M50309 37929 L50269 37929" /> 
<path d="M50400 37947 L50309 37929" /> 
<path d="M51315 37947 L50400 37947" /> 
<path d="M51553 38185 L51315 37947" /> 
<path d="M51553 38315 L51553 38185" /> 
<path d="M51084 38784 L51553 38315" /> 
<path d="M50987 38929 L51084 38784" /> 
<path d="M50953 39100 L50987 38929" /> 
<path d="M50953 39373 L50953 39100" /> 
<path d="M50564 39373 L50953 39373" /> 
<path d="M50500 39399 L50564 39373" /> 
<path d="M50437 39373 L50500 39399" /> 
<path d="M50338 39373 L50437 39373" /> 
<path d="M48764 39373 L50338 39373" /> 
<path d="M48672 39411 L48764 39373" /> 
<path d="M48602 39481 L48672 39411" /> 
<path d="M48564 39572 L48602 39481" /> 
<path d="M48564 39671 L48564 39572" /> 
<path d="M48564 40553 L48564 39671" /> 
<path d="M46185 40553 L48564 40553" /> 
<path d="M45947 40315 L46185 40553" /> 
<path d="M45947 35500 L45947 40315" /> 
<path d="M45947 30500 L45947 35500" /> 
<path d="M45913 30329 L45947 30500" /> 
<path d="M45816 30184 L45913 30329" /> 
<path d="M45447 29815 L45816 30184" /> 
<path d="M45447 29331 L45447 29815" /> 
<path d="M45466 29339 L45447 29331" /> 
<path d="M45565 29339 L45466 29339" /> 
<path d="M47533 29339 L45565 29339" /> 
<path d="M47625 29301 L47533 29339" /> 
<path d="M47695 29231 L47625 29301" /> 
<path d="M47733 29140 L47695 29231" /> 
<path d="M47733 29041 L47733 29140" /> 
<path d="M47733 27861 L47733 29041" /> 
<path d="M47695 27769 L47733 27861" /> 
<path d="M47625 27699 L47695 27769" /> 
<path d="M47534 27661 L47625 27699" /> 
<path d="M47435 27661 L47534 27661" /> 
<path d="M45467 27661 L47435 27661" /> 
<path d="M45375 27699 L45467 27661" /> 
<path d="M45305 27769 L45375 27699" /> 
<path d="M45267 27860 L45305 27769" /> 
<path d="M45267 27959 L45267 27860" /> 
<path d="M45267 28128 L45267 27959" /> 
<path d="M45184 28184 L45267 28128" /> 
<path d="M44815 28553 L45184 28184" /> 
<path d="M44430 28553 L44815 28553" /> 
<path d="M44430 27967 L44430 28553" /> 
<path d="M44392 27875 L44430 27967" /> 
<path d="M44322 27805 L44392 27875" /> 
<path d="M44231 27767 L44322 27805" /> 
<path d="M44132 27767 L44231 27767" /> 
<path d="M43050 27767 L44132 27767" /> 
<path d="M43050 24210 L43050 27767" /> 
<path d="M43050 23792 L43050 24210" /> 
<path d="M42890 23406 L43050 23792" /> 
<path d="M42595 23110 L42890 23406" /> 
<path d="M42210 22950 L42595 23110" /> 
<path d="M41792 22950 L42210 22950" /> 
<path d="M41406 23110 L41792 22950" /> 
<path d="M41110 23405 L41406 23110" /> 
<path d="M40950 23790 L41110 23405" /> 
<path d="M40950 24208 L40950 23790" /> 
<path d="M41110 24594 L40950 24208" /> 
<path d="M41405 24890 L41110 24594" /> 
<path d="M41790 25050 L41405 24890" /> 
<path d="M42208 25050 L41790 25050" /> 
<path d="M42594 24890 L42208 25050" /> 
<path d="M42890 24595 L42594 24890" /> 
<path d="M43050 24210 L42890 24595" /> 
<path d="M43050 27767 L43050 24210" /> 
<path d="M41770 27767 L43050 27767" /> 
<path d="M41678 27805 L41770 27767" /> 
<path d="M41608 27875 L41678 27805" /> 
<path d="M41570 27966 L41608 27875" /> 
<path d="M41570 28065 L41570 27966" /> 
<path d="M41570 30033 L41570 28065" /> 
<path d="M41608 30125 L41570 30033" /> 
<path d="M41678 30195 L41608 30125" /> 
<path d="M41769 30233 L41678 30195" /> 
<path d="M41868 30233 L41769 30233" /> 
<path d="M44230 30233 L41868 30233" /> 
<path d="M44322 30195 L44230 30233" /> 
<path d="M44392 30125 L44322 30195" /> 
<path d="M44430 30034 L44392 30125" /> 
<path d="M44430 29935 L44430 30034" /> 
<path d="M44430 29447 L44430 29935" /> 
<path d="M44553 29447 L44430 29447" /> 
<path d="M44553 30000 L44553 29447" /> 
<path d="M44587 30171 L44553 30000" /> 
<path d="M44684 30316 L44587 30171" /> 
<path d="M45053 30685 L44684 30316" /> 
<path d="M45053 35053 L45053 30685" /> 
<path d="M44430 35053 L45053 35053" /> 
<path d="M44430 34467 L44430 35053" /> 
<path d="M44392 34375 L44430 34467" /> 
<path d="M44322 34305 L44392 34375" /> 
<path d="M44231 34267 L44322 34305" /> 
<path d="M44132 34267 L44231 34267" /> 
<path d="M41770 34267 L44132 34267" /> 
<path d="M41678 34305 L41770 34267" /> 
<path d="M41608 34375 L41678 34305" /> 
<path d="M41570 34466 L41608 34375" /> 
<path d="M41570 34565 L41570 34466" /> 
<path d="M41570 36533 L41570 34565" /> 
<path d="M41608 36625 L41570 36533" /> 
<path d="M41678 36695 L41608 36625" /> 
<path d="M41769 36733 L41678 36695" /> 
<path d="M41868 36733 L41769 36733" /> 
<path d="M44230 36733 L41868 36733" /> 
<path d="M44322 36695 L44230 36733" /> 
<path d="M44392 36625 L44322 36695" /> 
<path d="M44430 36534 L44392 36625" /> 
<path d="M44430 36435 L44430 36534" /> 
<path d="M44430 35947 L44430 36435" /> 
<path d="M45053 35947 L44430 35947" /> 
<path d="M45053 40500 L45053 35947" /> 
<path d="M45087 40671 L45053 40500" /> 
<path d="M45184 40816 L45087 40671" /> 
<path d="M45684 41316 L45184 40816" /> 
<path d="M45829 41413 L45684 41316" /> 
<path d="M46000 41447 L45829 41413" /> 
<path d="M48564 41447 L46000 41447" /> 
<path d="M48564 42427 L48564 41447" /> 
<path d="M48602 42519 L48564 42427" /> 
<path d="M48672 42589 L48602 42519" /> 
<path d="M48763 42627 L48672 42589" /> 
<path d="M48862 42627 L48763 42627" /> 
<path d="M50436 42627 L48862 42627" /> 
<path d="M50499 42600 L50436 42627" /> 
<path d="M50563 42627 L50499 42600" /> 
<path d="M50662 42627 L50563 42627" /> 
<path d="M52236 42627 L50662 42627" /> 
<path d="M52328 42589 L52236 42627" /> 
<path d="M52398 42519 L52328 42589" /> 
<path d="M52436 42428 L52398 42519" /> 
<path d="M52436 42329 L52436 42428" /> 
<path d="M52436 41447 L52436 42329" /> 
<path d="M53315 41447 L52436 41447" /> 
<path d="M54184 42316 L53315 41447" /> 
<path d="M54329 42413 L54184 42316" /> 
<path d="M54500 42447 L54329 42413" /> 
<path d="M56500 42447 L54500 42447" /> 
<path d="M56671 42413 L56500 42447" /> 
<path d="M56816 42316 L56671 42413" /> 
<path d="M57585 41547 L56816 42316" /> 
<path d="M59926 41547 L57585 41547" /> 
<path d="M59985 41606 L59926 41547" /> 
<path d="M60076 41644 L59985 41606" /> 
<path d="M60175 41644 L60076 41644" /> 
<path d="M60923 41644 L60175 41644" /> 
<path d="M61015 41606 L60923 41644" /> 
<path d="M61074 41547 L61015 41606" /> 
<path d="M61358 41547 L61074 41547" /> 
<path d="M61358 41836 L61358 41547" /> 
<path d="M61396 41928 L61358 41836" /> 
<path d="M61466 41998 L61396 41928" /> 
<path d="M61557 42036 L61466 41998" /> 
<path d="M61656 42036 L61557 42036" /> 
<path d="M62442 42036 L61656 42036" /> 
<path d="M62534 41998 L62442 42036" /> 
<path d="M62604 41928 L62534 41998" /> 
<path d="M62642 41837 L62604 41928" /> 
<path d="M62642 41738 L62642 41837" /> 
<path d="M62642 40164 L62642 41738" /> 
<path d="M62604 40072 L62642 40164" /> 
<path d="M62534 40002 L62604 40072" /> 
<path d="M62443 39964 L62534 40002" /> 
<path d="M62344 39964 L62443 39964" /> 
<path d="M61558 39964 L62344 39964" /> 
<path d="M61466 40002 L61558 39964" /> 
<path d="M61396 40072 L61466 40002" /> 
<path d="M61358 40163 L61396 40072" /> 
<path d="M61358 40262 L61358 40163" /> 
<path d="M61358 40653 L61358 40262" /> 
<path d="M61074 40653 L61358 40653" /> 
<path d="M61015 40594 L61074 40653" /> 
<path d="M60924 40556 L61015 40594" /> 
<path d="M60825 40556 L60924 40556" /> 
<path d="M60077 40556 L60825 40556" /> 
<path d="M59985 40594 L60077 40556" /> 
<path d="M59926 40653 L59985 40594" /> 
<path d="M57400 40653 L59926 40653" /> 
<path d="M57229 40687 L57400 40653" /> 
<path d="M57180 40719 L57229 40687" /> 
<path d="M57083 40784 L57180 40719" /> 
<path d="M56314 41553 L57083 40784" /> 
<path d="M54685 41553 L56314 41553" /> 
<path d="M54044 40912 L54685 41553" /> 
<path d="M54047 40900 L54044 40912" /> 
<path d="M54047 40318 L54047 40900" /> 
<path d="M54053 40316 L54047 40318" /> 
<path d="M54053 40500 L54053 40316" /> 
<path d="M54087 40671 L54053 40500" /> 
<path d="M54184 40816 L54087 40671" /> 
<path d="M54684 41316 L54184 40816" /> 
<path d="M54829 41413 L54684 41316" /> 
<path d="M55000 41447 L54829 41413" /> 
<path d="M56000 41447 L55000 41447" /> 
<path d="M56171 41413 L56000 41447" /> 
<path d="M56316 41316 L56171 41413" /> 
<path d="M57816 39816 L56316 41316" /> 
<path d="M57913 39671 L57816 39816" /> 
<path d="M57947 39500 L57913 39671" /> 
<path d="M57947 29685 L57947 39500" /> 
<path d="M58185 29447 L57947 29685" /> 
<path d="M67815 29447 L58185 29447" /> 
<path d="M68053 29685 L67815 29447" /> 
<path d="M68053 42815 L68053 29685" /> 
<path d="M67815 43053 L68053 42815" /> 
<path d="M65000 43053 L67815 43053" /> 
<path d="M64447 43053 L65000 43053" /> 
<path d="M64447 42033 L64447 43053" /> 
<path d="M64534 41998 L64447 42033" /> 
<path d="M64604 41928 L64534 41998" /> 
<path d="M64642 41837 L64604 41928" /> 
<path d="M64642 41738 L64642 41837" /> 
<path d="M64642 41547 L64642 41738" /> 
<path d="M64926 41547 L64642 41547" /> 
<path d="M64985 41606 L64926 41547" /> 
<path d="M65076 41644 L64985 41606" /> 
<path d="M65175 41644 L65076 41644" /> 
<path d="M65923 41644 L65175 41644" /> 
<path d="M66015 41606 L65923 41644" /> 
<path d="M66085 41536 L66015 41606" /> 
<path d="M66123 41445 L66085 41536" /> 
<path d="M66123 41346 L66123 41445" /> 
<path d="M66123 40756 L66123 41346" /> 
<path d="M66085 40664 L66123 40756" /> 
<path d="M66015 40594 L66085 40664" /> 
<path d="M65924 40556 L66015 40594" /> 
<path d="M65825 40556 L65924 40556" /> 
<path d="M65077 40556 L65825 40556" /> 
<path d="M64985 40594 L65077 40556" /> 
<path d="M64926 40653 L64985 40594" /> 
<path d="M64642 40653 L64926 40653" /> 
<path d="M64642 40164 L64642 40653" /> 
<path d="M64604 40072 L64642 40164" /> 
<path d="M64534 40002 L64604 40072" /> 
<path d="M64443 39964 L64534 40002" /> 
<path d="M64344 39964 L64443 39964" /> 
<path d="M63558 39964 L64344 39964" /> 
<path d="M63466 40002 L63558 39964" /> 
<path d="M63396 40072 L63466 40002" /> 
<path d="M63358 40163 L63396 40072" /> 
<path d="M63358 40262 L63358 40163" /> 
<path d="M63358 41836 L63358 40262" /> 
<path d="M63396 41928 L63358 41836" /> 
<path d="M63466 41998 L63396 41928" /> 
<path d="M63553 42034 L63466 41998" /> 
<path d="M63553 43053 L63553 42034" /> 
<path d="M46000 43053 L63553 43053" /> 
<path d="M45829 43087 L46000 43053" /> 
<path d="M45684 43184 L45829 43087" /> 
<path d="M45315 43553 L45684 43184" /> 
<path d="M44430 43553 L45315 43553" /> 
<path d="M44430 42967 L44430 43553" /> 
<path d="M44392 42875 L44430 42967" /> 
<path d="M44322 42805 L44392 42875" /> 
<path d="M44231 42767 L44322 42805" /> 
<path d="M44132 42767 L44231 42767" /> 
<path d="M43590 42767 L44132 42767" /> 
<path d="M43590 42412 L43590 42767" /> 
<path d="M43636 42366 L43590 42412" /> 
<path d="M43674 42275 L43636 42366" /> 
<path d="M43674 42176 L43674 42275" /> 
<path d="M43674 41726 L43674 42176" /> 
<path d="M43636 41634 L43674 41726" /> 
<path d="M43566 41564 L43636 41634" /> 
<path d="M43475 41526 L43566 41564" /> 
<path d="M43376 41526 L43475 41526" /> 
<path d="M43126 41526 L43376 41526" /> 
<path d="M43034 41564 L43126 41526" /> 
<path d="M43000 41598 L43034 41564" /> 
<path d="M42966 41564 L43000 41598" /> 
<path d="M42875 41526 L42966 41564" /> 
<path d="M42776 41526 L42875 41526" /> 
<path d="M42526 41526 L42776 41526" /> 
<path d="M42434 41564 L42526 41526" /> 
<path d="M42364 41634 L42434 41564" /> 
<path d="M42332 41710 L42364 41634" /> 
<path d="M42166 41710 L42332 41710" /> 
<path d="M42163 41702 L42166 41710" /> 
<path d="M42093 41632 L42163 41702" /> 
<path d="M42002 41594 L42093 41632" /> 
<path d="M41903 41594 L42002 41594" /> 
<path d="M41589 41594 L41903 41594" /> 
<path d="M41497 41632 L41589 41594" /> 
<path d="M41427 41702 L41497 41632" /> 
<path d="M41389 41793 L41427 41702" /> 
<path d="M41389 41892 L41389 41793" /> 
<path d="M41389 42206 L41389 41892" /> 
<path d="M41427 42298 L41389 42206" /> 
<path d="M41497 42368 L41427 42298" /> 
<path d="M41588 42406 L41497 42368" /> 
<path d="M41687 42406 L41588 42406" /> 
<path d="M42001 42406 L41687 42406" /> 
<path d="M42093 42368 L42001 42406" /> 
<path d="M42163 42298 L42093 42368" /> 
<path d="M42166 42290 L42163 42298" /> 
<path d="M42332 42290 L42166 42290" /> 
<path d="M42364 42366 L42332 42290" /> 
<path d="M42434 42436 L42364 42366" /> 
<path d="M42525 42474 L42434 42436" /> 
<path d="M42624 42474 L42525 42474" /> 
<path d="M42874 42474 L42624 42474" /> 
<path d="M42966 42436 L42874 42474" /> 
<path d="M43000 42402 L42966 42436" /> 
<path d="M43010 42412 L43000 42402" /> 
<path d="M43010 42767 L43010 42412" /> 
<path d="M41770 42767 L43010 42767" /> 
<path d="M41678 42805 L41770 42767" /> 
<path d="M41608 42875 L41678 42805" /> 
<path d="M41570 42966 L41608 42875" /> 
<path d="M41570 43065 L41570 42966" /> 
<path d="M41570 45033 L41570 43065" /> 
<path d="M41608 45125 L41570 45033" /> 
<path d="M41678 45195 L41608 45125" /> 
<path d="M41769 45233 L41678 45195" /> 
<path d="M41868 45233 L41769 45233" /> 
<path d="M44230 45233 L41868 45233" /> 
<path d="M44322 45195 L44230 45233" /> 
<path d="M44392 45125 L44322 45195" /> 
<path d="M44430 45034 L44392 45125" /> 
<path d="M44430 44935 L44430 45034" /> 
<path d="M44430 44447 L44430 44935" /> 
<path d="M45053 44447 L44430 44447" /> 
<path d="M45053 48500 L45053 44447" /> 
<path d="M45053 50500 L45053 48500" /> 
<path d="M45087 50671 L45053 50500" /> 
<path d="M45184 50816 L45087 50671" /> 
<path d="M45553 51185 L45184 50816" /> 
<path d="M45553 51500 L45553 51185" /> 
<path d="M45553 53500 L45553 51500" /> 
<path d="M45587 53671 L45553 53500" /> 
<path d="M45684 53816 L45587 53671" /> 
<path d="M46184 54316 L45684 53816" /> 
<path d="M46329 54413 L46184 54316" /> 
<path d="M46500 54447 L46329 54413" /> 
<path d="M48564 54447 L46500 54447" /> 
<path d="M48564 55427 L48564 54447" /> 
<path d="M48602 55519 L48564 55427" /> 
<path d="M48672 55589 L48602 55519" /> 
<path d="M48763 55627 L48672 55589" /> 
<path d="M48862 55627 L48763 55627" /> 
<path d="M50436 55627 L48862 55627" /> 
<path d="M50499 55600 L50436 55627" /> 
<path d="M50563 55627 L50499 55600" /> 
<path d="M50662 55627 L50563 55627" /> 
<path d="M52236 55627 L50662 55627" /> 
<path d="M52328 55589 L52236 55627" /> 
<path d="M52398 55519 L52328 55589" /> 
<path d="M52436 55428 L52398 55519" /> 
<path d="M52436 55329 L52436 55428" /> 
<path d="M52436 54447 L52436 55329" /> 
<path d="M53314 54447 L52436 54447" /> 
<path d="M54053 55185 L53314 54447" /> 
<path d="M54053 56000 L54053 55185" /> 
<path d="M54087 56171 L54053 56000" /> 
<path d="M54184 56316 L54087 56171" /> 
<path d="M54784 56916 L54184 56316" /> 
<path d="M54929 57013 L54784 56916" /> 
<path d="M55100 57047 L54929 57013" /> 
<path d="M59426 57047 L55100 57047" /> 
<path d="M59485 57106 L59426 57047" /> 
<path d="M59576 57144 L59485 57106" /> 
<path d="M59675 57144 L59576 57144" /> 
<path d="M60423 57144 L59675 57144" /> 
<path d="M60515 57106 L60423 57144" /> 
<path d="M60574 57047 L60515 57106" /> 
<path d="M61358 57047 L60574 57047" /> 
<path d="M61358 57336 L61358 57047" /> 
<path d="M61396 57428 L61358 57336" /> 
<path d="M61466 57498 L61396 57428" /> 
<path d="M61557 57536 L61466 57498" /> 
<path d="M61656 57536 L61557 57536" /> 
<path d="M62442 57536 L61656 57536" /> 
<path d="M62534 57498 L62442 57536" /> 
<path d="M62604 57428 L62534 57498" /> 
<path d="M62642 57337 L62604 57428" /> 
<path d="M62642 57238 L62642 57337" /> 
<path d="M62642 55664 L62642 57238" /> 
<path d="M62604 55572 L62642 55664" /> 
<path d="M62534 55502 L62604 55572" /> 
<path d="M62443 55464 L62534 55502" /> 
<path d="M62344 55464 L62443 55464" /> 
<path d="M61558 55464 L62344 55464" /> 
<path d="M61466 55502 L61558 55464" /> 
<path d="M61396 55572 L61466 55502" /> 
<path d="M61358 55663 L61396 55572" /> 
<path d="M61358 55762 L61358 55663" /> 
<path d="M61358 56153 L61358 55762" /> 
<path d="M60574 56153 L61358 56153" /> 
<path d="M60515 56094 L60574 56153" /> 
<path d="M60424 56056 L60515 56094" /> 
<path d="M60325 56056 L60424 56056" /> 
<path d="M59577 56056 L60325 56056" /> 
<path d="M59485 56094 L59577 56056" /> 
<path d="M59426 56153 L59485 56094" /> 
<path d="M55285 56153 L59426 56153" /> 
<path d="M54947 55815 L55285 56153" /> 
<path d="M54947 55000 L54947 55815" /> 
<path d="M54946 54999 L54947 55000" /> 
<path d="M54913 54829 L54946 54999" /> 
<path d="M54912 54828 L54913 54829" /> 
<path d="M54880 54780 L54912 54828" /> 
<path d="M54816 54684 L54880 54780" /> 
<path d="M54816 54683 L54816 54684" /> 
<path d="M54047 53914 L54816 54683" /> 
<path d="M54047 53900 L54047 53914" /> 
<path d="M54047 53318 L54047 53900" /> 
<path d="M54053 53316 L54047 53318" /> 
<path d="M54053 53500 L54053 53316" /> 
<path d="M54087 53671 L54053 53500" /> 
<path d="M54184 53816 L54087 53671" /> 
<path d="M54684 54316 L54184 53816" /> 
<path d="M54829 54413 L54684 54316" /> 
<path d="M55000 54447 L54829 54413" /> 
<path d="M57000 54447 L55000 54447" /> 
<path d="M57171 54413 L57000 54447" /> 
<path d="M57316 54316 L57171 54413" /> 
<path d="M57816 53816 L57316 54316" /> 
<path d="M57913 53671 L57816 53816" /> 
<path d="M57947 53500 L57913 53671" /> 
<path d="M57947 52000 L57947 53500" /> 
<path d="M57947 45185 L57947 52000" /> 
<path d="M58185 44947 L57947 45185" /> 
<path d="M67815 44947 L58185 44947" /> 
<path d="M68053 45185 L67815 44947" /> 
<path d="M68053 53815 L68053 45185" /> 
<path d="M67815 54053 L68053 53815" /> 
<path d="M67500 54053 L67815 54053" /> 
<path d="M67329 54087 L67500 54053" /> 
<path d="M67184 54184 L67329 54087" /> 
<path d="M66684 54684 L67184 54184" /> 
<path d="M66587 54829 L66684 54684" /> 
<path d="M66553 55000 L66587 54829" /> 
<path d="M66553 55815 L66553 55000" /> 
<path d="M66215 56153 L66553 55815" /> 
<path d="M66074 56153 L66215 56153" /> 
<path d="M66015 56094 L66074 56153" /> 
<path d="M65924 56056 L66015 56094" /> 
<path d="M65825 56056 L65924 56056" /> 
<path d="M65077 56056 L65825 56056" /> 
<path d="M64985 56094 L65077 56056" /> 
<path d="M64926 56153 L64985 56094" /> 
<path d="M64642 56153 L64926 56153" /> 
<path d="M64642 55664 L64642 56153" /> 
<path d="M64604 55572 L64642 55664" /> 
<path d="M64534 55502 L64604 55572" /> 
<path d="M64443 55464 L64534 55502" /> 
<path d="M64344 55464 L64443 55464" /> 
<path d="M63558 55464 L64344 55464" /> 
<path d="M63466 55502 L63558 55464" /> 
<path d="M63396 55572 L63466 55502" /> 
<path d="M63358 55663 L63396 55572" /> 
<path d="M63358 55762 L63358 55663" /> 
<path d="M63358 57336 L63358 55762" /> 
<path d="M63396 57428 L63358 57336" /> 
<path d="M63466 57498 L63396 57428" /> 
<path d="M63553 57534 L63466 57498" /> 
<path d="M63553 58315 L63553 57534" /> 
<path d="M63315 58553 L63553 58315" /> 
<path d="M45685 58553 L63315 58553" /> 
<path d="M45447 58315 L45685 58553" /> 
<path d="M45447 57500 L45447 58315" /> 
<path d="M45447 51500 L45447 57500" /> 
<path d="M45413 51329 L45447 51500" /> 
<path d="M45316 51184 L45413 51329" /> 
<path d="M44816 50684 L45316 51184" /> 
<path d="M44671 50587 L44816 50684" /> 
<path d="M44500 50553 L44671 50587" /> 
<path d="M44430 50553 L44500 50553" /> 
<path d="M44430 49967 L44430 50553" /> 
<path d="M44392 49875 L44430 49967" /> 
<path d="M44322 49805 L44392 49875" /> 
<path d="M44231 49767 L44322 49805" /> 
<path d="M44132 49767 L44231 49767" /> 
<path d="M43590 49767 L44132 49767" /> 
<path d="M43590 49412 L43590 49767" /> 
<path d="M43636 49366 L43590 49412" /> 
<path d="M43674 49275 L43636 49366" /> 
<path d="M43674 49176 L43674 49275" /> 
<path d="M43674 48726 L43674 49176" /> 
<path d="M43636 48634 L43674 48726" /> 
<path d="M43566 48564 L43636 48634" /> 
<path d="M43475 48526 L43566 48564" /> 
<path d="M43376 48526 L43475 48526" /> 
<path d="M43126 48526 L43376 48526" /> 
<path d="M43034 48564 L43126 48526" /> 
<path d="M43000 48598 L43034 48564" /> 
<path d="M42966 48564 L43000 48598" /> 
<path d="M42875 48526 L42966 48564" /> 
<path d="M42776 48526 L42875 48526" /> 
<path d="M42526 48526 L42776 48526" /> 
<path d="M42434 48564 L42526 48526" /> 
<path d="M42364 48634 L42434 48564" /> 
<path d="M42332 48710 L42364 48634" /> 
<path d="M42166 48710 L42332 48710" /> 
<path d="M42163 48702 L42166 48710" /> 
<path d="M42093 48632 L42163 48702" /> 
<path d="M42002 48594 L42093 48632" /> 
<path d="M41903 48594 L42002 48594" /> 
<path d="M41589 48594 L41903 48594" /> 
<path d="M41497 48632 L41589 48594" /> 
<path d="M41427 48702 L41497 48632" /> 
<path d="M41389 48793 L41427 48702" /> 
<path d="M41389 48892 L41389 48793" /> 
<path d="M41389 49206 L41389 48892" /> 
<path d="M41427 49298 L41389 49206" /> 
<path d="M41497 49368 L41427 49298" /> 
<path d="M41588 49406 L41497 49368" /> 
<path d="M41687 49406 L41588 49406" /> 
<path d="M42001 49406 L41687 49406" /> 
<path d="M42093 49368 L42001 49406" /> 
<path d="M42163 49298 L42093 49368" /> 
<path d="M42166 49290 L42163 49298" /> 
<path d="M42332 49290 L42166 49290" /> 
<path d="M42364 49366 L42332 49290" /> 
<path d="M42434 49436 L42364 49366" /> 
<path d="M42525 49474 L42434 49436" /> 
<path d="M42624 49474 L42525 49474" /> 
<path d="M42874 49474 L42624 49474" /> 
<path d="M42966 49436 L42874 49474" /> 
<path d="M43000 49402 L42966 49436" /> 
<path d="M43010 49412 L43000 49402" /> 
<path d="M43010 49767 L43010 49412" /> 
<path d="M41770 49767 L43010 49767" /> 
<path d="M41678 49805 L41770 49767" /> 
<path d="M41608 49875 L41678 49805" /> 
<path d="M41570 49966 L41608 49875" /> 
<path d="M41570 50065 L41570 49966" /> 
<path d="M41570 52033 L41570 50065" /> 
<path d="M41608 52125 L41570 52033" /> 
<path d="M41678 52195 L41608 52125" /> 
<path d="M41769 52233 L41678 52195" /> 
<path d="M41868 52233 L41769 52233" /> 
<path d="M44230 52233 L41868 52233" /> 
<path d="M44322 52195 L44230 52233" /> 
<path d="M44392 52125 L44322 52195" /> 
<path d="M44430 52034 L44392 52125" /> 
<path d="M44430 51935 L44430 52034" /> 
<path d="M44430 51562 L44430 51935" /> 
<path d="M44553 51685 L44430 51562" /> 
<path d="M44553 57500 L44553 51685" /> 
<path d="M44553 58500 L44553 57500" /> 
<path d="M44587 58671 L44553 58500" /> 
<path d="M44684 58816 L44587 58671" /> 
<path d="M45184 59316 L44684 58816" /> 
<path d="M45329 59413 L45184 59316" /> 
<path d="M45500 59447 L45329 59413" /> 
<path d="M63500 59447 L45500 59447" /> 
<path d="M63671 59413 L63500 59447" /> 
<path d="M63816 59316 L63671 59413" /> 
<path d="M64316 58816 L63816 59316" /> 
<path d="M64413 58671 L64316 58816" /> 
<path d="M64447 58500 L64413 58671" /> 
<path d="M64447 57533 L64447 58500" /> 
<path d="M64534 57498 L64447 57533" /> 
<path d="M64604 57428 L64534 57498" /> 
<path d="M64642 57337 L64604 57428" /> 
<path d="M64642 57238 L64642 57337" /> 
<path d="M64642 57047 L64642 57238" /> 
<path d="M64926 57047 L64642 57047" /> 
<path d="M64985 57106 L64926 57047" /> 
<path d="M65076 57144 L64985 57106" /> 
<path d="M65175 57144 L65076 57144" /> 
<path d="M65923 57144 L65175 57144" /> 
<path d="M66015 57106 L65923 57144" /> 
<path d="M66074 57047 L66015 57106" /> 
<path d="M66400 57047 L66074 57047" /> 
<path d="M66571 57013 L66400 57047" /> 
<path d="M66716 56916 L66571 57013" /> 
<path d="M67316 56316 L66716 56916" /> 
<path d="M67413 56171 L67316 56316" /> 
<path d="M67447 56000 L67413 56171" /> 
<path d="M67447 55185 L67447 56000" /> 
<path d="M67685 54947 L67447 55185" /> 
<path d="M68000 54947 L67685 54947" /> 
<path d="M68171 54913 L68000 54947" /> 
<path d="M68316 54816 L68171 54913" /> 
<path d="M68816 54316 L68316 54816" /> 
<path d="M68913 54171 L68816 54316" /> 
<path d="M68947 54000 L68913 54171" /> 
<path d="M68947 57543 L68947 54000" /> 
<path d="M68890 57406 L68947 57543" /> 
<path d="M68595 57110 L68890 57406" /> 
<path d="M68210 56950 L68595 57110" /> 
<path d="M67792 56950 L68210 56950" /> 
<path d="M67406 57110 L67792 56950" /> 
<path d="M67110 57405 L67406 57110" /> 
<path d="M66950 57790 L67110 57405" /> 
<path d="M66950 58208 L66950 57790" /> 
<path d="M67110 58594 L66950 58208" /> 
<path d="M67405 58890 L67110 58594" /> 
<path d="M67790 59050 L67405 58890" /> 
<path d="M68208 59050 L67790 59050" /> 
<path d="M68594 58890 L68208 59050" /> 
<path d="M68890 58595 L68594 58890" /> 
<path d="M69050 58210 L68890 58595" /> 
<path d="M69050 60450 L69050 58210" /> 
<path d="M43050 60450 L69050 60450" /> 
<path d="M43050 58210 L43050 60450" /> 
<path d="M43050 57792 L43050 58210" /> 
<path d="M42890 57406 L43050 57792" /> 
<path d="M42595 57110 L42890 57406" /> 
<path d="M42210 56950 L42595 57110" /> 
<path d="M41792 56950 L42210 56950" /> 
<path d="M41406 57110 L41792 56950" /> 
<path d="M41110 57405 L41406 57110" /> 
<path d="M40950 57790 L41110 57405" /> 
<path d="M40950 58208 L40950 57790" /> 
<path d="M41110 58594 L40950 58208" /> 
<path d="M41405 58890 L41110 58594" /> 
<path d="M41790 59050 L41405 58890" /> 
<path d="M42208 59050 L41790 59050" /> 
<path d="M42594 58890 L42208 59050" /> 
<path d="M42890 58595 L42594 58890" /> 
<path d="M43050 58210 L42890 58595" /> 
<path d="M43050 60450 L43050 58210" /> 
<path d="M39550 60450 L43050 60450" /> 
<path d="M39550 21550 L39550 60450" /> 
<path d="M70450 21550 L39550 21550" /> 
<path d="M70450 60450 L70450 21550" /> 
</g>
<g style="fill:#A00000; fill-opacity:1.0; 
  stroke:#A00000; stroke-linecap:round; stroke-linejoin:round; stroke-opacity:1.0; stroke-opacity:1.0; stroke-width:0" 
   transform="translate(0 0) scale(1 1)">
<polygon style="fill-rule:evenodd; " 
points="69050,24210
69050,23792
68890,23406
68595,23110
68210,22950
67792,22950
67406,23110
67110,23405
66950,23790
66950,24208
67110,24594
67405,24890
67790,25050
68208,25050
68594,24890
68890,24595
69050,24210
69050,57792
68947,57543
68947,54000
68947,45000
68913,44829
68816,44684
68316,44184
68171,44087
68000,44053
58000,44053
57829,44087
57684,44184
57184,44684
57087,44829
57053,45000
57053,52000
57053,53315
56815,53553
55185,53553
54949,53317
55025,53349
55124,53349
55774,53349
55866,53311
55936,53241
55974,53150
55974,53051
55974,52947
56000,52947
56171,52913
56316,52816
56816,52316
56913,52171
56947,52000
56947,48500
56913,48329
56816,48184
56316,47684
56171,47587
56000,47553
55796,47553
55796,47110
55796,44010
47085,44010
47085,47110
55796,47110
55796,47553
48000,47553
47829,47587
47684,47684
47184,48184
47087,48329
47053,48500
47053,48661
46467,48661
46375,48699
46305,48769
46267,48860
46267,48959
46267,50139
46305,50231
46375,50301
46466,50339
46565,50339
48533,50339
48625,50301
48647,50279
48834,50466
48884,50500
48834,50534
48647,50721
48625,50699
48534,50661
48435,50661
46467,50661
46375,50699
46345,50728
46316,50684
45947,50315
45947,48500
45947,44185
46185,43947
64000,43947
65000,43947
68000,43947
68171,43913
68316,43816
68816,43316
68913,43171
68947,43000
68947,29500
68913,29329
68816,29184
68316,28684
68171,28587
68000,28553
58000,28553
57829,28587
57684,28684
57184,29184
57087,29329
57053,29500
57053,39315
55815,40553
55185,40553
54949,40317
55025,40349
55124,40349
55774,40349
55866,40311
55936,40241
55974,40150
55974,40051
55974,39947
56000,39947
56171,39913
56316,39816
56816,39316
56913,39171
56947,39000
56947,35500
56913,35329
56816,35184
56316,34684
56171,34587
56000,34553
48000,34553
47829,34587
47684,34684
47184,35184
47087,35329
47053,35500
47053,35661
46467,35661
46375,35699
46305,35769
46267,35860
46267,35959
46267,37139
46305,37231
46375,37301
46466,37339
46565,37339
48533,37339
48625,37301
48647,37279
48834,37466
48884,37500
48834,37534
48647,37721
48625,37699
48534,37661
48435,37661
46467,37661
46375,37699
46305,37769
46267,37860
46267,37959
46267,39139
46305,39231
46375,39301
46466,39339
46565,39339
48533,39339
48625,39301
48695,39231
48733,39140
48733,39041
48733,38871
48816,38816
49335,38297
49600,38297
49690,38279
49829,38279
49921,38241
49991,38171
50029,38080
50029,37981
50029,37940
50045,37857
50079,37891
50170,37929
50269,37929
50309,37929
50400,37947
51315,37947
51553,38185
51553,38315
51084,38784
50987,38929
50953,39100
50953,39373
50564,39373
50500,39399
50437,39373
50338,39373
48764,39373
48672,39411
48602,39481
48564,39572
48564,39671
48564,40553
46185,40553
45947,40315
45947,35500
45947,30500
45913,30329
45816,30184
45447,29815
45447,29331
45466,29339
45565,29339
47533,29339
47625,29301
47695,29231
47733,29140
47733,29041
47733,27861
47695,27769
47625,27699
47534,27661
47435,27661
45467,27661
45375,27699
45305,27769
45267,27860
45267,27959
45267,28128
45184,28184
44815,28553
44430,28553
44430,27967
44392,27875
44322,27805
44231,27767
44132,27767
43050,27767
43050,24210
43050,23792
42890,23406
42595,23110
42210,22950
41792,22950
41406,23110
41110,23405
40950,23790
40950,24208
41110,24594
41405,24890
41790,25050
42208,25050
42594,24890
42890,24595
43050,24210
43050,27767
41770,27767
41678,27805
41608,27875
41570,27966
41570,28065
41570,30033
41608,30125
41678,30195
41769,30233
41868,30233
44230,30233
44322,30195
44392,30125
44430,30034
44430,29935
44430,29447
44553,29447
44553,30000
44587,30171
44684,30316
45053,30685
45053,35053
44430,35053
44430,34467
44392,34375
44322,34305
44231,34267
44132,34267
41770,34267
41678,34305
41608,34375
41570,34466
41570,34565
41570,36533
41608,36625
41678,36695
41769,36733
41868,36733
44230,36733
44322,36695
44392,36625
44430,36534
44430,36435
44430,35947
45053,35947
45053,40500
45087,40671
45184,40816
45684,41316
45829,41413
46000,41447
48564,41447
48564,42427
48602,42519
48672,42589
48763,42627
48862,42627
50436,42627
50499,42600
50563,42627
50662,42627
52236,42627
52328,42589
52398,42519
52436,42428
52436,42329
52436,41447
53315,41447
54184,42316
54329,42413
54500,42447
56500,42447
56671,42413
56816,42316
57585,41547
59926,41547
59985,41606
60076,41644
60175,41644
60923,41644
61015,41606
61074,41547
61358,41547
61358,41836
61396,41928
61466,41998
61557,42036
61656,42036
62442,42036
62534,41998
62604,41928
62642,41837
62642,41738
62642,40164
62604,40072
62534,40002
62443,39964
62344,39964
61558,39964
61466,40002
61396,40072
61358,40163
61358,40262
61358,40653
61074,40653
61015,40594
60924,40556
60825,40556
60077,40556
59985,40594
59926,40653
57400,40653
57229,40687
57180,40719
57083,40784
56314,41553
54685,41553
54044,40912
54047,40900
54047,40318
54053,40316
54053,40500
54087,40671
54184,40816
54684,41316
54829,41413
55000,41447
56000,41447
56171,41413
56316,41316
57816,39816
57913,39671
57947,39500
57947,29685
58185,29447
67815,29447
68053,29685
68053,42815
67815,43053
65000,43053
64447,43053
64447,42033
64534,41998
64604,41928
64642,41837
64642,41738
64642,41547
64926,41547
64985,41606
65076,41644
65175,41644
65923,41644
66015,41606
66085,41536
66123,41445
66123,41346
66123,40756
66085,40664
66015,40594
65924,40556
65825,40556
65077,40556
64985,40594
64926,40653
64642,40653
64642,40164
64604,40072
64534,40002
64443,39964
64344,39964
63558,39964
63466,40002
63396,40072
63358,40163
63358,40262
63358,41836
63396,41928
63466,41998
63553,42034
63553,43053
46000,43053
45829,43087
45684,43184
45315,43553
44430,43553
44430,42967
44392,42875
44322,42805
44231,42767
44132,42767
43590,42767
43590,42412
43636,42366
43674,42275
43674,42176
43674,41726
43636,41634
43566,41564
43475,41526
43376,41526
43126,41526
43034,41564
43000,41598
42966,41564
42875,41526
42776,41526
42526,41526
42434,41564
42364,41634
42332,41710
42166,41710
42163,41702
42093,41632
42002,41594
41903,41594
41589,41594
41497,41632
41427,41702
41389,41793
41389,41892
41389,42206
41427,42298
41497,42368
41588,42406
41687,42406
42001,42406
42093,42368
42163,42298
42166,42290
42332,42290
42364,42366
42434,42436
42525,42474
42624,42474
42874,42474
42966,42436
43000,42402
43010,42412
43010,42767
41770,42767
41678,42805
41608,42875
41570,42966
41570,43065
41570,45033
41608,45125
41678,45195
41769,45233
41868,45233
44230,45233
44322,45195
44392,45125
44430,45034
44430,44935
44430,44447
45053,44447
45053,48500
45053,50500
45087,50671
45184,50816
45553,51185
45553,51500
45553,53500
45587,53671
45684,53816
46184,54316
46329,54413
46500,54447
48564,54447
48564,55427
48602,55519
48672,55589
48763,55627
48862,55627
50436,55627
50499,55600
50563,55627
50662,55627
52236,55627
52328,55589
52398,55519
52436,55428
52436,55329
52436,54447
53314,54447
54053,55185
54053,56000
54087,56171
54184,56316
54784,56916
54929,57013
55100,57047
59426,57047
59485,57106
59576,57144
59675,57144
60423,57144
60515,57106
60574,57047
61358,57047
61358,57336
61396,57428
61466,57498
61557,57536
61656,57536
62442,57536
62534,57498
62604,57428
62642,57337
62642,57238
62642,55664
62604,55572
62534,55502
62443,55464
62344,55464
61558,55464
61466,55502
61396,55572
61358,55663
61358,55762
61358,56153
60574,56153
60515,56094
60424,56056
60325,56056
59577,56056
59485,56094
59426,56153
55285,56153
54947,55815
54947,55000
54946,54999
54913,54829
54912,54828
54880,54780
54816,54684
54816,54683
54047,53914
54047,53900
54047,53318
54053,53316
54053,53500
54087,53671
54184,53816
54684,54316
54829,54413
55000,54447
57000,54447
57171,54413
57316,54316
57816,53816
57913,53671
57947,53500
57947,52000
57947,45185
58185,44947
67815,44947
68053,45185
68053,53815
67815,54053
67500,54053
67329,54087
67184,54184
66684,54684
66587,54829
66553,55000
66553,55815
66215,56153
66074,56153
66015,56094
65924,56056
65825,56056
65077,56056
64985,56094
64926,56153
64642,56153
64642,55664
64604,55572
64534,55502
64443,55464
64344,55464
63558,55464
63466,55502
63396,55572
63358,55663
63358,55762
63358,57336
63396,57428
63466,57498
63553,57534
63553,58315
63315,58553
45685,58553
45447,58315
45447,57500
45447,51500
45413,51329
45316,51184
44816,50684
44671,50587
44500,50553
44430,50553
44430,49967
44392,49875
44322,49805
44231,49767
44132,49767
43590,49767
43590,49412
43636,49366
43674,49275
43674,49176
43674,48726
43636,48634
43566,48564
43475,48526
43376,48526
43126,48526
43034,48564
43000,48598
42966,48564
42875,48526
42776,48526
42526,48526
42434,48564
42364,48634
42332,48710
42166,48710
42163,48702
42093,48632
42002,48594
41903,48594
41589,48594
41497,48632
41427,48702
41389,48793
41389,48892
41389,49206
41427,49298
41497,49368
41588,49406
41687,49406
42001,49406
42093,49368
42163,49298
42166,49290
42332,49290
42364,49366
42434,49436
42525,49474
42624,49474
42874,49474
42966,49436
43000,49402
43010,49412
43010,49767
41770,49767
41678,49805
41608,49875
41570,49966
41570,50065
41570,52033
41608,52125
41678,52195
41769,52233
41868,52233
44230,52233
44322,52195
44392,52125
44430,52034
44430,51935
44430,51562
44553,51685
44553,57500
44553,58500
44587,58671
44684,58816
45184,59316
45329,59413
45500,59447
63500,59447
63671,59413
63816,59316
64316,58816
64413,58671
64447,58500
64447,57533
64534,57498
64604,57428
64642,57337
64642,57238
64642,57047
64926,57047
64985,57106
65076,57144
65175,57144
65923,57144
66015,57106
66074,57047
66400,57047
66571,57013
66716,56916
67316,56316
67413,56171
67447,56000
67447,55185
67685,54947
68000,54947
68171,54913
68316,54816
68816,54316
68913,54171
68947,54000
68947,57543
68890,57406
68595,57110
68210,56950
67792,56950
67406,57110
67110,57405
66950,57790
66950,58208
67110,58594
67405,58890
67790,59050
68208,59050
68594,58890
68890,58595
69050,58210
69050,60450
43050,60450
43050,58210
43050,57792
42890,57406
42595,57110
42210,56950
41792,56950
41406,57110
41110,57405
40950,57790
40950,58208
41110,58594
41405,58890
41790,59050
42208,59050
42594,58890
42890,58595
43050,58210
43050,60450
39550,60450
39550,21550
70450,21550
70450,60450
70450,60450
69050,60450
69050,58210
69050,57792
" /> 
</g>
<g style="fill:#A00000; fill-opacity:1.0; 
  stroke:#A00000; stroke-linecap:round; stroke-linejoin:round; stroke-opacity:1.0; stroke-opacity:1.0; stroke-width:0" 
   transform="translate(0 0) scale(1 1)">
<polygon style="fill-rule:evenodd; " 
points="62393,41787
61607,41787
61607,40213
62393,40213
" /> 
<polygon style="fill-rule:evenodd; " 
points="63393,41787
62607,41787
62607,40213
63393,40213
" /> 
<polygon style="fill-rule:evenodd; " 
points="64393,41787
63607,41787
63607,40213
64393,40213
" /> 
</g>
<g style="fill:#808000; fill-opacity:1.0; 
  stroke:#808000; stroke-linecap:round; stroke-linejoin:round; stroke-opacity:1.0; stroke-opacity:1.0; stroke-width:0" 
   transform="translate(0 0) scale(1 1)">
<polygon style="fill-rule:evenodd; " 
points="67921,38330
58079,38330
58079,29670
67921,29670
" /> 
</g>
<g style="fill:#FFFFFF; fill-opacity:1.0; 
  stroke:#808000; stroke-linecap:round; stroke-linejoin:round; stroke-opacity:1.0; stroke-opacity:1.0; stroke-width:0" 
   transform="translate(0 0) scale(1 1)">
<ellipse cx="63000" cy="34000" rx="590" ry="590"  /> 
</g>
<g style="fill:#A00000; fill-opacity:1.0; 
  stroke:#A00000; stroke-linecap:round; stroke-linejoin:round; stroke-opacity:1.0; stroke-opacity:1.0; stroke-width:0" 
   transform="translate(0 0) scale(1 1)">
<polygon style="fill-rule:evenodd; " 
points="49780,51030
49420,51030
49420,50670
49780,50670
" /> 
<polygon style="fill-rule:evenodd; " 
points="49780,50330
49420,50330
49420,49970
49780,49970
" /> 
<polygon style="fill-rule:evenodd; " 
points="50580,50680
50220,50680
50220,50320
50580,50320
" /> 
<polygon style="fill-rule:evenodd; " 
points="49780,38030
49420,38030
49420,37670
49780,37670
" /> 
<polygon style="fill-rule:evenodd; " 
points="49780,37330
49420,37330
49420,36970
49780,36970
" /> 
<polygon style="fill-rule:evenodd; " 
points="50580,37680
50220,37680
50220,37320
50580,37320
" /> 
<polygon style="fill-rule:evenodd; " 
points="42575,42225
42575,41775
42825,41775
42825,42225
" /> 
<polygon style="fill-rule:evenodd; " 
points="43175,42225
43175,41775
43425,41775
43425,42225
" /> 
<polygon style="fill-rule:evenodd; " 
points="42575,49225
42575,48775
42825,48775
42825,49225
" /> 
<polygon style="fill-rule:evenodd; " 
points="43175,49225
43175,48775
43425,48775
43425,49225
" /> 
<polygon style="fill-rule:evenodd; " 
points="46516,48910
48484,48910
48484,50090
46516,50090
" /> 
<polygon style="fill-rule:evenodd; " 
points="46516,50910
48484,50910
48484,52090
46516,52090
" /> 
<polygon style="fill-rule:evenodd; " 
points="46516,35910
48484,35910
48484,37090
46516,37090
" /> 
<polygon style="fill-rule:evenodd; " 
points="46516,37910
48484,37910
48484,39090
46516,39090
" /> 
<polygon style="fill-rule:evenodd; " 
points="48813,42378
48813,39622
50387,39622
50387,42378
" /> 
<polygon style="fill-rule:evenodd; " 
points="50613,42378
50613,39622
52187,39622
52187,42378
" /> 
<polygon style="fill-rule:evenodd; " 
points="48813,55378
48813,52622
50387,52622
50387,55378
" /> 
<polygon style="fill-rule:evenodd; " 
points="50613,55378
50613,52622
52187,52622
52187,55378
" /> 
<polygon style="fill-rule:evenodd; " 
points="41952,41843
41952,42157
41638,42157
41638,41843
" /> 
<polygon style="fill-rule:evenodd; " 
points="41362,41843
41362,42157
41048,42157
41048,41843
" /> 
<polygon style="fill-rule:evenodd; " 
points="41952,48843
41952,49157
41638,49157
41638,48843
" /> 
<polygon style="fill-rule:evenodd; " 
points="41362,48843
41362,49157
41048,49157
41048,48843
" /> 
<polygon style="fill-rule:evenodd; " 
points="53275,40100
53275,38900
53925,38900
53925,40100
" /> 
<polygon style="fill-rule:evenodd; " 
points="53300,38200
53300,35800
55700,35800
55700,38200
" /> 
<polygon style="fill-rule:evenodd; " 
points="55075,40100
55075,38900
55725,38900
55725,40100
" /> 
<polygon style="fill-rule:evenodd; " 
points="53275,53100
53275,51900
53925,51900
53925,53100
" /> 
<polygon style="fill-rule:evenodd; " 
points="53300,51200
53300,48800
55700,48800
55700,51200
" /> 
<polygon style="fill-rule:evenodd; " 
points="55075,53100
55075,51900
55725,51900
55725,53100
" /> 
<polygon style="fill-rule:evenodd; " 
points="47484,27910
47484,29090
45516,29090
45516,27910
" /> 
<polygon style="fill-rule:evenodd; " 
points="47484,23910
47484,25090
45516,25090
45516,23910
" /> 
<polygon style="fill-rule:evenodd; " 
points="41819,36484
41819,34516
44181,34516
44181,36484
" /> 
<polygon style="fill-rule:evenodd; " 
points="41819,39484
41819,37516
44181,37516
44181,39484
" /> 
<polygon style="fill-rule:evenodd; " 
points="41819,44984
41819,43016
44181,43016
44181,44984
" /> 
<polygon style="fill-rule:evenodd; " 
points="41819,47984
41819,46016
44181,46016
44181,47984
" /> 
<polygon style="fill-rule:evenodd; " 
points="41819,51984
41819,50016
44181,50016
44181,51984
" /> 
<polygon style="fill-rule:evenodd; " 
points="41819,54984
41819,53016
44181,53016
44181,54984
" /> 
<polygon style="fill-rule:evenodd; " 
points="41819,29984
41819,28016
44181,28016
44181,29984
" /> 
<polygon style="fill-rule:evenodd; " 
points="41819,32984
41819,31016
44181,31016
44181,32984
" /> 
<polygon style="fill-rule:evenodd; " 
points="60874,41395
60126,41395
60126,40805
60874,40805
" /> 
<polygon style="fill-rule:evenodd; " 
points="60874,40195
60126,40195
60126,39605
60874,39605
" /> 
<polygon style="fill-rule:evenodd; " 
points="65874,56895
65126,56895
65126,56305
65874,56305
" /> 
<polygon style="fill-rule:evenodd; " 
points="65874,55695
65126,55695
65126,55105
65874,55105
" /> 
<polygon style="fill-rule:evenodd; " 
points="65874,41395
65126,41395
65126,40805
65874,40805
" /> 
<polygon style="fill-rule:evenodd; " 
points="65874,40195
65126,40195
65126,39605
65874,39605
" /> 
<polygon style="fill-rule:evenodd; " 
points="60374,56895
59626,56895
59626,56305
60374,56305
" /> 
<polygon style="fill-rule:evenodd; " 
points="60374,55695
59626,55695
59626,55105
60374,55105
" /> 
<polygon style="fill-rule:evenodd; " 
points="62393,57287
61607,57287
61607,55713
62393,55713
" /> 
<polygon style="fill-rule:evenodd; " 
points="63393,57287
62607,57287
62607,55713
63393,55713
" /> 
<polygon style="fill-rule:evenodd; " 
points="64393,57287
63607,57287
63607,55713
64393,55713
" /> 
</g>
<g style="fill:#808000; fill-opacity:1.0; 
  stroke:#808000; stroke-linecap:round; stroke-linejoin:round; stroke-opacity:1.0; stroke-opacity:1.0; stroke-width:0" 
   transform="translate(0 0) scale(1 1)">
<polygon style="fill-rule:evenodd; " 
points="67921,53830
58079,53830
58079,45170
67921,45170
" /> 
</g>
<g style="fill:#FFFFFF; fill-opacity:1.0; 
  stroke:#808000; stroke-linecap:round; stroke-linejoin:round; stroke-opacity:1.0; stroke-opacity:1.0; stroke-width:0" 
   transform="translate(0 0) scale(1 1)">
<ellipse cx="63000" cy="49500" rx="590" ry="590"  /> 
</g>
<g style="fill:#808000; fill-opacity:1.0; 
  stroke:#808000; stroke-linecap:round; stroke-linejoin:round; stroke-opacity:1.0; stroke-opacity:1.0; stroke-width:0" 
   transform="translate(0 0) scale(1 1)">
<ellipse cx="42000" cy="24000" rx="800" ry="800"  /> 
</g>
<g style="fill:#FFFFFF; fill-opacity:1.0; 
  stroke:#808000; stroke-linecap:round; stroke-linejoin:round; stroke-opacity:1.0; stroke-opacity:1.0; stroke-width:0" 
   transform="translate(0 0) scale(1 1)">
<ellipse cx="42000" cy="24000" rx="600" ry="600"  /> 
</g>
<g style="fill:#808000; fill-opacity:1.0; 
  stroke:#808000; stroke-linecap:round; stroke-linejoin:round; stroke-opacity:1.0; stroke-opacity:1.0; stroke-width:0" 
   transform="translate(0 0) scale(1 1)">
<ellipse cx="68000" cy="24000" rx="800" ry="800"  /> 
</g>
<g style="fill:#FFFFFF; fill-opacity:1.0; 
  stroke:#808000; stroke-linecap:round; stroke-linejoin:round; stroke-opacity:1.0; stroke-opacity:1.0; stroke-width:0" 
   transform="translate(0 0) scale(1 1)">
<ellipse cx="68000" cy="24000" rx="600" ry="600"  /> 
</g>
<g style="fill:#808000; fill-opacity:1.0; 
  stroke:#808000; stroke-linecap:round; stroke-linejoin:round; stroke-opacity:1.0; stroke-opacity:1.0; stroke-width:0" 
   transform="translate(0 0) scale(1 1)">
<ellipse cx="68000" cy="58000" rx="800" ry="800"  /> 
</g>
<g style="fill:#FFFFFF; fill-opacity:1.0; 
  stroke:#808000; stroke-linecap:round; stroke-linejoin:round; stroke-opacity:1.0; stroke-opacity:1.0; stroke-width:0" 
   transform="translate(0 0) scale(1 1)">
<ellipse cx="68000" cy="58000" rx="600" ry="600"  /> 
</g>
<g style="fill:#808000; fill-opacity:1.0; 
  stroke:#808000; stroke-linecap:round; stroke-linejoin:round; stroke-opacity:1.0; stroke-opacity:1.0; stroke-width:0" 
   transform="translate(0 0) scale(1 1)">
<ellipse cx="42000" cy="58000" rx="800" ry="800"  /> 
</g>
<g style="fill:#FFFFFF; fill-opacity:1.0; 
  stroke:#808000; stroke-linecap:round; stroke-linejoin:round; stroke-opacity:1.0; stroke-opacity:1.0; stroke-width:0" 
   transform="translate(0 0) scale(1 1)">
<ellipse cx="42000" cy="58000" rx="600" ry="600"  /> 
</g> 
</svg> 
