<?xml version="1.0" standalone="no"?>
<!DOCTYPE svg PUBLIC "-//W3C//DTD SVG 1.1//EN" 
"http://www.w3.org/Graphics/SVG/1.1/DTD/svg11.dtd"> 
<svg
  xmlns="http://www.w3.org/2000/svg"
  version="1.1"
  width="11.7in" height="8.267in" viewBox="0 0 117000 82670 "
>
  <title>SVG Picture created as XBeeIface-brd.svg </title>
  <desc>Picture generated by wxSVG v0101 </desc>
  <g style="fill:black; stroke:black; stroke-width:1">
</g>
<g style="fill:#000000; fill-opacity:0.0; 
  stroke:#000000; stroke-linecap:round; stroke-linejoin:round; stroke-opacity:1.0; stroke-opacity:1.0; stroke-width:197" 
   transform="translate(0 0) scale(1 1)">
<path d="M49000 38500 L53500 38500" /> 
<path d="M54044 37956 L57669 37956" /> 
<path d="M53500 38500 L54044 37956" /> 
<path d="M57669 38743 L54257 38743" /> 
<path d="M50500 40000 L49000 40000" /> 
<path d="M51000 39500 L50500 40000" /> 
<path d="M53500 39500 L51000 39500" /> 
<path d="M54257 38743 L53500 39500" /> 
<path d="M56000 40500 L56000 42000" /> 
<path d="M57669 39531 L56469 39531" /> 
<path d="M56000 40000 L56000 40500" /> 
<path d="M56469 39531 L56000 40000" /> 
<path d="M49000 41500 L50500 41500" /> 
<path d="M51500 40500 L52000 40500" /> 
<path d="M50500 41500 L51500 40500" /> 
</g>
<g style="fill:#000000; fill-opacity:0.0; 
  stroke:#000000; stroke-linecap:round; stroke-linejoin:round; stroke-opacity:1.0; stroke-opacity:1.0; stroke-width:100" 
   transform="translate(0 0) scale(1 1)">
<path d="M67450 50450 L67450 50450" /> 
<path d="M67050 50450 L67450 50450" /> 
<path d="M67050 49210 L67050 50450" /> 
<path d="M67050 48792 L67050 49210" /> 
<path d="M67050 34210 L67050 48792" /> 
<path d="M67050 33792 L67050 34210" /> 
<path d="M66890 33406 L67050 33792" /> 
<path d="M66595 33110 L66890 33406" /> 
<path d="M66210 32950 L66595 33110" /> 
<path d="M65792 32950 L66210 32950" /> 
<path d="M65406 33110 L65792 32950" /> 
<path d="M65110 33405 L65406 33110" /> 
<path d="M64950 33790 L65110 33405" /> 
<path d="M64950 34208 L64950 33790" /> 
<path d="M65110 34594 L64950 34208" /> 
<path d="M65405 34890 L65110 34594" /> 
<path d="M65790 35050 L65405 34890" /> 
<path d="M66208 35050 L65790 35050" /> 
<path d="M66594 34890 L66208 35050" /> 
<path d="M66890 34595 L66594 34890" /> 
<path d="M67050 34210 L66890 34595" /> 
<path d="M67050 48792 L67050 34210" /> 
<path d="M66890 48406 L67050 48792" /> 
<path d="M66855 48370 L66890 48406" /> 
<path d="M66855 45148 L66855 48370" /> 
<path d="M66855 44939 L66855 45148" /> 
<path d="M66775 44746 L66855 44939" /> 
<path d="M66678 44648 L66775 44746" /> 
<path d="M66775 44553 L66678 44648" /> 
<path d="M66855 44360 L66775 44553" /> 
<path d="M66855 44151 L66855 44360" /> 
<path d="M66775 43958 L66855 44151" /> 
<path d="M66679 43861 L66775 43958" /> 
<path d="M66775 43766 L66679 43861" /> 
<path d="M66855 43573 L66775 43766" /> 
<path d="M66855 43364 L66855 43573" /> 
<path d="M66775 43171 L66855 43364" /> 
<path d="M66678 43073 L66775 43171" /> 
<path d="M66775 42978 L66678 43073" /> 
<path d="M66855 42785 L66775 42978" /> 
<path d="M66855 42576 L66855 42785" /> 
<path d="M66775 42383 L66855 42576" /> 
<path d="M66679 42286 L66775 42383" /> 
<path d="M66775 42191 L66679 42286" /> 
<path d="M66855 41998 L66775 42191" /> 
<path d="M66855 41789 L66855 41998" /> 
<path d="M66775 41596 L66855 41789" /> 
<path d="M66679 41499 L66775 41596" /> 
<path d="M66775 41404 L66679 41499" /> 
<path d="M66855 41211 L66775 41404" /> 
<path d="M66855 41002 L66855 41211" /> 
<path d="M66775 40809 L66855 41002" /> 
<path d="M66678 40711 L66775 40809" /> 
<path d="M66775 40616 L66678 40711" /> 
<path d="M66855 40423 L66775 40616" /> 
<path d="M66855 40214 L66855 40423" /> 
<path d="M66775 40021 L66855 40214" /> 
<path d="M66679 39924 L66775 40021" /> 
<path d="M66775 39829 L66679 39924" /> 
<path d="M66855 39636 L66775 39829" /> 
<path d="M66855 39427 L66855 39636" /> 
<path d="M66775 39234 L66855 39427" /> 
<path d="M66678 39136 L66775 39234" /> 
<path d="M66775 39041 L66678 39136" /> 
<path d="M66855 38848 L66775 39041" /> 
<path d="M66855 38639 L66855 38848" /> 
<path d="M66775 38446 L66855 38639" /> 
<path d="M66679 38349 L66775 38446" /> 
<path d="M66775 38254 L66679 38349" /> 
<path d="M66855 38061 L66775 38254" /> 
<path d="M66855 37852 L66855 38061" /> 
<path d="M66775 37659 L66855 37852" /> 
<path d="M66628 37511 L66775 37659" /> 
<path d="M66435 37431 L66628 37511" /> 
<path d="M66226 37431 L66435 37431" /> 
<path d="M66033 37511 L66226 37431" /> 
<path d="M65885 37658 L66033 37511" /> 
<path d="M65805 37851 L65885 37658" /> 
<path d="M65805 38060 L65805 37851" /> 
<path d="M65885 38253 L65805 38060" /> 
<path d="M65980 38349 L65885 38253" /> 
<path d="M65885 38445 L65980 38349" /> 
<path d="M65805 38638 L65885 38445" /> 
<path d="M65805 38847 L65805 38638" /> 
<path d="M65885 39040 L65805 38847" /> 
<path d="M65981 39137 L65885 39040" /> 
<path d="M65885 39233 L65981 39137" /> 
<path d="M65805 39426 L65885 39233" /> 
<path d="M65805 39635 L65805 39426" /> 
<path d="M65885 39828 L65805 39635" /> 
<path d="M65980 39924 L65885 39828" /> 
<path d="M65885 40020 L65980 39924" /> 
<path d="M65805 40213 L65885 40020" /> 
<path d="M65805 40422 L65805 40213" /> 
<path d="M65885 40615 L65805 40422" /> 
<path d="M65981 40712 L65885 40615" /> 
<path d="M65885 40808 L65981 40712" /> 
<path d="M65805 41001 L65885 40808" /> 
<path d="M65805 41210 L65805 41001" /> 
<path d="M65885 41403 L65805 41210" /> 
<path d="M65980 41499 L65885 41403" /> 
<path d="M65885 41595 L65980 41499" /> 
<path d="M65805 41788 L65885 41595" /> 
<path d="M65805 41997 L65805 41788" /> 
<path d="M65885 42190 L65805 41997" /> 
<path d="M65980 42286 L65885 42190" /> 
<path d="M65885 42382 L65980 42286" /> 
<path d="M65805 42575 L65885 42382" /> 
<path d="M65805 42784 L65805 42575" /> 
<path d="M65885 42977 L65805 42784" /> 
<path d="M65981 43074 L65885 42977" /> 
<path d="M65885 43170 L65981 43074" /> 
<path d="M65805 43363 L65885 43170" /> 
<path d="M65805 43572 L65805 43363" /> 
<path d="M65885 43765 L65805 43572" /> 
<path d="M65980 43861 L65885 43765" /> 
<path d="M65885 43957 L65980 43861" /> 
<path d="M65805 44150 L65885 43957" /> 
<path d="M65805 44359 L65805 44150" /> 
<path d="M65885 44552 L65805 44359" /> 
<path d="M65981 44649 L65885 44552" /> 
<path d="M65885 44745 L65981 44649" /> 
<path d="M65805 44938 L65885 44745" /> 
<path d="M65805 45147 L65805 44938" /> 
<path d="M65885 45340 L65805 45147" /> 
<path d="M66032 45488 L65885 45340" /> 
<path d="M66225 45568 L66032 45488" /> 
<path d="M66434 45568 L66225 45568" /> 
<path d="M66627 45488 L66434 45568" /> 
<path d="M66775 45341 L66627 45488" /> 
<path d="M66855 45148 L66775 45341" /> 
<path d="M66855 48370 L66855 45148" /> 
<path d="M66595 48110 L66855 48370" /> 
<path d="M66210 47950 L66595 48110" /> 
<path d="M65792 47950 L66210 47950" /> 
<path d="M65406 48110 L65792 47950" /> 
<path d="M65110 48405 L65406 48110" /> 
<path d="M64950 48790 L65110 48405" /> 
<path d="M64950 49208 L64950 48790" /> 
<path d="M65110 49594 L64950 49208" /> 
<path d="M65405 49890 L65110 49594" /> 
<path d="M65790 50050 L65405 49890" /> 
<path d="M66208 50050 L65790 50050" /> 
<path d="M66594 49890 L66208 50050" /> 
<path d="M66890 49595 L66594 49890" /> 
<path d="M67050 49210 L66890 49595" /> 
<path d="M67050 50450 L67050 49210" /> 
<path d="M58194 50450 L67050 50450" /> 
<path d="M58194 44360 L58194 50450" /> 
<path d="M58194 44151 L58194 44360" /> 
<path d="M58114 43958 L58194 44151" /> 
<path d="M58018 43861 L58114 43958" /> 
<path d="M58114 43766 L58018 43861" /> 
<path d="M58194 43573 L58114 43766" /> 
<path d="M58194 43364 L58194 43573" /> 
<path d="M58114 43171 L58194 43364" /> 
<path d="M58017 43073 L58114 43171" /> 
<path d="M58114 42978 L58017 43073" /> 
<path d="M58194 42785 L58114 42978" /> 
<path d="M58194 42576 L58194 42785" /> 
<path d="M58114 42383 L58194 42576" /> 
<path d="M58018 42286 L58114 42383" /> 
<path d="M58114 42191 L58018 42286" /> 
<path d="M58194 41998 L58114 42191" /> 
<path d="M58194 41789 L58194 41998" /> 
<path d="M58114 41596 L58194 41789" /> 
<path d="M58018 41499 L58114 41596" /> 
<path d="M58114 41404 L58018 41499" /> 
<path d="M58194 41211 L58114 41404" /> 
<path d="M58194 41002 L58194 41211" /> 
<path d="M58114 40809 L58194 41002" /> 
<path d="M58017 40711 L58114 40809" /> 
<path d="M58114 40616 L58017 40711" /> 
<path d="M58194 40423 L58114 40616" /> 
<path d="M58194 40214 L58194 40423" /> 
<path d="M58114 40021 L58194 40214" /> 
<path d="M58018 39924 L58114 40021" /> 
<path d="M58114 39829 L58018 39924" /> 
<path d="M58194 39636 L58114 39829" /> 
<path d="M58194 39427 L58194 39636" /> 
<path d="M58114 39234 L58194 39427" /> 
<path d="M58017 39136 L58114 39234" /> 
<path d="M58114 39041 L58017 39136" /> 
<path d="M58194 38848 L58114 39041" /> 
<path d="M58194 38639 L58194 38848" /> 
<path d="M58114 38446 L58194 38639" /> 
<path d="M58018 38349 L58114 38446" /> 
<path d="M58114 38254 L58018 38349" /> 
<path d="M58194 38061 L58114 38254" /> 
<path d="M58194 37852 L58194 38061" /> 
<path d="M58114 37659 L58194 37852" /> 
<path d="M57967 37511 L58114 37659" /> 
<path d="M57774 37431 L57967 37511" /> 
<path d="M57565 37431 L57774 37431" /> 
<path d="M57372 37511 L57565 37431" /> 
<path d="M57274 37608 L57372 37511" /> 
<path d="M54044 37608 L57274 37608" /> 
<path d="M53911 37634 L54044 37608" /> 
<path d="M53798 37710 L53911 37634" /> 
<path d="M53356 38152 L53798 37710" /> 
<path d="M50233 38152 L53356 38152" /> 
<path d="M50233 38058 L50233 38152" /> 
<path d="M50195 37966 L50233 38058" /> 
<path d="M50125 37896 L50195 37966" /> 
<path d="M50034 37858 L50125 37896" /> 
<path d="M49935 37858 L50034 37858" /> 
<path d="M49550 37858 L49935 37858" /> 
<path d="M49550 34210 L49550 37858" /> 
<path d="M49550 33792 L49550 34210" /> 
<path d="M49390 33406 L49550 33792" /> 
<path d="M49095 33110 L49390 33406" /> 
<path d="M48710 32950 L49095 33110" /> 
<path d="M48292 32950 L48710 32950" /> 
<path d="M47906 33110 L48292 32950" /> 
<path d="M47610 33405 L47906 33110" /> 
<path d="M47450 33790 L47610 33405" /> 
<path d="M47450 34208 L47450 33790" /> 
<path d="M47610 34594 L47450 34208" /> 
<path d="M47905 34890 L47610 34594" /> 
<path d="M48290 35050 L47905 34890" /> 
<path d="M48708 35050 L48290 35050" /> 
<path d="M49094 34890 L48708 35050" /> 
<path d="M49390 34595 L49094 34890" /> 
<path d="M49550 34210 L49390 34595" /> 
<path d="M49550 37858 L49550 34210" /> 
<path d="M47967 37858 L49550 37858" /> 
<path d="M47875 37896 L47967 37858" /> 
<path d="M47805 37966 L47875 37896" /> 
<path d="M47767 38057 L47805 37966" /> 
<path d="M47767 38156 L47767 38057" /> 
<path d="M47767 38942 L47767 38156" /> 
<path d="M47805 39034 L47767 38942" /> 
<path d="M47875 39104 L47805 39034" /> 
<path d="M47966 39142 L47875 39104" /> 
<path d="M48065 39142 L47966 39142" /> 
<path d="M50033 39142 L48065 39142" /> 
<path d="M50125 39104 L50033 39142" /> 
<path d="M50195 39034 L50125 39104" /> 
<path d="M50233 38943 L50195 39034" /> 
<path d="M50233 38848 L50233 38943" /> 
<path d="M53500 38848 L50233 38848" /> 
<path d="M53633 38822 L53500 38848" /> 
<path d="M53634 38822 L53633 38822" /> 
<path d="M53746 38746 L53634 38822" /> 
<path d="M54188 38304 L53746 38746" /> 
<path d="M57274 38304 L54188 38304" /> 
<path d="M57319 38349 L57274 38304" /> 
<path d="M57274 38395 L57319 38349" /> 
<path d="M54257 38395 L57274 38395" /> 
<path d="M54124 38421 L54257 38395" /> 
<path d="M54011 38497 L54124 38421" /> 
<path d="M53356 39152 L54011 38497" /> 
<path d="M51000 39152 L53356 39152" /> 
<path d="M50866 39178 L51000 39152" /> 
<path d="M50754 39254 L50866 39178" /> 
<path d="M50356 39652 L50754 39254" /> 
<path d="M50233 39652 L50356 39652" /> 
<path d="M50233 39558 L50233 39652" /> 
<path d="M50195 39466 L50233 39558" /> 
<path d="M50125 39396 L50195 39466" /> 
<path d="M50034 39358 L50125 39396" /> 
<path d="M49935 39358 L50034 39358" /> 
<path d="M47967 39358 L49935 39358" /> 
<path d="M47875 39396 L47967 39358" /> 
<path d="M47805 39466 L47875 39396" /> 
<path d="M47767 39557 L47805 39466" /> 
<path d="M47767 39656 L47767 39557" /> 
<path d="M47767 40442 L47767 39656" /> 
<path d="M47805 40534 L47767 40442" /> 
<path d="M47875 40604 L47805 40534" /> 
<path d="M47966 40642 L47875 40604" /> 
<path d="M48065 40642 L47966 40642" /> 
<path d="M50033 40642 L48065 40642" /> 
<path d="M50125 40604 L50033 40642" /> 
<path d="M50195 40534 L50125 40604" /> 
<path d="M50233 40443 L50195 40534" /> 
<path d="M50233 40348 L50233 40443" /> 
<path d="M50500 40348 L50233 40348" /> 
<path d="M50633 40322 L50500 40348" /> 
<path d="M50634 40322 L50633 40322" /> 
<path d="M50746 40246 L50634 40322" /> 
<path d="M51144 39848 L50746 40246" /> 
<path d="M53500 39848 L51144 39848" /> 
<path d="M53633 39822 L53500 39848" /> 
<path d="M53634 39822 L53633 39822" /> 
<path d="M53746 39746 L53634 39822" /> 
<path d="M54401 39091 L53746 39746" /> 
<path d="M57274 39091 L54401 39091" /> 
<path d="M57320 39137 L57274 39091" /> 
<path d="M57274 39183 L57320 39137" /> 
<path d="M56469 39183 L57274 39183" /> 
<path d="M56335 39209 L56469 39183" /> 
<path d="M56223 39285 L56335 39209" /> 
<path d="M55754 39754 L56223 39285" /> 
<path d="M55678 39866 L55754 39754" /> 
<path d="M55652 40000 L55678 39866" /> 
<path d="M55652 40072 L55652 40000" /> 
<path d="M55535 40189 L55652 40072" /> 
<path d="M55451 40391 L55535 40189" /> 
<path d="M55451 40609 L55451 40391" /> 
<path d="M55535 40811 L55451 40609" /> 
<path d="M55652 40928 L55535 40811" /> 
<path d="M55652 41572 L55652 40928" /> 
<path d="M55535 41689 L55652 41572" /> 
<path d="M55451 41891 L55535 41689" /> 
<path d="M55451 42109 L55451 41891" /> 
<path d="M55535 42311 L55451 42109" /> 
<path d="M55689 42465 L55535 42311" /> 
<path d="M55891 42549 L55689 42465" /> 
<path d="M56109 42549 L55891 42549" /> 
<path d="M56311 42465 L56109 42549" /> 
<path d="M56465 42311 L56311 42465" /> 
<path d="M56549 42109 L56465 42311" /> 
<path d="M56549 41891 L56549 42109" /> 
<path d="M56465 41689 L56549 41891" /> 
<path d="M56348 41572 L56465 41689" /> 
<path d="M56348 40928 L56348 41572" /> 
<path d="M56465 40811 L56348 40928" /> 
<path d="M56549 40609 L56465 40811" /> 
<path d="M56549 40391 L56549 40609" /> 
<path d="M56465 40189 L56549 40391" /> 
<path d="M56384 40108 L56465 40189" /> 
<path d="M56613 39879 L56384 40108" /> 
<path d="M57274 39879 L56613 39879" /> 
<path d="M57319 39924 L57274 39879" /> 
<path d="M57224 40020 L57319 39924" /> 
<path d="M57144 40213 L57224 40020" /> 
<path d="M57144 40422 L57144 40213" /> 
<path d="M57224 40615 L57144 40422" /> 
<path d="M57320 40712 L57224 40615" /> 
<path d="M57224 40808 L57320 40712" /> 
<path d="M57144 41001 L57224 40808" /> 
<path d="M57144 41210 L57144 41001" /> 
<path d="M57224 41403 L57144 41210" /> 
<path d="M57319 41499 L57224 41403" /> 
<path d="M57224 41595 L57319 41499" /> 
<path d="M57144 41788 L57224 41595" /> 
<path d="M57144 41997 L57144 41788" /> 
<path d="M57224 42190 L57144 41997" /> 
<path d="M57319 42286 L57224 42190" /> 
<path d="M57224 42382 L57319 42286" /> 
<path d="M57144 42575 L57224 42382" /> 
<path d="M57144 42784 L57144 42575" /> 
<path d="M57224 42977 L57144 42784" /> 
<path d="M57320 43074 L57224 42977" /> 
<path d="M57224 43170 L57320 43074" /> 
<path d="M57144 43363 L57224 43170" /> 
<path d="M57144 43572 L57144 43363" /> 
<path d="M57224 43765 L57144 43572" /> 
<path d="M57319 43861 L57224 43765" /> 
<path d="M57224 43957 L57319 43861" /> 
<path d="M57144 44150 L57224 43957" /> 
<path d="M57144 44359 L57144 44150" /> 
<path d="M57224 44552 L57144 44359" /> 
<path d="M57371 44700 L57224 44552" /> 
<path d="M57415 44718 L57371 44700" /> 
<path d="M57669 44972 L57415 44718" /> 
<path d="M57923 44717 L57669 44972" /> 
<path d="M57966 44700 L57923 44717" /> 
<path d="M58114 44553 L57966 44700" /> 
<path d="M58194 44360 L58114 44553" /> 
<path d="M58194 50450 L58194 44360" /> 
<path d="M58188 50450 L58194 50450" /> 
<path d="M58188 45117 L58188 50450" /> 
<path d="M58177 44913 L58188 45117" /> 
<path d="M58121 44776 L58177 44913" /> 
<path d="M58030 44753 L58121 44776" /> 
<path d="M57740 45043 L58030 44753" /> 
<path d="M58030 45333 L57740 45043" /> 
<path d="M58121 45310 L58030 45333" /> 
<path d="M58188 45117 L58121 45310" /> 
<path d="M58188 50450 L58188 45117" /> 
<path d="M57959 50450 L58188 50450" /> 
<path d="M57959 45404 L57959 50450" /> 
<path d="M57669 45114 L57959 45404" /> 
<path d="M57598 45185 L57669 45114" /> 
<path d="M57598 45043 L57598 45185" /> 
<path d="M57308 44753 L57598 45043" /> 
<path d="M57217 44776 L57308 44753" /> 
<path d="M57150 44969 L57217 44776" /> 
<path d="M57161 45173 L57150 44969" /> 
<path d="M57217 45310 L57161 45173" /> 
<path d="M57308 45333 L57217 45310" /> 
<path d="M57598 45043 L57308 45333" /> 
<path d="M57598 45185 L57598 45043" /> 
<path d="M57379 45404 L57598 45185" /> 
<path d="M57402 45495 L57379 45404" /> 
<path d="M57595 45562 L57402 45495" /> 
<path d="M57799 45551 L57595 45562" /> 
<path d="M57936 45495 L57799 45551" /> 
<path d="M57959 45404 L57936 45495" /> 
<path d="M57959 50450 L57959 45404" /> 
<path d="M52549 50450 L57959 50450" /> 
<path d="M52549 40609 L52549 50450" /> 
<path d="M52549 40391 L52549 40609" /> 
<path d="M52465 40189 L52549 40391" /> 
<path d="M52311 40035 L52465 40189" /> 
<path d="M52109 39951 L52311 40035" /> 
<path d="M51891 39951 L52109 39951" /> 
<path d="M51689 40035 L51891 39951" /> 
<path d="M51572 40152 L51689 40035" /> 
<path d="M51500 40152 L51572 40152" /> 
<path d="M51366 40178 L51500 40152" /> 
<path d="M51254 40254 L51366 40178" /> 
<path d="M50356 41152 L51254 40254" /> 
<path d="M50233 41152 L50356 41152" /> 
<path d="M50233 41058 L50233 41152" /> 
<path d="M50195 40966 L50233 41058" /> 
<path d="M50125 40896 L50195 40966" /> 
<path d="M50034 40858 L50125 40896" /> 
<path d="M49935 40858 L50034 40858" /> 
<path d="M47967 40858 L49935 40858" /> 
<path d="M47875 40896 L47967 40858" /> 
<path d="M47805 40966 L47875 40896" /> 
<path d="M47767 41057 L47805 40966" /> 
<path d="M47767 41156 L47767 41057" /> 
<path d="M47767 41942 L47767 41156" /> 
<path d="M47805 42034 L47767 41942" /> 
<path d="M47875 42104 L47805 42034" /> 
<path d="M47966 42142 L47875 42104" /> 
<path d="M48065 42142 L47966 42142" /> 
<path d="M50033 42142 L48065 42142" /> 
<path d="M50125 42104 L50033 42142" /> 
<path d="M50195 42034 L50125 42104" /> 
<path d="M50233 41943 L50195 42034" /> 
<path d="M50233 41848 L50233 41943" /> 
<path d="M50500 41848 L50233 41848" /> 
<path d="M50633 41822 L50500 41848" /> 
<path d="M50634 41822 L50633 41822" /> 
<path d="M50746 41746 L50634 41822" /> 
<path d="M51608 40884 L50746 41746" /> 
<path d="M51689 40965 L51608 40884" /> 
<path d="M51891 41049 L51689 40965" /> 
<path d="M52109 41049 L51891 41049" /> 
<path d="M52311 40965 L52109 41049" /> 
<path d="M52465 40811 L52311 40965" /> 
<path d="M52549 40609 L52465 40811" /> 
<path d="M52549 50450 L52549 40609" /> 
<path d="M52543 50450 L52549 50450" /> 
<path d="M52543 42079 L52543 50450" /> 
<path d="M52532 41866 L52543 42079" /> 
<path d="M52472 41719 L52532 41866" /> 
<path d="M52378 41692 L52472 41719" /> 
<path d="M52308 41762 L52378 41692" /> 
<path d="M52308 41622 L52308 41762" /> 
<path d="M52281 41528 L52308 41622" /> 
<path d="M52079 41457 L52281 41528" /> 
<path d="M51866 41468 L52079 41457" /> 
<path d="M51719 41528 L51866 41468" /> 
<path d="M51692 41622 L51719 41528" /> 
<path d="M52000 41929 L51692 41622" /> 
<path d="M52308 41622 L52000 41929" /> 
<path d="M52308 41762 L52308 41622" /> 
<path d="M52071 42000 L52308 41762" /> 
<path d="M52378 42308 L52071 42000" /> 
<path d="M52472 42281 L52378 42308" /> 
<path d="M52543 42079 L52472 42281" /> 
<path d="M52543 50450 L52543 42079" /> 
<path d="M52308 50450 L52543 50450" /> 
<path d="M52308 42378 L52308 50450" /> 
<path d="M52000 42071 L52308 42378" /> 
<path d="M51929 42141 L52000 42071" /> 
<path d="M51929 42000 L51929 42141" /> 
<path d="M51622 41692 L51929 42000" /> 
<path d="M51528 41719 L51622 41692" /> 
<path d="M51457 41921 L51528 41719" /> 
<path d="M51468 42134 L51457 41921" /> 
<path d="M51528 42281 L51468 42134" /> 
<path d="M51622 42308 L51528 42281" /> 
<path d="M51929 42000 L51622 42308" /> 
<path d="M51929 42141 L51929 42000" /> 
<path d="M51692 42378 L51929 42141" /> 
<path d="M51719 42472 L51692 42378" /> 
<path d="M51921 42543 L51719 42472" /> 
<path d="M52134 42532 L51921 42543" /> 
<path d="M52281 42472 L52134 42532" /> 
<path d="M52308 42378 L52281 42472" /> 
<path d="M52308 50450 L52308 42378" /> 
<path d="M50234 50450 L52308 50450" /> 
<path d="M50234 43112 L50234 50450" /> 
<path d="M50234 42888 L50234 43112" /> 
<path d="M50233 42656 L50234 42888" /> 
<path d="M50233 42557 L50233 42656" /> 
<path d="M50195 42466 L50233 42557" /> 
<path d="M50125 42396 L50195 42466" /> 
<path d="M50033 42358 L50125 42396" /> 
<path d="M49112 42357 L50033 42358" /> 
<path d="M49050 42419 L49112 42357" /> 
<path d="M49050 42950 L49050 42419" /> 
<path d="M50172 42950 L49050 42950" /> 
<path d="M50234 42888 L50172 42950" /> 
<path d="M50234 43112 L50234 42888" /> 
<path d="M50172 43050 L50234 43112" /> 
<path d="M49050 43050 L50172 43050" /> 
<path d="M49050 43581 L49050 43050" /> 
<path d="M49112 43643 L49050 43581" /> 
<path d="M50033 43642 L49112 43643" /> 
<path d="M50125 43604 L50033 43642" /> 
<path d="M50195 43534 L50125 43604" /> 
<path d="M50233 43443 L50195 43534" /> 
<path d="M50233 43344 L50233 43443" /> 
<path d="M50234 43112 L50233 43344" /> 
<path d="M50234 50450 L50234 43112" /> 
<path d="M49550 50450 L50234 50450" /> 
<path d="M49550 49210 L49550 50450" /> 
<path d="M49550 48792 L49550 49210" /> 
<path d="M49390 48406 L49550 48792" /> 
<path d="M49095 48110 L49390 48406" /> 
<path d="M48950 48049 L49095 48110" /> 
<path d="M48950 43581 L48950 48049" /> 
<path d="M48950 43050 L48950 43581" /> 
<path d="M48950 42950 L48950 43050" /> 
<path d="M48950 42419 L48950 42950" /> 
<path d="M48888 42357 L48950 42419" /> 
<path d="M47967 42358 L48888 42357" /> 
<path d="M47875 42396 L47967 42358" /> 
<path d="M47805 42466 L47875 42396" /> 
<path d="M47767 42557 L47805 42466" /> 
<path d="M47767 42656 L47767 42557" /> 
<path d="M47766 42888 L47767 42656" /> 
<path d="M47828 42950 L47766 42888" /> 
<path d="M48950 42950 L47828 42950" /> 
<path d="M48950 43050 L48950 42950" /> 
<path d="M47828 43050 L48950 43050" /> 
<path d="M47766 43112 L47828 43050" /> 
<path d="M47767 43344 L47766 43112" /> 
<path d="M47767 43443 L47767 43344" /> 
<path d="M47805 43534 L47767 43443" /> 
<path d="M47875 43604 L47805 43534" /> 
<path d="M47967 43642 L47875 43604" /> 
<path d="M48888 43643 L47967 43642" /> 
<path d="M48950 43581 L48888 43643" /> 
<path d="M48950 48049 L48950 43581" /> 
<path d="M48710 47950 L48950 48049" /> 
<path d="M48292 47950 L48710 47950" /> 
<path d="M47906 48110 L48292 47950" /> 
<path d="M47610 48405 L47906 48110" /> 
<path d="M47450 48790 L47610 48405" /> 
<path d="M47450 49208 L47450 48790" /> 
<path d="M47610 49594 L47450 49208" /> 
<path d="M47905 49890 L47610 49594" /> 
<path d="M48290 50050 L47905 49890" /> 
<path d="M48708 50050 L48290 50050" /> 
<path d="M49094 49890 L48708 50050" /> 
<path d="M49390 49595 L49094 49890" /> 
<path d="M49550 49210 L49390 49595" /> 
<path d="M49550 50450 L49550 49210" /> 
<path d="M47050 50450 L49550 50450" /> 
<path d="M47050 32550 L47050 50450" /> 
<path d="M67450 32550 L47050 32550" /> 
<path d="M67450 50450 L67450 32550" /> 
</g>
<g style="fill:#000000; fill-opacity:1.0; 
  stroke:#000000; stroke-linecap:round; stroke-linejoin:round; stroke-opacity:1.0; stroke-opacity:1.0; stroke-width:0" 
   transform="translate(0 0) scale(1 1)">
<polygon style="fill-rule:evenodd; " 
points="67050,34210
67050,33792
66890,33406
66595,33110
66210,32950
65792,32950
65406,33110
65110,33405
64950,33790
64950,34208
65110,34594
65405,34890
65790,35050
66208,35050
66594,34890
66890,34595
67050,34210
67050,48792
66890,48406
66855,48370
66855,45148
66855,44939
66775,44746
66678,44648
66775,44553
66855,44360
66855,44151
66775,43958
66679,43861
66775,43766
66855,43573
66855,43364
66775,43171
66678,43073
66775,42978
66855,42785
66855,42576
66775,42383
66679,42286
66775,42191
66855,41998
66855,41789
66775,41596
66679,41499
66775,41404
66855,41211
66855,41002
66775,40809
66678,40711
66775,40616
66855,40423
66855,40214
66775,40021
66679,39924
66775,39829
66855,39636
66855,39427
66775,39234
66678,39136
66775,39041
66855,38848
66855,38639
66775,38446
66679,38349
66775,38254
66855,38061
66855,37852
66775,37659
66628,37511
66435,37431
66226,37431
66033,37511
65885,37658
65805,37851
65805,38060
65885,38253
65980,38349
65885,38445
65805,38638
65805,38847
65885,39040
65981,39137
65885,39233
65805,39426
65805,39635
65885,39828
65980,39924
65885,40020
65805,40213
65805,40422
65885,40615
65981,40712
65885,40808
65805,41001
65805,41210
65885,41403
65980,41499
65885,41595
65805,41788
65805,41997
65885,42190
65980,42286
65885,42382
65805,42575
65805,42784
65885,42977
65981,43074
65885,43170
65805,43363
65805,43572
65885,43765
65980,43861
65885,43957
65805,44150
65805,44359
65885,44552
65981,44649
65885,44745
65805,44938
65805,45147
65885,45340
66032,45488
66225,45568
66434,45568
66627,45488
66775,45341
66855,45148
66855,48370
66595,48110
66210,47950
65792,47950
65406,48110
65110,48405
64950,48790
64950,49208
65110,49594
65405,49890
65790,50050
66208,50050
66594,49890
66890,49595
67050,49210
67050,50450
58194,50450
58194,44360
58194,44151
58114,43958
58018,43861
58114,43766
58194,43573
58194,43364
58114,43171
58017,43073
58114,42978
58194,42785
58194,42576
58114,42383
58018,42286
58114,42191
58194,41998
58194,41789
58114,41596
58018,41499
58114,41404
58194,41211
58194,41002
58114,40809
58017,40711
58114,40616
58194,40423
58194,40214
58114,40021
58018,39924
58114,39829
58194,39636
58194,39427
58114,39234
58017,39136
58114,39041
58194,38848
58194,38639
58114,38446
58018,38349
58114,38254
58194,38061
58194,37852
58114,37659
57967,37511
57774,37431
57565,37431
57372,37511
57274,37608
54044,37608
53911,37634
53798,37710
53356,38152
50233,38152
50233,38058
50195,37966
50125,37896
50034,37858
49935,37858
49550,37858
49550,34210
49550,33792
49390,33406
49095,33110
48710,32950
48292,32950
47906,33110
47610,33405
47450,33790
47450,34208
47610,34594
47905,34890
48290,35050
48708,35050
49094,34890
49390,34595
49550,34210
49550,37858
47967,37858
47875,37896
47805,37966
47767,38057
47767,38156
47767,38942
47805,39034
47875,39104
47966,39142
48065,39142
50033,39142
50125,39104
50195,39034
50233,38943
50233,38848
53500,38848
53633,38822
53634,38822
53746,38746
54188,38304
57274,38304
57319,38349
57274,38395
54257,38395
54124,38421
54011,38497
53356,39152
51000,39152
50866,39178
50754,39254
50356,39652
50233,39652
50233,39558
50195,39466
50125,39396
50034,39358
49935,39358
47967,39358
47875,39396
47805,39466
47767,39557
47767,39656
47767,40442
47805,40534
47875,40604
47966,40642
48065,40642
50033,40642
50125,40604
50195,40534
50233,40443
50233,40348
50500,40348
50633,40322
50634,40322
50746,40246
51144,39848
53500,39848
53633,39822
53634,39822
53746,39746
54401,39091
57274,39091
57320,39137
57274,39183
56469,39183
56335,39209
56223,39285
55754,39754
55678,39866
55652,40000
55652,40072
55535,40189
55451,40391
55451,40609
55535,40811
55652,40928
55652,41572
55535,41689
55451,41891
55451,42109
55535,42311
55689,42465
55891,42549
56109,42549
56311,42465
56465,42311
56549,42109
56549,41891
56465,41689
56348,41572
56348,40928
56465,40811
56549,40609
56549,40391
56465,40189
56384,40108
56613,39879
57274,39879
57319,39924
57224,40020
57144,40213
57144,40422
57224,40615
57320,40712
57224,40808
57144,41001
57144,41210
57224,41403
57319,41499
57224,41595
57144,41788
57144,41997
57224,42190
57319,42286
57224,42382
57144,42575
57144,42784
57224,42977
57320,43074
57224,43170
57144,43363
57144,43572
57224,43765
57319,43861
57224,43957
57144,44150
57144,44359
57224,44552
57371,44700
57415,44718
57669,44972
57923,44717
57966,44700
58114,44553
58194,44360
58194,50450
58188,50450
58188,45117
58177,44913
58121,44776
58030,44753
57740,45043
58030,45333
58121,45310
58188,45117
58188,50450
57959,50450
57959,45404
57669,45114
57598,45185
57598,45043
57308,44753
57217,44776
57150,44969
57161,45173
57217,45310
57308,45333
57598,45043
57598,45185
57379,45404
57402,45495
57595,45562
57799,45551
57936,45495
57959,45404
57959,50450
52549,50450
52549,40609
52549,40391
52465,40189
52311,40035
52109,39951
51891,39951
51689,40035
51572,40152
51500,40152
51366,40178
51254,40254
50356,41152
50233,41152
50233,41058
50195,40966
50125,40896
50034,40858
49935,40858
47967,40858
47875,40896
47805,40966
47767,41057
47767,41156
47767,41942
47805,42034
47875,42104
47966,42142
48065,42142
50033,42142
50125,42104
50195,42034
50233,41943
50233,41848
50500,41848
50633,41822
50634,41822
50746,41746
51608,40884
51689,40965
51891,41049
52109,41049
52311,40965
52465,40811
52549,40609
52549,50450
52543,50450
52543,42079
52532,41866
52472,41719
52378,41692
52308,41762
52308,41622
52281,41528
52079,41457
51866,41468
51719,41528
51692,41622
52000,41929
52308,41622
52308,41762
52071,42000
52378,42308
52472,42281
52543,42079
52543,50450
52308,50450
52308,42378
52000,42071
51929,42141
51929,42000
51622,41692
51528,41719
51457,41921
51468,42134
51528,42281
51622,42308
51929,42000
51929,42141
51692,42378
51719,42472
51921,42543
52134,42532
52281,42472
52308,42378
52308,50450
50234,50450
50234,43112
50234,42888
50233,42656
50233,42557
50195,42466
50125,42396
50033,42358
49112,42357
49050,42419
49050,42950
50172,42950
50234,42888
50234,43112
50172,43050
49050,43050
49050,43581
49112,43643
50033,43642
50125,43604
50195,43534
50233,43443
50233,43344
50234,43112
50234,50450
49550,50450
49550,49210
49550,48792
49390,48406
49095,48110
48950,48049
48950,43581
48950,43050
48950,42950
48950,42419
48888,42357
47967,42358
47875,42396
47805,42466
47767,42557
47767,42656
47766,42888
47828,42950
48950,42950
48950,43050
47828,43050
47766,43112
47767,43344
47767,43443
47805,43534
47875,43604
47967,43642
48888,43643
48950,43581
48950,48049
48710,47950
48292,47950
47906,48110
47610,48405
47450,48790
47450,49208
47610,49594
47905,49890
48290,50050
48708,50050
49094,49890
49390,49595
49550,49210
49550,50450
47050,50450
47050,32550
67450,32550
67450,50450
67450,50450
67050,50450
67050,49210
67050,48792
" /> 
<ellipse cx="57669" cy="37956" rx="275" ry="275"  /> 
</g>
<g style="fill:#FFFFFF; fill-opacity:1.0; 
  stroke:#808000; stroke-linecap:round; stroke-linejoin:round; stroke-opacity:1.0; stroke-opacity:1.0; stroke-width:0" 
   transform="translate(0 0) scale(1 1)">
<ellipse cx="57669" cy="37956" rx="177" ry="177"  /> 
</g>
<g style="fill:#000000; fill-opacity:1.0; 
  stroke:#000000; stroke-linecap:round; stroke-linejoin:round; stroke-opacity:1.0; stroke-opacity:1.0; stroke-width:0" 
   transform="translate(0 0) scale(1 1)">
<ellipse cx="57669" cy="38743" rx="275" ry="275"  /> 
</g>
<g style="fill:#FFFFFF; fill-opacity:1.0; 
  stroke:#808000; stroke-linecap:round; stroke-linejoin:round; stroke-opacity:1.0; stroke-opacity:1.0; stroke-width:0" 
   transform="translate(0 0) scale(1 1)">
<ellipse cx="57669" cy="38743" rx="177" ry="177"  /> 
</g>
<g style="fill:#000000; fill-opacity:1.0; 
  stroke:#000000; stroke-linecap:round; stroke-linejoin:round; stroke-opacity:1.0; stroke-opacity:1.0; stroke-width:0" 
   transform="translate(0 0) scale(1 1)">
<ellipse cx="57669" cy="39531" rx="275" ry="275"  /> 
</g>
<g style="fill:#FFFFFF; fill-opacity:1.0; 
  stroke:#808000; stroke-linecap:round; stroke-linejoin:round; stroke-opacity:1.0; stroke-opacity:1.0; stroke-width:0" 
   transform="translate(0 0) scale(1 1)">
<ellipse cx="57669" cy="39531" rx="177" ry="177"  /> 
</g>
<g style="fill:#000000; fill-opacity:1.0; 
  stroke:#000000; stroke-linecap:round; stroke-linejoin:round; stroke-opacity:1.0; stroke-opacity:1.0; stroke-width:0" 
   transform="translate(0 0) scale(1 1)">
<ellipse cx="57669" cy="40318" rx="275" ry="275"  /> 
</g>
<g style="fill:#FFFFFF; fill-opacity:1.0; 
  stroke:#808000; stroke-linecap:round; stroke-linejoin:round; stroke-opacity:1.0; stroke-opacity:1.0; stroke-width:0" 
   transform="translate(0 0) scale(1 1)">
<ellipse cx="57669" cy="40318" rx="177" ry="177"  /> 
</g>
<g style="fill:#000000; fill-opacity:1.0; 
  stroke:#000000; stroke-linecap:round; stroke-linejoin:round; stroke-opacity:1.0; stroke-opacity:1.0; stroke-width:0" 
   transform="translate(0 0) scale(1 1)">
<ellipse cx="57669" cy="41106" rx="275" ry="275"  /> 
</g>
<g style="fill:#FFFFFF; fill-opacity:1.0; 
  stroke:#808000; stroke-linecap:round; stroke-linejoin:round; stroke-opacity:1.0; stroke-opacity:1.0; stroke-width:0" 
   transform="translate(0 0) scale(1 1)">
<ellipse cx="57669" cy="41106" rx="177" ry="177"  /> 
</g>
<g style="fill:#000000; fill-opacity:1.0; 
  stroke:#000000; stroke-linecap:round; stroke-linejoin:round; stroke-opacity:1.0; stroke-opacity:1.0; stroke-width:0" 
   transform="translate(0 0) scale(1 1)">
<ellipse cx="57669" cy="41893" rx="275" ry="275"  /> 
</g>
<g style="fill:#FFFFFF; fill-opacity:1.0; 
  stroke:#808000; stroke-linecap:round; stroke-linejoin:round; stroke-opacity:1.0; stroke-opacity:1.0; stroke-width:0" 
   transform="translate(0 0) scale(1 1)">
<ellipse cx="57669" cy="41893" rx="177" ry="177"  /> 
</g>
<g style="fill:#000000; fill-opacity:1.0; 
  stroke:#000000; stroke-linecap:round; stroke-linejoin:round; stroke-opacity:1.0; stroke-opacity:1.0; stroke-width:0" 
   transform="translate(0 0) scale(1 1)">
<ellipse cx="57669" cy="42680" rx="275" ry="275"  /> 
</g>
<g style="fill:#FFFFFF; fill-opacity:1.0; 
  stroke:#808000; stroke-linecap:round; stroke-linejoin:round; stroke-opacity:1.0; stroke-opacity:1.0; stroke-width:0" 
   transform="translate(0 0) scale(1 1)">
<ellipse cx="57669" cy="42680" rx="177" ry="177"  /> 
</g>
<g style="fill:#000000; fill-opacity:1.0; 
  stroke:#000000; stroke-linecap:round; stroke-linejoin:round; stroke-opacity:1.0; stroke-opacity:1.0; stroke-width:0" 
   transform="translate(0 0) scale(1 1)">
<ellipse cx="57669" cy="43468" rx="275" ry="275"  /> 
</g>
<g style="fill:#FFFFFF; fill-opacity:1.0; 
  stroke:#808000; stroke-linecap:round; stroke-linejoin:round; stroke-opacity:1.0; stroke-opacity:1.0; stroke-width:0" 
   transform="translate(0 0) scale(1 1)">
<ellipse cx="57669" cy="43468" rx="177" ry="177"  /> 
</g>
<g style="fill:#000000; fill-opacity:1.0; 
  stroke:#000000; stroke-linecap:round; stroke-linejoin:round; stroke-opacity:1.0; stroke-opacity:1.0; stroke-width:0" 
   transform="translate(0 0) scale(1 1)">
<ellipse cx="57669" cy="44255" rx="275" ry="275"  /> 
</g>
<g style="fill:#FFFFFF; fill-opacity:1.0; 
  stroke:#808000; stroke-linecap:round; stroke-linejoin:round; stroke-opacity:1.0; stroke-opacity:1.0; stroke-width:0" 
   transform="translate(0 0) scale(1 1)">
<ellipse cx="57669" cy="44255" rx="177" ry="177"  /> 
</g>
<g style="fill:#000000; fill-opacity:1.0; 
  stroke:#000000; stroke-linecap:round; stroke-linejoin:round; stroke-opacity:1.0; stroke-opacity:1.0; stroke-width:0" 
   transform="translate(0 0) scale(1 1)">
<ellipse cx="57669" cy="45043" rx="275" ry="275"  /> 
</g>
<g style="fill:#FFFFFF; fill-opacity:1.0; 
  stroke:#808000; stroke-linecap:round; stroke-linejoin:round; stroke-opacity:1.0; stroke-opacity:1.0; stroke-width:0" 
   transform="translate(0 0) scale(1 1)">
<ellipse cx="57669" cy="45043" rx="177" ry="177"  /> 
</g>
<g style="fill:#000000; fill-opacity:1.0; 
  stroke:#000000; stroke-linecap:round; stroke-linejoin:round; stroke-opacity:1.0; stroke-opacity:1.0; stroke-width:0" 
   transform="translate(0 0) scale(1 1)">
<ellipse cx="66330" cy="45043" rx="275" ry="275"  /> 
</g>
<g style="fill:#FFFFFF; fill-opacity:1.0; 
  stroke:#808000; stroke-linecap:round; stroke-linejoin:round; stroke-opacity:1.0; stroke-opacity:1.0; stroke-width:0" 
   transform="translate(0 0) scale(1 1)">
<ellipse cx="66330" cy="45043" rx="177" ry="177"  /> 
</g>
<g style="fill:#000000; fill-opacity:1.0; 
  stroke:#000000; stroke-linecap:round; stroke-linejoin:round; stroke-opacity:1.0; stroke-opacity:1.0; stroke-width:0" 
   transform="translate(0 0) scale(1 1)">
<ellipse cx="66330" cy="44255" rx="275" ry="275"  /> 
</g>
<g style="fill:#FFFFFF; fill-opacity:1.0; 
  stroke:#808000; stroke-linecap:round; stroke-linejoin:round; stroke-opacity:1.0; stroke-opacity:1.0; stroke-width:0" 
   transform="translate(0 0) scale(1 1)">
<ellipse cx="66330" cy="44255" rx="177" ry="177"  /> 
</g>
<g style="fill:#000000; fill-opacity:1.0; 
  stroke:#000000; stroke-linecap:round; stroke-linejoin:round; stroke-opacity:1.0; stroke-opacity:1.0; stroke-width:0" 
   transform="translate(0 0) scale(1 1)">
<ellipse cx="66330" cy="43468" rx="275" ry="275"  /> 
</g>
<g style="fill:#FFFFFF; fill-opacity:1.0; 
  stroke:#808000; stroke-linecap:round; stroke-linejoin:round; stroke-opacity:1.0; stroke-opacity:1.0; stroke-width:0" 
   transform="translate(0 0) scale(1 1)">
<ellipse cx="66330" cy="43468" rx="177" ry="177"  /> 
</g>
<g style="fill:#000000; fill-opacity:1.0; 
  stroke:#000000; stroke-linecap:round; stroke-linejoin:round; stroke-opacity:1.0; stroke-opacity:1.0; stroke-width:0" 
   transform="translate(0 0) scale(1 1)">
<ellipse cx="66330" cy="42680" rx="275" ry="275"  /> 
</g>
<g style="fill:#FFFFFF; fill-opacity:1.0; 
  stroke:#808000; stroke-linecap:round; stroke-linejoin:round; stroke-opacity:1.0; stroke-opacity:1.0; stroke-width:0" 
   transform="translate(0 0) scale(1 1)">
<ellipse cx="66330" cy="42680" rx="177" ry="177"  /> 
</g>
<g style="fill:#000000; fill-opacity:1.0; 
  stroke:#000000; stroke-linecap:round; stroke-linejoin:round; stroke-opacity:1.0; stroke-opacity:1.0; stroke-width:0" 
   transform="translate(0 0) scale(1 1)">
<ellipse cx="66330" cy="41893" rx="275" ry="275"  /> 
</g>
<g style="fill:#FFFFFF; fill-opacity:1.0; 
  stroke:#808000; stroke-linecap:round; stroke-linejoin:round; stroke-opacity:1.0; stroke-opacity:1.0; stroke-width:0" 
   transform="translate(0 0) scale(1 1)">
<ellipse cx="66330" cy="41893" rx="177" ry="177"  /> 
</g>
<g style="fill:#000000; fill-opacity:1.0; 
  stroke:#000000; stroke-linecap:round; stroke-linejoin:round; stroke-opacity:1.0; stroke-opacity:1.0; stroke-width:0" 
   transform="translate(0 0) scale(1 1)">
<ellipse cx="66330" cy="41106" rx="275" ry="275"  /> 
</g>
<g style="fill:#FFFFFF; fill-opacity:1.0; 
  stroke:#808000; stroke-linecap:round; stroke-linejoin:round; stroke-opacity:1.0; stroke-opacity:1.0; stroke-width:0" 
   transform="translate(0 0) scale(1 1)">
<ellipse cx="66330" cy="41106" rx="177" ry="177"  /> 
</g>
<g style="fill:#000000; fill-opacity:1.0; 
  stroke:#000000; stroke-linecap:round; stroke-linejoin:round; stroke-opacity:1.0; stroke-opacity:1.0; stroke-width:0" 
   transform="translate(0 0) scale(1 1)">
<ellipse cx="66330" cy="40318" rx="275" ry="275"  /> 
</g>
<g style="fill:#FFFFFF; fill-opacity:1.0; 
  stroke:#808000; stroke-linecap:round; stroke-linejoin:round; stroke-opacity:1.0; stroke-opacity:1.0; stroke-width:0" 
   transform="translate(0 0) scale(1 1)">
<ellipse cx="66330" cy="40318" rx="177" ry="177"  /> 
</g>
<g style="fill:#000000; fill-opacity:1.0; 
  stroke:#000000; stroke-linecap:round; stroke-linejoin:round; stroke-opacity:1.0; stroke-opacity:1.0; stroke-width:0" 
   transform="translate(0 0) scale(1 1)">
<ellipse cx="66330" cy="39531" rx="275" ry="275"  /> 
</g>
<g style="fill:#FFFFFF; fill-opacity:1.0; 
  stroke:#808000; stroke-linecap:round; stroke-linejoin:round; stroke-opacity:1.0; stroke-opacity:1.0; stroke-width:0" 
   transform="translate(0 0) scale(1 1)">
<ellipse cx="66330" cy="39531" rx="177" ry="177"  /> 
</g>
<g style="fill:#000000; fill-opacity:1.0; 
  stroke:#000000; stroke-linecap:round; stroke-linejoin:round; stroke-opacity:1.0; stroke-opacity:1.0; stroke-width:0" 
   transform="translate(0 0) scale(1 1)">
<ellipse cx="66330" cy="38743" rx="275" ry="275"  /> 
</g>
<g style="fill:#FFFFFF; fill-opacity:1.0; 
  stroke:#808000; stroke-linecap:round; stroke-linejoin:round; stroke-opacity:1.0; stroke-opacity:1.0; stroke-width:0" 
   transform="translate(0 0) scale(1 1)">
<ellipse cx="66330" cy="38743" rx="177" ry="177"  /> 
</g>
<g style="fill:#000000; fill-opacity:1.0; 
  stroke:#000000; stroke-linecap:round; stroke-linejoin:round; stroke-opacity:1.0; stroke-opacity:1.0; stroke-width:0" 
   transform="translate(0 0) scale(1 1)">
<ellipse cx="66330" cy="37956" rx="275" ry="275"  /> 
</g>
<g style="fill:#FFFFFF; fill-opacity:1.0; 
  stroke:#808000; stroke-linecap:round; stroke-linejoin:round; stroke-opacity:1.0; stroke-opacity:1.0; stroke-width:0" 
   transform="translate(0 0) scale(1 1)">
<ellipse cx="66330" cy="37956" rx="177" ry="177"  /> 
</g>
<g style="fill:#FFFFFF; fill-opacity:1.0; 
  stroke:#000000; stroke-linecap:round; stroke-linejoin:round; stroke-opacity:1.0; stroke-opacity:1.0; stroke-width:0" 
   transform="translate(0 0) scale(1 1)">
<path d="M61998 46224 L62002 46224" /> 
<path d="M62000 46222 L62000 46226" /> 
</g>
<g style="fill:#000000; fill-opacity:0.0; 
  stroke:#000000; stroke-linecap:round; stroke-linejoin:round; stroke-opacity:1.0; stroke-opacity:1.0; stroke-width:120" 
   transform="translate(0 0) scale(1 1)">
<path d="M60915 45867 L61315 46467" /> 
<g style = "stroke-linecap:round;" > 
<path d="M61315 46467 L61315 46467" /> 
</g><path d="M61315 45867 L60915 46467" /> 
<g style = "stroke-linecap:round;" > 
<path d="M60915 46467 L60915 46467" /> 
</g><path d="M61743 46153 L61829 46181" /> 
<path d="M61829 46181 L61857 46210" /> 
<path d="M61857 46210 L61886 46267" /> 
<path d="M61886 46267 L61886 46353" /> 
<path d="M61886 46353 L61857 46410" /> 
<path d="M61857 46410 L61829 46438" /> 
<path d="M61829 46438 L61771 46467" /> 
<path d="M61771 46467 L61543 46467" /> 
<path d="M61543 46467 L61543 45867" /> 
<path d="M61543 45867 L61743 45867" /> 
<path d="M61743 45867 L61800 45895" /> 
<path d="M61800 45895 L61829 45924" /> 
<path d="M61829 45924 L61857 45981" /> 
<path d="M61857 45981 L61857 46038" /> 
<path d="M61857 46038 L61829 46095" /> 
<path d="M61829 46095 L61800 46124" /> 
<path d="M61800 46124 L61743 46153" /> 
<path d="M61743 46153 L61543 46153" /> 
<g style = "stroke-linecap:round;" > 
<path d="M61543 46153 L61543 46153" /> 
</g><path d="M62143 46467 L62143 45867" /> 
<path d="M62143 45867 L62371 45867" /> 
<path d="M62371 45867 L62429 45895" /> 
<path d="M62429 45895 L62457 45924" /> 
<path d="M62457 45924 L62486 45981" /> 
<path d="M62486 45981 L62486 46067" /> 
<path d="M62486 46067 L62457 46124" /> 
<path d="M62457 46124 L62429 46153" /> 
<path d="M62429 46153 L62371 46181" /> 
<path d="M62371 46181 L62143 46181" /> 
<g style = "stroke-linecap:round;" > 
<path d="M62143 46181 L62143 46181" /> 
</g><path d="M63057 46467 L62714 46467" /> 
<g style = "stroke-linecap:round;" > 
<path d="M62714 46467 L62714 46467" /> 
</g><path d="M62886 46467 L62886 45867" /> 
<path d="M62886 45867 L62829 45953" /> 
<path d="M62829 45953 L62771 46010" /> 
<path d="M62771 46010 L62714 46038" /> 
<g style = "stroke-linecap:round;" > 
<path d="M62714 46038 L62714 46038" /> 
</g></g>
<g style="fill:#000000; fill-opacity:0.0; 
  stroke:#000000; stroke-linecap:round; stroke-linejoin:round; stroke-opacity:1.0; stroke-opacity:1.0; stroke-width:0" 
   transform="translate(0 0) scale(1 1)">
<path d="M61998 35594 L62002 35594" /> 
<path d="M62000 35592 L62000 35596" /> 
</g>
<g style="fill:#000000; fill-opacity:0.0; 
  stroke:#000000; stroke-linecap:round; stroke-linejoin:round; stroke-opacity:1.0; stroke-opacity:1.0; stroke-width:120" 
   transform="translate(0 0) scale(1 1)">
<path d="M60043 35237 L60443 35837" /> 
<g style = "stroke-linecap:round;" > 
<path d="M60443 35837 L60443 35837" /> 
</g><path d="M60443 35237 L60043 35837" /> 
<g style = "stroke-linecap:round;" > 
<path d="M60043 35837 L60043 35837" /> 
</g><path d="M60871 35523 L60957 35551" /> 
<path d="M60957 35551 L60985 35580" /> 
<path d="M60985 35580 L61014 35637" /> 
<path d="M61014 35637 L61014 35723" /> 
<path d="M61014 35723 L60985 35780" /> 
<path d="M60985 35780 L60957 35808" /> 
<path d="M60957 35808 L60899 35837" /> 
<path d="M60899 35837 L60671 35837" /> 
<path d="M60671 35837 L60671 35237" /> 
<path d="M60671 35237 L60871 35237" /> 
<path d="M60871 35237 L60928 35265" /> 
<path d="M60928 35265 L60957 35294" /> 
<path d="M60957 35294 L60985 35351" /> 
<path d="M60985 35351 L60985 35408" /> 
<path d="M60985 35408 L60957 35465" /> 
<path d="M60957 35465 L60928 35494" /> 
<path d="M60928 35494 L60871 35523" /> 
<path d="M60871 35523 L60671 35523" /> 
<g style = "stroke-linecap:round;" > 
<path d="M60671 35523 L60671 35523" /> 
</g><path d="M61271 35523 L61471 35523" /> 
<g style = "stroke-linecap:round;" > 
<path d="M61471 35523 L61471 35523" /> 
</g><path d="M61557 35837 L61271 35837" /> 
<path d="M61271 35837 L61271 35237" /> 
<path d="M61271 35237 L61557 35237" /> 
<g style = "stroke-linecap:round;" > 
<path d="M61557 35237 L61557 35237" /> 
</g><path d="M61814 35523 L62014 35523" /> 
<g style = "stroke-linecap:round;" > 
<path d="M62014 35523 L62014 35523" /> 
</g><path d="M62100 35837 L61814 35837" /> 
<path d="M61814 35837 L61814 35237" /> 
<path d="M61814 35237 L62100 35237" /> 
<g style = "stroke-linecap:round;" > 
<path d="M62100 35237 L62100 35237" /> 
</g><path d="M62357 35837 L62357 35237" /> 
<path d="M62357 35237 L62585 35237" /> 
<path d="M62585 35237 L62643 35265" /> 
<path d="M62643 35265 L62671 35294" /> 
<path d="M62671 35294 L62700 35351" /> 
<path d="M62700 35351 L62700 35437" /> 
<path d="M62700 35437 L62671 35494" /> 
<path d="M62671 35494 L62643 35523" /> 
<path d="M62643 35523 L62585 35551" /> 
<path d="M62585 35551 L62357 35551" /> 
<g style = "stroke-linecap:round;" > 
<path d="M62357 35551 L62357 35551" /> 
</g><path d="M63300 35837 L63100 35551" /> 
<g style = "stroke-linecap:round;" > 
<path d="M63100 35551 L63100 35551" /> 
</g><path d="M62957 35837 L62957 35237" /> 
<path d="M62957 35237 L63185 35237" /> 
<path d="M63185 35237 L63243 35265" /> 
<path d="M63243 35265 L63271 35294" /> 
<path d="M63271 35294 L63300 35351" /> 
<path d="M63300 35351 L63300 35437" /> 
<path d="M63300 35437 L63271 35494" /> 
<path d="M63271 35494 L63243 35523" /> 
<path d="M63243 35523 L63185 35551" /> 
<path d="M63185 35551 L62957 35551" /> 
<g style = "stroke-linecap:round;" > 
<path d="M62957 35551 L62957 35551" /> 
</g><path d="M63671 35237 L63785 35237" /> 
<path d="M63785 35237 L63843 35265" /> 
<path d="M63843 35265 L63900 35323" /> 
<path d="M63900 35323 L63928 35437" /> 
<path d="M63928 35437 L63928 35637" /> 
<path d="M63928 35637 L63900 35751" /> 
<path d="M63900 35751 L63843 35808" /> 
<path d="M63843 35808 L63785 35837" /> 
<path d="M63785 35837 L63671 35837" /> 
<path d="M63671 35837 L63614 35808" /> 
<path d="M63614 35808 L63557 35751" /> 
<path d="M63557 35751 L63528 35637" /> 
<path d="M63528 35637 L63528 35437" /> 
<path d="M63528 35437 L63557 35323" /> 
<path d="M63557 35323 L63614 35265" /> 
<path d="M63614 35265 L63671 35237" /> 
</g>
<g style="fill:#000000; fill-opacity:0.0; 
  stroke:#000000; stroke-linecap:round; stroke-linejoin:round; stroke-opacity:1.0; stroke-opacity:1.0; stroke-width:150" 
   transform="translate(0 0) scale(1 1)">
<path d="M56882 37169 L60031 34413" /> 
<path d="M60031 34413 L63969 34413" /> 
<path d="M63969 34413 L67118 37169" /> 
<path d="M56881 47405 L56881 37169" /> 
<path d="M56881 47405 L67118 47405" /> 
<path d="M67118 47405 L67118 37169" /> 
</g>
<g style="fill:#000000; fill-opacity:1.0; 
  stroke:#000000; stroke-linecap:round; stroke-linejoin:round; stroke-opacity:1.0; stroke-opacity:1.0; stroke-width:0" 
   transform="translate(0 0) scale(1 1)">
<ellipse cx="56000" cy="40500" rx="300" ry="300"  /> 
</g>
<g style="fill:#FFFFFF; fill-opacity:1.0; 
  stroke:#808000; stroke-linecap:round; stroke-linejoin:round; stroke-opacity:1.0; stroke-opacity:1.0; stroke-width:0" 
   transform="translate(0 0) scale(1 1)">
<ellipse cx="56000" cy="40500" rx="160" ry="160"  /> 
</g>
<g style="fill:#000000; fill-opacity:1.0; 
  stroke:#000000; stroke-linecap:round; stroke-linejoin:round; stroke-opacity:1.0; stroke-opacity:1.0; stroke-width:0" 
   transform="translate(0 0) scale(1 1)">
<ellipse cx="52000" cy="40500" rx="300" ry="300"  /> 
</g>
<g style="fill:#FFFFFF; fill-opacity:1.0; 
  stroke:#808000; stroke-linecap:round; stroke-linejoin:round; stroke-opacity:1.0; stroke-opacity:1.0; stroke-width:0" 
   transform="translate(0 0) scale(1 1)">
<ellipse cx="52000" cy="40500" rx="160" ry="160"  /> 
</g>
<g style="fill:#FFFFFF; fill-opacity:1.0; 
  stroke:#000000; stroke-linecap:round; stroke-linejoin:round; stroke-opacity:1.0; stroke-opacity:1.0; stroke-width:0" 
   transform="translate(0 0) scale(1 1)">
<path d="M53998 40500 L54002 40500" /> 
<path d="M54000 40498 L54000 40502" /> 
</g>
<g style="fill:#000000; fill-opacity:0.0; 
  stroke:#000000; stroke-linecap:round; stroke-linejoin:round; stroke-opacity:1.0; stroke-opacity:1.0; stroke-width:80" 
   transform="translate(0 0) scale(1 1)">
<path d="M53917 40723 L53750 40461" /> 
<g style = "stroke-linecap:round;" > 
<path d="M53750 40461 L53750 40461" /> 
</g><path d="M53631 40723 L53631 40173" /> 
<path d="M53631 40173 L53822 40173" /> 
<path d="M53822 40173 L53869 40199" /> 
<path d="M53869 40199 L53893 40225" /> 
<path d="M53893 40225 L53917 40277" /> 
<path d="M53917 40277 L53917 40356" /> 
<path d="M53917 40356 L53893 40408" /> 
<path d="M53893 40408 L53869 40435" /> 
<path d="M53869 40435 L53822 40461" /> 
<path d="M53822 40461 L53631 40461" /> 
<g style = "stroke-linecap:round;" > 
<path d="M53631 40461 L53631 40461" /> 
</g><path d="M54393 40723 L54107 40723" /> 
<g style = "stroke-linecap:round;" > 
<path d="M54107 40723 L54107 40723" /> 
</g><path d="M54250 40723 L54250 40173" /> 
<path d="M54250 40173 L54202 40251" /> 
<path d="M54202 40251 L54155 40304" /> 
<path d="M54155 40304 L54107 40330" /> 
<g style = "stroke-linecap:round;" > 
<path d="M54107 40330 L54107 40330" /> 
</g></g>
<g style="fill:#000000; fill-opacity:0.0; 
  stroke:#000000; stroke-linecap:round; stroke-linejoin:round; stroke-opacity:1.0; stroke-opacity:1.0; stroke-width:120" 
   transform="translate(0 0) scale(1 1)">
<path d="M56000 40500 L55600 40500" /> 
<path d="M55600 40500 L55600 40900" /> 
<path d="M55600 40900 L52400 40900" /> 
<path d="M52400 40900 L52400 40100" /> 
<path d="M52400 40100 L55600 40100" /> 
<path d="M55600 40100 L55600 40500" /> 
<path d="M55600 40700 L55400 40900" /> 
<path d="M52000 40500 L52400 40500" /> 
</g>
<g style="fill:#000000; fill-opacity:1.0; 
  stroke:#000000; stroke-linecap:round; stroke-linejoin:round; stroke-opacity:1.0; stroke-opacity:1.0; stroke-width:0" 
   transform="translate(0 0) scale(1 1)">
<ellipse cx="56000" cy="42000" rx="300" ry="300"  /> 
</g>
<g style="fill:#FFFFFF; fill-opacity:1.0; 
  stroke:#808000; stroke-linecap:round; stroke-linejoin:round; stroke-opacity:1.0; stroke-opacity:1.0; stroke-width:0" 
   transform="translate(0 0) scale(1 1)">
<ellipse cx="56000" cy="42000" rx="160" ry="160"  /> 
</g>
<g style="fill:#000000; fill-opacity:1.0; 
  stroke:#000000; stroke-linecap:round; stroke-linejoin:round; stroke-opacity:1.0; stroke-opacity:1.0; stroke-width:0" 
   transform="translate(0 0) scale(1 1)">
<ellipse cx="52000" cy="42000" rx="300" ry="300"  /> 
</g>
<g style="fill:#FFFFFF; fill-opacity:1.0; 
  stroke:#808000; stroke-linecap:round; stroke-linejoin:round; stroke-opacity:1.0; stroke-opacity:1.0; stroke-width:0" 
   transform="translate(0 0) scale(1 1)">
<ellipse cx="52000" cy="42000" rx="160" ry="160"  /> 
</g>
<g style="fill:#FFFFFF; fill-opacity:1.0; 
  stroke:#000000; stroke-linecap:round; stroke-linejoin:round; stroke-opacity:1.0; stroke-opacity:1.0; stroke-width:0" 
   transform="translate(0 0) scale(1 1)">
<path d="M53998 42000 L54002 42000" /> 
<path d="M54000 41998 L54000 42002" /> 
</g>
<g style="fill:#000000; fill-opacity:0.0; 
  stroke:#000000; stroke-linecap:round; stroke-linejoin:round; stroke-opacity:1.0; stroke-opacity:1.0; stroke-width:80" 
   transform="translate(0 0) scale(1 1)">
<path d="M53917 42223 L53750 41961" /> 
<g style = "stroke-linecap:round;" > 
<path d="M53750 41961 L53750 41961" /> 
</g><path d="M53631 42223 L53631 41673" /> 
<path d="M53631 41673 L53822 41673" /> 
<path d="M53822 41673 L53869 41699" /> 
<path d="M53869 41699 L53893 41725" /> 
<path d="M53893 41725 L53917 41777" /> 
<path d="M53917 41777 L53917 41856" /> 
<path d="M53917 41856 L53893 41908" /> 
<path d="M53893 41908 L53869 41935" /> 
<path d="M53869 41935 L53822 41961" /> 
<path d="M53822 41961 L53631 41961" /> 
<g style = "stroke-linecap:round;" > 
<path d="M53631 41961 L53631 41961" /> 
</g><path d="M54107 41725 L54131 41699" /> 
<path d="M54131 41699 L54179 41673" /> 
<path d="M54179 41673 L54298 41673" /> 
<path d="M54298 41673 L54345 41699" /> 
<path d="M54345 41699 L54369 41725" /> 
<path d="M54369 41725 L54393 41777" /> 
<path d="M54393 41777 L54393 41830" /> 
<path d="M54393 41830 L54369 41908" /> 
<path d="M54369 41908 L54083 42223" /> 
<path d="M54083 42223 L54393 42223" /> 
<g style = "stroke-linecap:round;" > 
<path d="M54393 42223 L54393 42223" /> 
</g></g>
<g style="fill:#000000; fill-opacity:0.0; 
  stroke:#000000; stroke-linecap:round; stroke-linejoin:round; stroke-opacity:1.0; stroke-opacity:1.0; stroke-width:120" 
   transform="translate(0 0) scale(1 1)">
<path d="M56000 42000 L55600 42000" /> 
<path d="M55600 42000 L55600 42400" /> 
<path d="M55600 42400 L52400 42400" /> 
<path d="M52400 42400 L52400 41600" /> 
<path d="M52400 41600 L55600 41600" /> 
<path d="M55600 41600 L55600 42000" /> 
<path d="M55600 42200 L55400 42400" /> 
<path d="M52000 42000 L52400 42000" /> 
</g>
<g style="fill:#000000; fill-opacity:1.0; 
  stroke:#000000; stroke-linecap:round; stroke-linejoin:round; stroke-opacity:1.0; stroke-opacity:1.0; stroke-width:0" 
   transform="translate(0 0) scale(1 1)">
<polygon style="fill-rule:evenodd; " 
points="49984,42607
49984,43393
48016,43393
48016,42607
" /> 
<polygon style="fill-rule:evenodd; " 
points="49984,41107
49984,41893
48016,41893
48016,41107
" /> 
<polygon style="fill-rule:evenodd; " 
points="49984,39607
49984,40393
48016,40393
48016,39607
" /> 
<polygon style="fill-rule:evenodd; " 
points="49984,38107
49984,38893
48016,38893
48016,38107
" /> 
<path d="M48998 44000 L49002 44000" /> 
<path d="M49000 43998 L49000 44002" /> 
</g>
<g style="fill:#000000; fill-opacity:0.0; 
  stroke:#000000; stroke-linecap:round; stroke-linejoin:round; stroke-opacity:1.0; stroke-opacity:1.0; stroke-width:120" 
   transform="translate(0 0) scale(1 1)">
<path d="M48558 44243 L48558 43643" /> 
<path d="M48558 43643 L48786 43643" /> 
<path d="M48786 43643 L48844 43671" /> 
<path d="M48844 43671 L48872 43700" /> 
<path d="M48872 43700 L48901 43757" /> 
<path d="M48901 43757 L48901 43843" /> 
<path d="M48901 43843 L48872 43900" /> 
<path d="M48872 43900 L48844 43929" /> 
<path d="M48844 43929 L48786 43957" /> 
<path d="M48786 43957 L48558 43957" /> 
<g style = "stroke-linecap:round;" > 
<path d="M48558 43957 L48558 43957" /> 
</g><path d="M49472 44243 L49129 44243" /> 
<g style = "stroke-linecap:round;" > 
<path d="M49129 44243 L49129 44243" /> 
</g><path d="M49301 44243 L49301 43643" /> 
<path d="M49301 43643 L49244 43729" /> 
<path d="M49244 43729 L49186 43786" /> 
<path d="M49186 43786 L49129 43814" /> 
<g style = "stroke-linecap:round;" > 
<path d="M49129 43814 L49129 43814" /> 
</g></g>
<g style="fill:#000000; fill-opacity:0.0; 
  stroke:#000000; stroke-linecap:round; stroke-linejoin:round; stroke-opacity:1.0; stroke-opacity:1.0; stroke-width:0" 
   transform="translate(0 0) scale(1 1)">
<path d="M48498 37000 L48502 37000" /> 
<path d="M48500 36998 L48500 37002" /> 
</g>
<g style="fill:#000000; fill-opacity:0.0; 
  stroke:#000000; stroke-linecap:round; stroke-linejoin:round; stroke-opacity:1.0; stroke-opacity:1.0; stroke-width:120" 
   transform="translate(0 0) scale(1 1)">
<path d="M47229 37186 L47200 37214" /> 
<path d="M47200 37214 L47114 37243" /> 
<path d="M47114 37243 L47057 37243" /> 
<path d="M47057 37243 L46972 37214" /> 
<path d="M46972 37214 L46914 37157" /> 
<path d="M46914 37157 L46886 37100" /> 
<path d="M46886 37100 L46857 36986" /> 
<path d="M46857 36986 L46857 36900" /> 
<path d="M46857 36900 L46886 36786" /> 
<path d="M46886 36786 L46914 36729" /> 
<path d="M46914 36729 L46972 36671" /> 
<path d="M46972 36671 L47057 36643" /> 
<path d="M47057 36643 L47114 36643" /> 
<path d="M47114 36643 L47200 36671" /> 
<path d="M47200 36671 L47229 36700" /> 
<g style = "stroke-linecap:round;" > 
<path d="M47229 36700 L47229 36700" /> 
</g><path d="M47600 36643 L47714 36643" /> 
<path d="M47714 36643 L47772 36671" /> 
<path d="M47772 36671 L47829 36729" /> 
<path d="M47829 36729 L47857 36843" /> 
<path d="M47857 36843 L47857 37043" /> 
<path d="M47857 37043 L47829 37157" /> 
<path d="M47829 37157 L47772 37214" /> 
<path d="M47772 37214 L47714 37243" /> 
<path d="M47714 37243 L47600 37243" /> 
<path d="M47600 37243 L47543 37214" /> 
<path d="M47543 37214 L47486 37157" /> 
<path d="M47486 37157 L47457 37043" /> 
<path d="M47457 37043 L47457 36843" /> 
<path d="M47457 36843 L47486 36729" /> 
<path d="M47486 36729 L47543 36671" /> 
<path d="M47543 36671 L47600 36643" /> 
<path d="M48115 37243 L48115 36643" /> 
<path d="M48115 36643 L48458 37243" /> 
<path d="M48458 37243 L48458 36643" /> 
<g style = "stroke-linecap:round;" > 
<path d="M48458 36643 L48458 36643" /> 
</g><path d="M48744 37243 L48744 36643" /> 
<path d="M48744 36643 L49087 37243" /> 
<path d="M49087 37243 L49087 36643" /> 
<g style = "stroke-linecap:round;" > 
<path d="M49087 36643 L49087 36643" /> 
</g><path d="M49230 37300 L49687 37300" /> 
<g style = "stroke-linecap:round;" > 
<path d="M49687 37300 L49687 37300" /> 
</g><path d="M50087 36843 L50087 37243" /> 
<g style = "stroke-linecap:round;" > 
<path d="M50087 37243 L50087 37243" /> 
</g><path d="M49944 36614 L49801 37043" /> 
<path d="M49801 37043 L50173 37043" /> 
<g style = "stroke-linecap:round;" > 
<path d="M50173 37043 L50173 37043" /> 
</g></g>
<g style="fill:#000000; fill-opacity:0.0; 
  stroke:#000000; stroke-linecap:round; stroke-linejoin:round; stroke-opacity:1.0; stroke-opacity:1.0; stroke-width:150" 
   transform="translate(0 0) scale(1 1)">
<path d="M49500 43500 L47500 43500" /> 
<path d="M47500 43500 L47500 38000" /> 
<path d="M47500 38000 L49500 38000" /> 
</g>
<g style="fill:#000000; fill-opacity:1.0; 
  stroke:#000000; stroke-linecap:round; stroke-linejoin:round; stroke-opacity:1.0; stroke-opacity:1.0; stroke-width:0" 
   transform="translate(0 0) scale(1 1)">
<ellipse cx="48500" cy="34000" rx="800" ry="800"  /> 
</g>
<g style="fill:#FFFFFF; fill-opacity:1.0; 
  stroke:#808000; stroke-linecap:round; stroke-linejoin:round; stroke-opacity:1.0; stroke-opacity:1.0; stroke-width:0" 
   transform="translate(0 0) scale(1 1)">
<ellipse cx="48500" cy="34000" rx="600" ry="600"  /> 
</g>
<g style="fill:#FFFFFF; fill-opacity:1.0; 
  stroke:#000000; stroke-linecap:round; stroke-linejoin:round; stroke-opacity:1.0; stroke-opacity:1.0; stroke-width:0" 
   transform="translate(0 0) scale(1 1)">
<path d="M48498 32800 L48502 32800" /> 
<path d="M48500 32798 L48500 32802" /> 
</g>
<g style="fill:#000000; fill-opacity:0.0; 
  stroke:#000000; stroke-linecap:round; stroke-linejoin:round; stroke-opacity:1.0; stroke-opacity:1.0; stroke-width:100" 
   transform="translate(0 0) scale(1 1)">
<path d="M48110 32962 L47881 32962" /> 
<g style = "stroke-linecap:round;" > 
<path d="M47881 32962 L47881 32962" /> 
</g><path d="M47995 32962 L47995 32562" /> 
<path d="M47995 32562 L47957 32619" /> 
<path d="M47957 32619 L47919 32657" /> 
<path d="M47919 32657 L47881 32676" /> 
<g style = "stroke-linecap:round;" > 
<path d="M47881 32676 L47881 32676" /> 
</g><path d="M48281 32962 L48281 32562" /> 
<path d="M48281 32562 L48434 32562" /> 
<path d="M48434 32562 L48472 32581" /> 
<path d="M48472 32581 L48491 32600" /> 
<path d="M48491 32600 L48510 32638" /> 
<path d="M48510 32638 L48510 32695" /> 
<path d="M48510 32695 L48491 32733" /> 
<path d="M48491 32733 L48472 32752" /> 
<path d="M48472 32752 L48434 32771" /> 
<path d="M48434 32771 L48281 32771" /> 
<g style = "stroke-linecap:round;" > 
<path d="M48281 32771 L48281 32771" /> 
</g><path d="M48681 32962 L48681 32562" /> 
<g style = "stroke-linecap:round;" > 
<path d="M48681 32562 L48681 32562" /> 
</g><path d="M48871 32962 L48871 32562" /> 
<path d="M48871 32562 L49100 32962" /> 
<path d="M49100 32962 L49100 32562" /> 
<g style = "stroke-linecap:round;" > 
<path d="M49100 32562 L49100 32562" /> 
</g></g>
<g style="fill:#000000; fill-opacity:0.0; 
  stroke:#000000; stroke-linecap:round; stroke-linejoin:round; stroke-opacity:1.0; stroke-opacity:1.0; stroke-width:150" 
   transform="translate(0 0) scale(1 1)">
<ellipse cx="48500" cy="34000" rx="900" ry="900"  /> 
</g>
<g style="fill:#000000; fill-opacity:1.0; 
  stroke:#000000; stroke-linecap:round; stroke-linejoin:round; stroke-opacity:1.0; stroke-opacity:1.0; stroke-width:0" 
   transform="translate(0 0) scale(1 1)">
<ellipse cx="66000" cy="34000" rx="800" ry="800"  /> 
</g>
<g style="fill:#FFFFFF; fill-opacity:1.0; 
  stroke:#808000; stroke-linecap:round; stroke-linejoin:round; stroke-opacity:1.0; stroke-opacity:1.0; stroke-width:0" 
   transform="translate(0 0) scale(1 1)">
<ellipse cx="66000" cy="34000" rx="600" ry="600"  /> 
</g>
<g style="fill:#FFFFFF; fill-opacity:1.0; 
  stroke:#000000; stroke-linecap:round; stroke-linejoin:round; stroke-opacity:1.0; stroke-opacity:1.0; stroke-width:0" 
   transform="translate(0 0) scale(1 1)">
<path d="M65998 32800 L66002 32800" /> 
<path d="M66000 32798 L66000 32802" /> 
</g>
<g style="fill:#000000; fill-opacity:0.0; 
  stroke:#000000; stroke-linecap:round; stroke-linejoin:round; stroke-opacity:1.0; stroke-opacity:1.0; stroke-width:100" 
   transform="translate(0 0) scale(1 1)">
<path d="M65610 32962 L65381 32962" /> 
<g style = "stroke-linecap:round;" > 
<path d="M65381 32962 L65381 32962" /> 
</g><path d="M65495 32962 L65495 32562" /> 
<path d="M65495 32562 L65457 32619" /> 
<path d="M65457 32619 L65419 32657" /> 
<path d="M65419 32657 L65381 32676" /> 
<g style = "stroke-linecap:round;" > 
<path d="M65381 32676 L65381 32676" /> 
</g><path d="M65781 32962 L65781 32562" /> 
<path d="M65781 32562 L65934 32562" /> 
<path d="M65934 32562 L65972 32581" /> 
<path d="M65972 32581 L65991 32600" /> 
<path d="M65991 32600 L66010 32638" /> 
<path d="M66010 32638 L66010 32695" /> 
<path d="M66010 32695 L65991 32733" /> 
<path d="M65991 32733 L65972 32752" /> 
<path d="M65972 32752 L65934 32771" /> 
<path d="M65934 32771 L65781 32771" /> 
<g style = "stroke-linecap:round;" > 
<path d="M65781 32771 L65781 32771" /> 
</g><path d="M66181 32962 L66181 32562" /> 
<g style = "stroke-linecap:round;" > 
<path d="M66181 32562 L66181 32562" /> 
</g><path d="M66371 32962 L66371 32562" /> 
<path d="M66371 32562 L66600 32962" /> 
<path d="M66600 32962 L66600 32562" /> 
<g style = "stroke-linecap:round;" > 
<path d="M66600 32562 L66600 32562" /> 
</g></g>
<g style="fill:#000000; fill-opacity:0.0; 
  stroke:#000000; stroke-linecap:round; stroke-linejoin:round; stroke-opacity:1.0; stroke-opacity:1.0; stroke-width:150" 
   transform="translate(0 0) scale(1 1)">
<ellipse cx="66000" cy="34000" rx="900" ry="900"  /> 
</g>
<g style="fill:#000000; fill-opacity:1.0; 
  stroke:#000000; stroke-linecap:round; stroke-linejoin:round; stroke-opacity:1.0; stroke-opacity:1.0; stroke-width:0" 
   transform="translate(0 0) scale(1 1)">
<ellipse cx="48500" cy="49000" rx="800" ry="800"  /> 
</g>
<g style="fill:#FFFFFF; fill-opacity:1.0; 
  stroke:#808000; stroke-linecap:round; stroke-linejoin:round; stroke-opacity:1.0; stroke-opacity:1.0; stroke-width:0" 
   transform="translate(0 0) scale(1 1)">
<ellipse cx="48500" cy="49000" rx="600" ry="600"  /> 
</g>
<g style="fill:#FFFFFF; fill-opacity:1.0; 
  stroke:#000000; stroke-linecap:round; stroke-linejoin:round; stroke-opacity:1.0; stroke-opacity:1.0; stroke-width:0" 
   transform="translate(0 0) scale(1 1)">
<path d="M48498 47800 L48502 47800" /> 
<path d="M48500 47798 L48500 47802" /> 
</g>
<g style="fill:#000000; fill-opacity:0.0; 
  stroke:#000000; stroke-linecap:round; stroke-linejoin:round; stroke-opacity:1.0; stroke-opacity:1.0; stroke-width:100" 
   transform="translate(0 0) scale(1 1)">
<path d="M48110 47962 L47881 47962" /> 
<g style = "stroke-linecap:round;" > 
<path d="M47881 47962 L47881 47962" /> 
</g><path d="M47995 47962 L47995 47562" /> 
<path d="M47995 47562 L47957 47619" /> 
<path d="M47957 47619 L47919 47657" /> 
<path d="M47919 47657 L47881 47676" /> 
<g style = "stroke-linecap:round;" > 
<path d="M47881 47676 L47881 47676" /> 
</g><path d="M48281 47962 L48281 47562" /> 
<path d="M48281 47562 L48434 47562" /> 
<path d="M48434 47562 L48472 47581" /> 
<path d="M48472 47581 L48491 47600" /> 
<path d="M48491 47600 L48510 47638" /> 
<path d="M48510 47638 L48510 47695" /> 
<path d="M48510 47695 L48491 47733" /> 
<path d="M48491 47733 L48472 47752" /> 
<path d="M48472 47752 L48434 47771" /> 
<path d="M48434 47771 L48281 47771" /> 
<g style = "stroke-linecap:round;" > 
<path d="M48281 47771 L48281 47771" /> 
</g><path d="M48681 47962 L48681 47562" /> 
<g style = "stroke-linecap:round;" > 
<path d="M48681 47562 L48681 47562" /> 
</g><path d="M48871 47962 L48871 47562" /> 
<path d="M48871 47562 L49100 47962" /> 
<path d="M49100 47962 L49100 47562" /> 
<g style = "stroke-linecap:round;" > 
<path d="M49100 47562 L49100 47562" /> 
</g></g>
<g style="fill:#000000; fill-opacity:0.0; 
  stroke:#000000; stroke-linecap:round; stroke-linejoin:round; stroke-opacity:1.0; stroke-opacity:1.0; stroke-width:150" 
   transform="translate(0 0) scale(1 1)">
<ellipse cx="48500" cy="49000" rx="900" ry="900"  /> 
</g>
<g style="fill:#000000; fill-opacity:1.0; 
  stroke:#000000; stroke-linecap:round; stroke-linejoin:round; stroke-opacity:1.0; stroke-opacity:1.0; stroke-width:0" 
   transform="translate(0 0) scale(1 1)">
<ellipse cx="66000" cy="49000" rx="800" ry="800"  /> 
</g>
<g style="fill:#FFFFFF; fill-opacity:1.0; 
  stroke:#808000; stroke-linecap:round; stroke-linejoin:round; stroke-opacity:1.0; stroke-opacity:1.0; stroke-width:0" 
   transform="translate(0 0) scale(1 1)">
<ellipse cx="66000" cy="49000" rx="600" ry="600"  /> 
</g>
<g style="fill:#FFFFFF; fill-opacity:1.0; 
  stroke:#000000; stroke-linecap:round; stroke-linejoin:round; stroke-opacity:1.0; stroke-opacity:1.0; stroke-width:0" 
   transform="translate(0 0) scale(1 1)">
<path d="M65998 47800 L66002 47800" /> 
<path d="M66000 47798 L66000 47802" /> 
</g>
<g style="fill:#000000; fill-opacity:0.0; 
  stroke:#000000; stroke-linecap:round; stroke-linejoin:round; stroke-opacity:1.0; stroke-opacity:1.0; stroke-width:100" 
   transform="translate(0 0) scale(1 1)">
<path d="M65610 47962 L65381 47962" /> 
<g style = "stroke-linecap:round;" > 
<path d="M65381 47962 L65381 47962" /> 
</g><path d="M65495 47962 L65495 47562" /> 
<path d="M65495 47562 L65457 47619" /> 
<path d="M65457 47619 L65419 47657" /> 
<path d="M65419 47657 L65381 47676" /> 
<g style = "stroke-linecap:round;" > 
<path d="M65381 47676 L65381 47676" /> 
</g><path d="M65781 47962 L65781 47562" /> 
<path d="M65781 47562 L65934 47562" /> 
<path d="M65934 47562 L65972 47581" /> 
<path d="M65972 47581 L65991 47600" /> 
<path d="M65991 47600 L66010 47638" /> 
<path d="M66010 47638 L66010 47695" /> 
<path d="M66010 47695 L65991 47733" /> 
<path d="M65991 47733 L65972 47752" /> 
<path d="M65972 47752 L65934 47771" /> 
<path d="M65934 47771 L65781 47771" /> 
<g style = "stroke-linecap:round;" > 
<path d="M65781 47771 L65781 47771" /> 
</g><path d="M66181 47962 L66181 47562" /> 
<g style = "stroke-linecap:round;" > 
<path d="M66181 47562 L66181 47562" /> 
</g><path d="M66371 47962 L66371 47562" /> 
<path d="M66371 47562 L66600 47962" /> 
<path d="M66600 47962 L66600 47562" /> 
<g style = "stroke-linecap:round;" > 
<path d="M66600 47562 L66600 47562" /> 
</g></g>
<g style="fill:#000000; fill-opacity:0.0; 
  stroke:#000000; stroke-linecap:round; stroke-linejoin:round; stroke-opacity:1.0; stroke-opacity:1.0; stroke-width:150" 
   transform="translate(0 0) scale(1 1)">
<ellipse cx="66000" cy="49000" rx="900" ry="900"  /> 
</g> 
</svg> 
