<?xml version="1.0" standalone="no"?>
<!DOCTYPE svg PUBLIC "-//W3C//DTD SVG 1.1//EN" 
"http://www.w3.org/Graphics/SVG/1.1/DTD/svg11.dtd"> 
<svg
  xmlns="http://www.w3.org/2000/svg"
  version="1.1"
  width="11.7in" height="8.267in" viewBox="0 0 117000 82670 "
>
  <title>SVG Picture created as PCB-Dessus.svg </title>
  <desc>Picture generated by wxSVG v0101 </desc>
  <g style="fill:black; stroke:black; stroke-width:1">
</g>
<g style="fill:#000000; fill-opacity:0.0; 
  stroke:#0000C0; stroke-linecap:round; stroke-linejoin:round; stroke-opacity:1.0; stroke-opacity:1.0; stroke-width:0" 
   transform="translate(0 0) scale(1 1)">
<path d="M62998 58000 L63002 58000" /> 
<path d="M63000 57998 L63000 58002" /> 
</g>
<g style="fill:#A00000; fill-opacity:0.0; 
  stroke:#A00000; stroke-linecap:round; stroke-linejoin:round; stroke-opacity:1.0; stroke-opacity:1.0; stroke-width:120" 
   transform="translate(0 0) scale(1 1)">
<path d="M60529 58324 L60529 57524" /> 
<path d="M60529 57524 L60757 57524" /> 
<path d="M60757 57524 L60815 57562" /> 
<path d="M60815 57562 L60843 57600" /> 
<path d="M60843 57600 L60872 57676" /> 
<path d="M60872 57676 L60872 57790" /> 
<path d="M60872 57790 L60843 57867" /> 
<path d="M60843 57867 L60815 57905" /> 
<path d="M60815 57905 L60757 57943" /> 
<path d="M60757 57943 L60529 57943" /> 
<g style = "stroke-linecap:round;" > 
<path d="M60529 57943 L60529 57943" /> 
</g><path d="M61243 57524 L61357 57524" /> 
<path d="M61357 57524 L61415 57562" /> 
<path d="M61415 57562 L61472 57638" /> 
<path d="M61472 57638 L61500 57790" /> 
<path d="M61500 57790 L61500 58057" /> 
<path d="M61500 58057 L61472 58210" /> 
<path d="M61472 58210 L61415 58286" /> 
<path d="M61415 58286 L61357 58324" /> 
<path d="M61357 58324 L61243 58324" /> 
<path d="M61243 58324 L61186 58286" /> 
<path d="M61186 58286 L61129 58210" /> 
<path d="M61129 58210 L61100 58057" /> 
<path d="M61100 58057 L61100 57790" /> 
<path d="M61100 57790 L61129 57638" /> 
<path d="M61129 57638 L61186 57562" /> 
<path d="M61186 57562 L61243 57524" /> 
<path d="M61729 58286 L61815 58324" /> 
<path d="M61815 58324 L61958 58324" /> 
<path d="M61958 58324 L62015 58286" /> 
<path d="M62015 58286 L62044 58248" /> 
<path d="M62044 58248 L62072 58171" /> 
<path d="M62072 58171 L62072 58095" /> 
<path d="M62072 58095 L62044 58019" /> 
<path d="M62044 58019 L62015 57981" /> 
<path d="M62015 57981 L61958 57943" /> 
<path d="M61958 57943 L61844 57905" /> 
<path d="M61844 57905 L61786 57867" /> 
<path d="M61786 57867 L61758 57829" /> 
<path d="M61758 57829 L61729 57752" /> 
<path d="M61729 57752 L61729 57676" /> 
<path d="M61729 57676 L61758 57600" /> 
<path d="M61758 57600 L61786 57562" /> 
<path d="M61786 57562 L61844 57524" /> 
<path d="M61844 57524 L61986 57524" /> 
<path d="M61986 57524 L62072 57562" /> 
<g style = "stroke-linecap:round;" > 
<path d="M62072 57562 L62072 57562" /> 
</g><path d="M62615 58324 L62329 58324" /> 
<path d="M62329 58324 L62329 57524" /> 
<g style = "stroke-linecap:round;" > 
<path d="M62329 57524 L62329 57524" /> 
</g><path d="M63615 58324 L63415 57943" /> 
<g style = "stroke-linecap:round;" > 
<path d="M63415 57943 L63415 57943" /> 
</g><path d="M63272 58324 L63272 57524" /> 
<path d="M63272 57524 L63500 57524" /> 
<path d="M63500 57524 L63558 57562" /> 
<path d="M63558 57562 L63586 57600" /> 
<path d="M63586 57600 L63615 57676" /> 
<path d="M63615 57676 L63615 57790" /> 
<path d="M63615 57790 L63586 57867" /> 
<path d="M63586 57867 L63558 57905" /> 
<path d="M63558 57905 L63500 57943" /> 
<path d="M63500 57943 L63272 57943" /> 
<g style = "stroke-linecap:round;" > 
<path d="M63272 57943 L63272 57943" /> 
</g><path d="M63958 58324 L63900 58286" /> 
<path d="M63900 58286 L63872 58248" /> 
<path d="M63872 58248 L63843 58171" /> 
<path d="M63843 58171 L63843 57943" /> 
<path d="M63843 57943 L63872 57867" /> 
<path d="M63872 57867 L63900 57829" /> 
<path d="M63900 57829 L63958 57790" /> 
<path d="M63958 57790 L64043 57790" /> 
<path d="M64043 57790 L64100 57829" /> 
<path d="M64100 57829 L64129 57867" /> 
<path d="M64129 57867 L64158 57943" /> 
<path d="M64158 57943 L64158 58171" /> 
<path d="M64158 58171 L64129 58248" /> 
<path d="M64129 58248 L64100 58286" /> 
<path d="M64100 58286 L64043 58324" /> 
<path d="M64043 58324 L63958 58324" /> 
<path d="M64358 57790 L64501 58324" /> 
<path d="M64501 58324 L64643 57790" /> 
<g style = "stroke-linecap:round;" > 
<path d="M64643 57790 L64643 57790" /> 
</g><path d="M65100 58286 L65043 58324" /> 
<path d="M65043 58324 L64929 58324" /> 
<path d="M64929 58324 L64872 58286" /> 
<path d="M64872 58286 L64843 58210" /> 
<path d="M64843 58210 L64843 57905" /> 
<path d="M64843 57905 L64872 57829" /> 
<path d="M64872 57829 L64929 57790" /> 
<path d="M64929 57790 L65043 57790" /> 
<path d="M65043 57790 L65100 57829" /> 
<path d="M65100 57829 L65129 57905" /> 
<path d="M65129 57905 L65129 57981" /> 
<path d="M65129 57981 L64843 58057" /> 
<g style = "stroke-linecap:round;" > 
<path d="M64843 58057 L64843 58057" /> 
</g><path d="M65386 58324 L65386 57790" /> 
<g style = "stroke-linecap:round;" > 
<path d="M65386 57790 L65386 57790" /> 
</g><path d="M65386 57943 L65414 57867" /> 
<path d="M65414 57867 L65443 57829" /> 
<path d="M65443 57829 L65500 57790" /> 
<path d="M65500 57790 L65557 57790" /> 
<g style = "stroke-linecap:round;" > 
<path d="M65557 57790 L65557 57790" /> 
</g></g>
<g style="fill:#A00000; fill-opacity:0.0; 
  stroke:#0000C0; stroke-linecap:round; stroke-linejoin:round; stroke-opacity:1.0; stroke-opacity:1.0; stroke-width:0" 
   transform="translate(0 0) scale(1 1)">
<path d="M62998 59240 L63002 59240" /> 
<path d="M63000 59238 L63000 59242" /> 
</g>
<g style="fill:#A00000; fill-opacity:0.0; 
  stroke:#A00000; stroke-linecap:round; stroke-linejoin:round; stroke-opacity:1.0; stroke-opacity:1.0; stroke-width:120" 
   transform="translate(0 0) scale(1 1)">
<path d="M60328 59335 L60614 59335" /> 
<g style = "stroke-linecap:round;" > 
<path d="M60614 59335 L60614 59335" /> 
</g><path d="M60271 59564 L60471 58764" /> 
<path d="M60471 58764 L60671 59564" /> 
<g style = "stroke-linecap:round;" > 
<path d="M60671 59564 L60671 59564" /> 
</g><path d="M60957 59564 L60899 59526" /> 
<path d="M60899 59526 L60871 59450" /> 
<path d="M60871 59450 L60871 58764" /> 
<g style = "stroke-linecap:round;" > 
<path d="M60871 58764 L60871 58764" /> 
</g><path d="M61185 59564 L61185 59030" /> 
<g style = "stroke-linecap:round;" > 
<path d="M61185 59030 L61185 59030" /> 
</g><path d="M61185 58764 L61156 58802" /> 
<path d="M61156 58802 L61185 58840" /> 
<path d="M61185 58840 L61213 58802" /> 
<path d="M61213 58802 L61185 58764" /> 
<path d="M61185 58764 L61185 58840" /> 
<g style = "stroke-linecap:round;" > 
<path d="M61185 58840 L61185 58840" /> 
</g><path d="M61471 59564 L61471 59030" /> 
<g style = "stroke-linecap:round;" > 
<path d="M61471 59030 L61471 59030" /> 
</g><path d="M61471 59107 L61499 59069" /> 
<path d="M61499 59069 L61557 59030" /> 
<path d="M61557 59030 L61642 59030" /> 
<path d="M61642 59030 L61699 59069" /> 
<path d="M61699 59069 L61728 59145" /> 
<path d="M61728 59145 L61728 59564" /> 
<g style = "stroke-linecap:round;" > 
<path d="M61728 59564 L61728 59564" /> 
</g><path d="M61728 59145 L61757 59069" /> 
<path d="M61757 59069 L61814 59030" /> 
<path d="M61814 59030 L61899 59030" /> 
<path d="M61899 59030 L61957 59069" /> 
<path d="M61957 59069 L61985 59145" /> 
<path d="M61985 59145 L61985 59564" /> 
<g style = "stroke-linecap:round;" > 
<path d="M61985 59564 L61985 59564" /> 
</g><path d="M62499 59526 L62442 59564" /> 
<path d="M62442 59564 L62328 59564" /> 
<path d="M62328 59564 L62271 59526" /> 
<path d="M62271 59526 L62242 59450" /> 
<path d="M62242 59450 L62242 59145" /> 
<path d="M62242 59145 L62271 59069" /> 
<path d="M62271 59069 L62328 59030" /> 
<path d="M62328 59030 L62442 59030" /> 
<path d="M62442 59030 L62499 59069" /> 
<path d="M62499 59069 L62528 59145" /> 
<path d="M62528 59145 L62528 59221" /> 
<path d="M62528 59221 L62242 59297" /> 
<g style = "stroke-linecap:round;" > 
<path d="M62242 59297 L62242 59297" /> 
</g><path d="M62785 59030 L62785 59564" /> 
<g style = "stroke-linecap:round;" > 
<path d="M62785 59564 L62785 59564" /> 
</g><path d="M62785 59107 L62813 59069" /> 
<path d="M62813 59069 L62871 59030" /> 
<path d="M62871 59030 L62956 59030" /> 
<path d="M62956 59030 L63013 59069" /> 
<path d="M63013 59069 L63042 59145" /> 
<path d="M63042 59145 L63042 59564" /> 
<g style = "stroke-linecap:round;" > 
<path d="M63042 59564 L63042 59564" /> 
</g><path d="M63242 59030 L63471 59030" /> 
<g style = "stroke-linecap:round;" > 
<path d="M63471 59030 L63471 59030" /> 
</g><path d="M63328 58764 L63328 59450" /> 
<path d="M63328 59450 L63356 59526" /> 
<path d="M63356 59526 L63414 59564" /> 
<path d="M63414 59564 L63471 59564" /> 
<g style = "stroke-linecap:round;" > 
<path d="M63471 59564 L63471 59564" /> 
</g><path d="M63928 59564 L63928 59145" /> 
<path d="M63928 59145 L63899 59069" /> 
<path d="M63899 59069 L63842 59030" /> 
<path d="M63842 59030 L63728 59030" /> 
<path d="M63728 59030 L63671 59069" /> 
<g style = "stroke-linecap:round;" > 
<path d="M63671 59069 L63671 59069" /> 
</g><path d="M63928 59526 L63871 59564" /> 
<path d="M63871 59564 L63728 59564" /> 
<path d="M63728 59564 L63671 59526" /> 
<path d="M63671 59526 L63642 59450" /> 
<path d="M63642 59450 L63642 59373" /> 
<path d="M63642 59373 L63671 59297" /> 
<path d="M63671 59297 L63728 59259" /> 
<path d="M63728 59259 L63871 59259" /> 
<path d="M63871 59259 L63928 59221" /> 
<g style = "stroke-linecap:round;" > 
<path d="M63928 59221 L63928 59221" /> 
</g><path d="M64128 59030 L64357 59030" /> 
<g style = "stroke-linecap:round;" > 
<path d="M64357 59030 L64357 59030" /> 
</g><path d="M64214 58764 L64214 59450" /> 
<path d="M64214 59450 L64242 59526" /> 
<path d="M64242 59526 L64300 59564" /> 
<path d="M64300 59564 L64357 59564" /> 
<g style = "stroke-linecap:round;" > 
<path d="M64357 59564 L64357 59564" /> 
</g><path d="M64557 59564 L64557 59030" /> 
<g style = "stroke-linecap:round;" > 
<path d="M64557 59030 L64557 59030" /> 
</g><path d="M64557 58764 L64528 58802" /> 
<path d="M64528 58802 L64557 58840" /> 
<path d="M64557 58840 L64585 58802" /> 
<path d="M64585 58802 L64557 58764" /> 
<path d="M64557 58764 L64557 58840" /> 
<g style = "stroke-linecap:round;" > 
<path d="M64557 58840 L64557 58840" /> 
</g><path d="M64929 59564 L64871 59526" /> 
<path d="M64871 59526 L64843 59488" /> 
<path d="M64843 59488 L64814 59411" /> 
<path d="M64814 59411 L64814 59183" /> 
<path d="M64814 59183 L64843 59107" /> 
<path d="M64843 59107 L64871 59069" /> 
<path d="M64871 59069 L64929 59030" /> 
<path d="M64929 59030 L65014 59030" /> 
<path d="M65014 59030 L65071 59069" /> 
<path d="M65071 59069 L65100 59107" /> 
<path d="M65100 59107 L65129 59183" /> 
<path d="M65129 59183 L65129 59411" /> 
<path d="M65129 59411 L65100 59488" /> 
<path d="M65100 59488 L65071 59526" /> 
<path d="M65071 59526 L65014 59564" /> 
<path d="M65014 59564 L64929 59564" /> 
<path d="M65386 59030 L65386 59564" /> 
<g style = "stroke-linecap:round;" > 
<path d="M65386 59564 L65386 59564" /> 
</g><path d="M65386 59107 L65414 59069" /> 
<path d="M65414 59069 L65472 59030" /> 
<path d="M65472 59030 L65557 59030" /> 
<path d="M65557 59030 L65614 59069" /> 
<path d="M65614 59069 L65643 59145" /> 
<path d="M65643 59145 L65643 59564" /> 
<g style = "stroke-linecap:round;" > 
<path d="M65643 59564 L65643 59564" /> 
</g></g>
<g style="fill:#A00000; fill-opacity:0.0; 
  stroke:#A00000; stroke-linecap:round; stroke-linejoin:round; stroke-opacity:1.0; stroke-opacity:1.0; stroke-width:394" 
   transform="translate(0 0) scale(1 1)">
<path d="M55500 44000 L54000 44000" /> 
<path d="M53000 45500 L52000 45500" /> 
<path d="M53500 45000 L53000 45500" /> 
<path d="M53500 44500 L53500 45000" /> 
<path d="M54000 44000 L53500 44500" /> 
<path d="M49900 45850 L50350 45850" /> 
<path d="M50700 45500 L52000 45500" /> 
<path d="M50350 45850 L50700 45500" /> 
<path d="M47000 43600 L44900 43600" /> 
<path d="M44500 44000 L44500 49500" /> 
<path d="M44900 43600 L44500 44000" /> 
<path d="M44500 49500 L45500 49500" /> 
<path d="M50500 42000 L50500 45000" /> 
<path d="M50350 45150 L49900 45150" /> 
<path d="M50500 45000 L50350 45150" /> 
<path d="M52000 43500 L52000 42000" /> 
<path d="M53500 39500 L53500 41500" /> 
<path d="M47000 42500 L47000 43600" /> 
<path d="M47500 42000 L47000 42500" /> 
<path d="M53000 42000 L52000 42000" /> 
<path d="M52000 42000 L50500 42000" /> 
<path d="M50500 42000 L47500 42000" /> 
<path d="M53500 41500 L53000 42000" /> 
<path d="M42500 40000 L46000 40000" /> 
<path d="M46500 39500 L46500 34000" /> 
<path d="M46000 40000 L46500 39500" /> 
<path d="M53500 39500 L53500 34000" /> 
<path d="M42500 34000 L46500 34000" /> 
<path d="M46500 34000 L53500 34000" /> 
<path d="M53500 34000 L63000 34000" /> 
<path d="M63500 34500 L63500 39500" /> 
<path d="M63000 34000 L63500 34500" /> 
<path d="M55500 49500 L56500 49500" /> 
<path d="M42500 51000 L55000 51000" /> 
<path d="M55500 50500 L55500 49500" /> 
<path d="M55000 51000 L55500 50500" /> 
<path d="M69500 42000 L69500 28500" /> 
<path d="M69000 28000 L42500 28000" /> 
<path d="M69500 28500 L69000 28000" /> 
<path d="M66000 54000 L69000 54000" /> 
<path d="M57000 46500 L57500 46000" /> 
<path d="M57500 46000 L57500 42500" /> 
<path d="M57500 42500 L58000 42000" /> 
<path d="M58000 42000 L69500 42000" /> 
<path d="M57000 46500 L56400 46500" /> 
<path d="M69500 53500 L69500 42000" /> 
<path d="M69000 54000 L69500 53500" /> 
<path d="M64000 54000 L66000 54000" /> 
<path d="M47000 45400 L47000 48000" /> 
<path d="M47000 48000 L54500 48000" /> 
<path d="M54500 48000 L54500 47500" /> 
<path d="M54500 47500 L54600 47400" /> 
<path d="M54600 47400 L54600 46500" /> 
<path d="M60000 54000 L58000 54000" /> 
<path d="M58000 54000 L57500 53500" /> 
<path d="M57500 53500 L57500 48500" /> 
<path d="M57500 48500 L57000 48000" /> 
<path d="M57000 48000 L54500 48000" /> 
<path d="M62000 54000 L60000 54000" /> 
<path d="M49100 45500 L48500 45500" /> 
<path d="M48400 45400 L47000 45400" /> 
<path d="M48500 45500 L48400 45400" /> 
</g>
<g style="fill:#A00000; fill-opacity:0.0; 
  stroke:#A00000; stroke-linecap:round; stroke-linejoin:round; stroke-opacity:1.0; stroke-opacity:1.0; stroke-width:100" 
   transform="translate(0 0) scale(1 1)">
<path d="M70450 60450 L70450 60450" /> 
<path d="M69947 60450 L70450 60450" /> 
<path d="M69947 53500 L69947 60450" /> 
<path d="M69947 42000 L69947 53500" /> 
<path d="M69947 28500 L69947 42000" /> 
<path d="M69913 28329 L69947 28500" /> 
<path d="M69816 28184 L69913 28329" /> 
<path d="M69550 27918 L69816 28184" /> 
<path d="M69550 23710 L69550 27918" /> 
<path d="M69550 23292 L69550 23710" /> 
<path d="M69390 22906 L69550 23292" /> 
<path d="M69095 22610 L69390 22906" /> 
<path d="M68710 22450 L69095 22610" /> 
<path d="M68292 22450 L68710 22450" /> 
<path d="M67906 22610 L68292 22450" /> 
<path d="M67610 22905 L67906 22610" /> 
<path d="M67450 23290 L67610 22905" /> 
<path d="M67450 23708 L67450 23290" /> 
<path d="M67610 24094 L67450 23708" /> 
<path d="M67905 24390 L67610 24094" /> 
<path d="M68290 24550 L67905 24390" /> 
<path d="M68708 24550 L68290 24550" /> 
<path d="M69094 24390 L68708 24550" /> 
<path d="M69390 24095 L69094 24390" /> 
<path d="M69550 23710 L69390 24095" /> 
<path d="M69550 27918 L69550 23710" /> 
<path d="M69316 27684 L69550 27918" /> 
<path d="M69171 27587 L69316 27684" /> 
<path d="M69000 27553 L69171 27587" /> 
<path d="M43930 27553 L69000 27553" /> 
<path d="M43930 26967 L43930 27553" /> 
<path d="M43892 26875 L43930 26967" /> 
<path d="M43822 26805 L43892 26875" /> 
<path d="M43731 26767 L43822 26805" /> 
<path d="M43632 26767 L43731 26767" /> 
<path d="M42550 26767 L43632 26767" /> 
<path d="M42550 23710 L42550 26767" /> 
<path d="M42550 23292 L42550 23710" /> 
<path d="M42390 22906 L42550 23292" /> 
<path d="M42095 22610 L42390 22906" /> 
<path d="M41710 22450 L42095 22610" /> 
<path d="M41292 22450 L41710 22450" /> 
<path d="M40906 22610 L41292 22450" /> 
<path d="M40610 22905 L40906 22610" /> 
<path d="M40450 23290 L40610 22905" /> 
<path d="M40450 23708 L40450 23290" /> 
<path d="M40610 24094 L40450 23708" /> 
<path d="M40905 24390 L40610 24094" /> 
<path d="M41290 24550 L40905 24390" /> 
<path d="M41708 24550 L41290 24550" /> 
<path d="M42094 24390 L41708 24550" /> 
<path d="M42390 24095 L42094 24390" /> 
<path d="M42550 23710 L42390 24095" /> 
<path d="M42550 26767 L42550 23710" /> 
<path d="M41270 26767 L42550 26767" /> 
<path d="M41178 26805 L41270 26767" /> 
<path d="M41108 26875 L41178 26805" /> 
<path d="M41070 26966 L41108 26875" /> 
<path d="M41070 27065 L41070 26966" /> 
<path d="M41070 29033 L41070 27065" /> 
<path d="M41108 29125 L41070 29033" /> 
<path d="M41178 29195 L41108 29125" /> 
<path d="M41269 29233 L41178 29195" /> 
<path d="M41368 29233 L41269 29233" /> 
<path d="M43730 29233 L41368 29233" /> 
<path d="M43822 29195 L43730 29233" /> 
<path d="M43892 29125 L43822 29195" /> 
<path d="M43930 29034 L43892 29125" /> 
<path d="M43930 28935 L43930 29034" /> 
<path d="M43930 28447 L43930 28935" /> 
<path d="M68815 28447 L43930 28447" /> 
<path d="M69053 28685 L68815 28447" /> 
<path d="M69053 41553 L69053 28685" /> 
<path d="M64339 41553 L69053 41553" /> 
<path d="M64339 40534 L64339 41553" /> 
<path d="M64339 40435 L64339 40534" /> 
<path d="M64339 38467 L64339 40435" /> 
<path d="M64301 38375 L64339 38467" /> 
<path d="M64231 38305 L64301 38375" /> 
<path d="M64140 38267 L64231 38305" /> 
<path d="M64041 38267 L64140 38267" /> 
<path d="M63947 38267 L64041 38267" /> 
<path d="M63947 34500 L63947 38267" /> 
<path d="M63913 34329 L63947 34500" /> 
<path d="M63816 34184 L63913 34329" /> 
<path d="M63316 33684 L63816 34184" /> 
<path d="M63171 33587 L63316 33684" /> 
<path d="M63000 33553 L63171 33587" /> 
<path d="M53500 33553 L63000 33553" /> 
<path d="M46500 33553 L53500 33553" /> 
<path d="M43931 33553 L46500 33553" /> 
<path d="M43931 31112 L43931 33553" /> 
<path d="M43931 30888 L43931 31112" /> 
<path d="M43930 30065 L43931 30888" /> 
<path d="M43930 29966 L43930 30065" /> 
<path d="M43892 29875 L43930 29966" /> 
<path d="M43822 29805 L43892 29875" /> 
<path d="M43730 29767 L43822 29805" /> 
<path d="M42612 29766 L43730 29767" /> 
<path d="M42550 29828 L42612 29766" /> 
<path d="M42550 30950 L42550 29828" /> 
<path d="M43869 30950 L42550 30950" /> 
<path d="M43931 30888 L43869 30950" /> 
<path d="M43931 31112 L43931 30888" /> 
<path d="M43869 31050 L43931 31112" /> 
<path d="M42550 31050 L43869 31050" /> 
<path d="M42550 32172 L42550 31050" /> 
<path d="M42612 32234 L42550 32172" /> 
<path d="M43730 32233 L42612 32234" /> 
<path d="M43822 32195 L43730 32233" /> 
<path d="M43892 32125 L43822 32195" /> 
<path d="M43930 32034 L43892 32125" /> 
<path d="M43930 31935 L43930 32034" /> 
<path d="M43931 31112 L43930 31935" /> 
<path d="M43931 33553 L43931 31112" /> 
<path d="M43930 33553 L43931 33553" /> 
<path d="M43930 32967 L43930 33553" /> 
<path d="M43892 32875 L43930 32967" /> 
<path d="M43822 32805 L43892 32875" /> 
<path d="M43731 32767 L43822 32805" /> 
<path d="M43632 32767 L43731 32767" /> 
<path d="M42450 32767 L43632 32767" /> 
<path d="M42450 32172 L42450 32767" /> 
<path d="M42450 31050 L42450 32172" /> 
<path d="M42450 30950 L42450 31050" /> 
<path d="M42450 29828 L42450 30950" /> 
<path d="M42388 29766 L42450 29828" /> 
<path d="M41270 29767 L42388 29766" /> 
<path d="M41178 29805 L41270 29767" /> 
<path d="M41108 29875 L41178 29805" /> 
<path d="M41070 29966 L41108 29875" /> 
<path d="M41070 30065 L41070 29966" /> 
<path d="M41069 30888 L41070 30065" /> 
<path d="M41131 30950 L41069 30888" /> 
<path d="M42450 30950 L41131 30950" /> 
<path d="M42450 31050 L42450 30950" /> 
<path d="M41131 31050 L42450 31050" /> 
<path d="M41069 31112 L41131 31050" /> 
<path d="M41070 31935 L41069 31112" /> 
<path d="M41070 32034 L41070 31935" /> 
<path d="M41108 32125 L41070 32034" /> 
<path d="M41178 32195 L41108 32125" /> 
<path d="M41270 32233 L41178 32195" /> 
<path d="M42388 32234 L41270 32233" /> 
<path d="M42450 32172 L42388 32234" /> 
<path d="M42450 32767 L42450 32172" /> 
<path d="M41270 32767 L42450 32767" /> 
<path d="M41178 32805 L41270 32767" /> 
<path d="M41108 32875 L41178 32805" /> 
<path d="M41070 32966 L41108 32875" /> 
<path d="M41070 33065 L41070 32966" /> 
<path d="M41070 35033 L41070 33065" /> 
<path d="M41108 35125 L41070 35033" /> 
<path d="M41178 35195 L41108 35125" /> 
<path d="M41269 35233 L41178 35195" /> 
<path d="M41368 35233 L41269 35233" /> 
<path d="M43730 35233 L41368 35233" /> 
<path d="M43822 35195 L43730 35233" /> 
<path d="M43892 35125 L43822 35195" /> 
<path d="M43930 35034 L43892 35125" /> 
<path d="M43930 34935 L43930 35034" /> 
<path d="M43930 34447 L43930 34935" /> 
<path d="M46053 34447 L43930 34447" /> 
<path d="M46053 39315 L46053 34447" /> 
<path d="M45815 39553 L46053 39315" /> 
<path d="M43931 39553 L45815 39553" /> 
<path d="M43931 37112 L43931 39553" /> 
<path d="M43931 36888 L43931 37112" /> 
<path d="M43930 36065 L43931 36888" /> 
<path d="M43930 35966 L43930 36065" /> 
<path d="M43892 35875 L43930 35966" /> 
<path d="M43822 35805 L43892 35875" /> 
<path d="M43730 35767 L43822 35805" /> 
<path d="M42612 35766 L43730 35767" /> 
<path d="M42550 35828 L42612 35766" /> 
<path d="M42550 36950 L42550 35828" /> 
<path d="M43869 36950 L42550 36950" /> 
<path d="M43931 36888 L43869 36950" /> 
<path d="M43931 37112 L43931 36888" /> 
<path d="M43869 37050 L43931 37112" /> 
<path d="M42550 37050 L43869 37050" /> 
<path d="M42550 38172 L42550 37050" /> 
<path d="M42612 38234 L42550 38172" /> 
<path d="M43730 38233 L42612 38234" /> 
<path d="M43822 38195 L43730 38233" /> 
<path d="M43892 38125 L43822 38195" /> 
<path d="M43930 38034 L43892 38125" /> 
<path d="M43930 37935 L43930 38034" /> 
<path d="M43931 37112 L43930 37935" /> 
<path d="M43931 39553 L43931 37112" /> 
<path d="M43930 39553 L43931 39553" /> 
<path d="M43930 38967 L43930 39553" /> 
<path d="M43892 38875 L43930 38967" /> 
<path d="M43822 38805 L43892 38875" /> 
<path d="M43731 38767 L43822 38805" /> 
<path d="M43632 38767 L43731 38767" /> 
<path d="M42450 38767 L43632 38767" /> 
<path d="M42450 38172 L42450 38767" /> 
<path d="M42450 37050 L42450 38172" /> 
<path d="M42450 36950 L42450 37050" /> 
<path d="M42450 35828 L42450 36950" /> 
<path d="M42388 35766 L42450 35828" /> 
<path d="M41270 35767 L42388 35766" /> 
<path d="M41178 35805 L41270 35767" /> 
<path d="M41108 35875 L41178 35805" /> 
<path d="M41070 35966 L41108 35875" /> 
<path d="M41070 36065 L41070 35966" /> 
<path d="M41069 36888 L41070 36065" /> 
<path d="M41131 36950 L41069 36888" /> 
<path d="M42450 36950 L41131 36950" /> 
<path d="M42450 37050 L42450 36950" /> 
<path d="M41131 37050 L42450 37050" /> 
<path d="M41069 37112 L41131 37050" /> 
<path d="M41070 37935 L41069 37112" /> 
<path d="M41070 38034 L41070 37935" /> 
<path d="M41108 38125 L41070 38034" /> 
<path d="M41178 38195 L41108 38125" /> 
<path d="M41270 38233 L41178 38195" /> 
<path d="M42388 38234 L41270 38233" /> 
<path d="M42450 38172 L42388 38234" /> 
<path d="M42450 38767 L42450 38172" /> 
<path d="M41270 38767 L42450 38767" /> 
<path d="M41178 38805 L41270 38767" /> 
<path d="M41108 38875 L41178 38805" /> 
<path d="M41070 38966 L41108 38875" /> 
<path d="M41070 39065 L41070 38966" /> 
<path d="M41070 41033 L41070 39065" /> 
<path d="M41108 41125 L41070 41033" /> 
<path d="M41178 41195 L41108 41125" /> 
<path d="M41269 41233 L41178 41195" /> 
<path d="M41368 41233 L41269 41233" /> 
<path d="M43730 41233 L41368 41233" /> 
<path d="M43822 41195 L43730 41233" /> 
<path d="M43892 41125 L43822 41195" /> 
<path d="M43930 41034 L43892 41125" /> 
<path d="M43930 40935 L43930 41034" /> 
<path d="M43930 40447 L43930 40935" /> 
<path d="M46000 40447 L43930 40447" /> 
<path d="M46171 40413 L46000 40447" /> 
<path d="M46316 40316 L46171 40413" /> 
<path d="M46816 39816 L46316 40316" /> 
<path d="M46913 39671 L46816 39816" /> 
<path d="M46947 39500 L46913 39671" /> 
<path d="M46947 34447 L46947 39500" /> 
<path d="M53053 34447 L46947 34447" /> 
<path d="M53053 38267 L53053 34447" /> 
<path d="M52861 38267 L53053 38267" /> 
<path d="M52769 38305 L52861 38267" /> 
<path d="M52699 38375 L52769 38305" /> 
<path d="M52661 38466 L52699 38375" /> 
<path d="M52661 38565 L52661 38466" /> 
<path d="M52661 40533 L52661 38565" /> 
<path d="M52699 40625 L52661 40533" /> 
<path d="M52769 40695 L52699 40625" /> 
<path d="M52860 40733 L52769 40695" /> 
<path d="M52959 40733 L52860 40733" /> 
<path d="M53053 40733 L52959 40733" /> 
<path d="M53053 41315 L53053 40733" /> 
<path d="M52815 41553 L53053 41315" /> 
<path d="M52000 41553 L52815 41553" /> 
<path d="M50500 41553 L52000 41553" /> 
<path d="M50340 41553 L50500 41553" /> 
<path d="M50340 39612 L50340 41553" /> 
<path d="M50340 39388 L50340 39612" /> 
<path d="M50339 38467 L50340 39388" /> 
<path d="M50301 38375 L50339 38467" /> 
<path d="M50231 38305 L50301 38375" /> 
<path d="M50140 38267 L50231 38305" /> 
<path d="M50041 38267 L50140 38267" /> 
<path d="M49612 38266 L50041 38267" /> 
<path d="M49550 38328 L49612 38266" /> 
<path d="M49550 39450 L49550 38328" /> 
<path d="M50278 39450 L49550 39450" /> 
<path d="M50340 39388 L50278 39450" /> 
<path d="M50340 39612 L50340 39388" /> 
<path d="M50278 39550 L50340 39612" /> 
<path d="M49550 39550 L50278 39550" /> 
<path d="M49550 40672 L49550 39550" /> 
<path d="M49612 40734 L49550 40672" /> 
<path d="M50041 40733 L49612 40734" /> 
<path d="M50140 40733 L50041 40733" /> 
<path d="M50231 40695 L50140 40733" /> 
<path d="M50301 40625 L50231 40695" /> 
<path d="M50339 40533 L50301 40625" /> 
<path d="M50340 39612 L50339 40533" /> 
<path d="M50340 41553 L50340 39612" /> 
<path d="M49450 41553 L50340 41553" /> 
<path d="M49450 40672 L49450 41553" /> 
<path d="M49450 39550 L49450 40672" /> 
<path d="M49450 39450 L49450 39550" /> 
<path d="M49450 38328 L49450 39450" /> 
<path d="M49388 38266 L49450 38328" /> 
<path d="M48959 38267 L49388 38266" /> 
<path d="M48860 38267 L48959 38267" /> 
<path d="M48769 38305 L48860 38267" /> 
<path d="M48699 38375 L48769 38305" /> 
<path d="M48661 38467 L48699 38375" /> 
<path d="M48660 39388 L48661 38467" /> 
<path d="M48722 39450 L48660 39388" /> 
<path d="M49450 39450 L48722 39450" /> 
<path d="M49450 39550 L49450 39450" /> 
<path d="M48722 39550 L49450 39550" /> 
<path d="M48660 39612 L48722 39550" /> 
<path d="M48661 40533 L48660 39612" /> 
<path d="M48699 40625 L48661 40533" /> 
<path d="M48769 40695 L48699 40625" /> 
<path d="M48860 40733 L48769 40695" /> 
<path d="M48959 40733 L48860 40733" /> 
<path d="M49388 40734 L48959 40733" /> 
<path d="M49450 40672 L49388 40734" /> 
<path d="M49450 41553 L49450 40672" /> 
<path d="M47500 41553 L49450 41553" /> 
<path d="M47329 41587 L47500 41553" /> 
<path d="M47184 41684 L47329 41587" /> 
<path d="M46684 42184 L47184 41684" /> 
<path d="M46587 42329 L46684 42184" /> 
<path d="M46553 42500 L46587 42329" /> 
<path d="M46553 42564 L46553 42500" /> 
<path d="M45573 42564 L46553 42564" /> 
<path d="M45481 42602 L45573 42564" /> 
<path d="M45411 42672 L45481 42602" /> 
<path d="M45373 42763 L45411 42672" /> 
<path d="M45373 42862 L45373 42763" /> 
<path d="M45373 43153 L45373 42862" /> 
<path d="M44900 43153 L45373 43153" /> 
<path d="M44729 43187 L44900 43153" /> 
<path d="M44680 43219 L44729 43187" /> 
<path d="M44583 43284 L44680 43219" /> 
<path d="M44184 43684 L44583 43284" /> 
<path d="M44087 43829 L44184 43684" /> 
<path d="M44053 44000 L44087 43829" /> 
<path d="M44053 49148 L44053 44000" /> 
<path d="M44021 49180 L44053 49148" /> 
<path d="M43935 49387 L44021 49180" /> 
<path d="M43935 49612 L43935 49387" /> 
<path d="M44021 49820 L43935 49612" /> 
<path d="M44180 49979 L44021 49820" /> 
<path d="M44387 50065 L44180 49979" /> 
<path d="M44612 50065 L44387 50065" /> 
<path d="M44820 49979 L44612 50065" /> 
<path d="M44852 49947 L44820 49979" /> 
<path d="M45148 49947 L44852 49947" /> 
<path d="M45180 49979 L45148 49947" /> 
<path d="M45387 50065 L45180 49979" /> 
<path d="M45612 50065 L45387 50065" /> 
<path d="M45820 49979 L45612 50065" /> 
<path d="M45979 49820 L45820 49979" /> 
<path d="M46065 49613 L45979 49820" /> 
<path d="M46065 49388 L46065 49613" /> 
<path d="M45979 49180 L46065 49388" /> 
<path d="M45820 49021 L45979 49180" /> 
<path d="M45613 48935 L45820 49021" /> 
<path d="M45388 48935 L45613 48935" /> 
<path d="M45180 49021 L45388 48935" /> 
<path d="M45148 49053 L45180 49021" /> 
<path d="M44947 49053 L45148 49053" /> 
<path d="M44947 44185 L44947 49053" /> 
<path d="M45085 44047 L44947 44185" /> 
<path d="M45373 44047 L45085 44047" /> 
<path d="M45373 44436 L45373 44047" /> 
<path d="M45399 44499 L45373 44436" /> 
<path d="M45373 44563 L45399 44499" /> 
<path d="M45373 44662 L45373 44563" /> 
<path d="M45373 46236 L45373 44662" /> 
<path d="M45411 46328 L45373 46236" /> 
<path d="M45481 46398 L45411 46328" /> 
<path d="M45572 46436 L45481 46398" /> 
<path d="M45671 46436 L45572 46436" /> 
<path d="M46553 46436 L45671 46436" /> 
<path d="M46553 48000 L46553 46436" /> 
<path d="M46587 48171 L46553 48000" /> 
<path d="M46684 48316 L46587 48171" /> 
<path d="M46829 48413 L46684 48316" /> 
<path d="M47000 48447 L46829 48413" /> 
<path d="M54500 48447 L47000 48447" /> 
<path d="M56815 48447 L54500 48447" /> 
<path d="M57053 48685 L56815 48447" /> 
<path d="M57053 49358 L57053 48685" /> 
<path d="M56979 49180 L57053 49358" /> 
<path d="M56820 49021 L56979 49180" /> 
<path d="M56613 48935 L56820 49021" /> 
<path d="M56388 48935 L56613 48935" /> 
<path d="M56180 49021 L56388 48935" /> 
<path d="M56148 49053 L56180 49021" /> 
<path d="M55852 49053 L56148 49053" /> 
<path d="M55820 49021 L55852 49053" /> 
<path d="M55613 48935 L55820 49021" /> 
<path d="M55388 48935 L55613 48935" /> 
<path d="M55180 49021 L55388 48935" /> 
<path d="M55021 49180 L55180 49021" /> 
<path d="M54935 49387 L55021 49180" /> 
<path d="M54935 49612 L54935 49387" /> 
<path d="M55021 49820 L54935 49612" /> 
<path d="M55053 49852 L55021 49820" /> 
<path d="M55053 50315 L55053 49852" /> 
<path d="M54815 50553 L55053 50315" /> 
<path d="M43931 50553 L54815 50553" /> 
<path d="M43931 43112 L43931 50553" /> 
<path d="M43931 42888 L43931 43112" /> 
<path d="M43930 42065 L43931 42888" /> 
<path d="M43930 41966 L43930 42065" /> 
<path d="M43892 41875 L43930 41966" /> 
<path d="M43822 41805 L43892 41875" /> 
<path d="M43730 41767 L43822 41805" /> 
<path d="M42612 41766 L43730 41767" /> 
<path d="M42550 41828 L42612 41766" /> 
<path d="M42550 42950 L42550 41828" /> 
<path d="M43869 42950 L42550 42950" /> 
<path d="M43931 42888 L43869 42950" /> 
<path d="M43931 43112 L43931 42888" /> 
<path d="M43869 43050 L43931 43112" /> 
<path d="M42550 43050 L43869 43050" /> 
<path d="M42550 44172 L42550 43050" /> 
<path d="M42612 44234 L42550 44172" /> 
<path d="M43730 44233 L42612 44234" /> 
<path d="M43822 44195 L43730 44233" /> 
<path d="M43892 44125 L43822 44195" /> 
<path d="M43930 44034 L43892 44125" /> 
<path d="M43930 43935 L43930 44034" /> 
<path d="M43931 43112 L43930 43935" /> 
<path d="M43931 50553 L43931 43112" /> 
<path d="M43930 50553 L43931 50553" /> 
<path d="M43930 49967 L43930 50553" /> 
<path d="M43892 49875 L43930 49967" /> 
<path d="M43822 49805 L43892 49875" /> 
<path d="M43731 49767 L43822 49805" /> 
<path d="M43632 49767 L43731 49767" /> 
<path d="M42450 49767 L43632 49767" /> 
<path d="M42450 44172 L42450 49767" /> 
<path d="M42450 43050 L42450 44172" /> 
<path d="M42450 42950 L42450 43050" /> 
<path d="M42450 41828 L42450 42950" /> 
<path d="M42388 41766 L42450 41828" /> 
<path d="M41270 41767 L42388 41766" /> 
<path d="M41178 41805 L41270 41767" /> 
<path d="M41108 41875 L41178 41805" /> 
<path d="M41070 41966 L41108 41875" /> 
<path d="M41070 42065 L41070 41966" /> 
<path d="M41069 42888 L41070 42065" /> 
<path d="M41131 42950 L41069 42888" /> 
<path d="M42450 42950 L41131 42950" /> 
<path d="M42450 43050 L42450 42950" /> 
<path d="M41131 43050 L42450 43050" /> 
<path d="M41069 43112 L41131 43050" /> 
<path d="M41070 43935 L41069 43112" /> 
<path d="M41070 44034 L41070 43935" /> 
<path d="M41108 44125 L41070 44034" /> 
<path d="M41178 44195 L41108 44125" /> 
<path d="M41270 44233 L41178 44195" /> 
<path d="M42388 44234 L41270 44233" /> 
<path d="M42450 44172 L42388 44234" /> 
<path d="M42450 49767 L42450 44172" /> 
<path d="M41270 49767 L42450 49767" /> 
<path d="M41178 49805 L41270 49767" /> 
<path d="M41108 49875 L41178 49805" /> 
<path d="M41070 49966 L41108 49875" /> 
<path d="M41070 50065 L41070 49966" /> 
<path d="M41070 52033 L41070 50065" /> 
<path d="M41108 52125 L41070 52033" /> 
<path d="M41178 52195 L41108 52125" /> 
<path d="M41269 52233 L41178 52195" /> 
<path d="M41368 52233 L41269 52233" /> 
<path d="M43730 52233 L41368 52233" /> 
<path d="M43822 52195 L43730 52233" /> 
<path d="M43892 52125 L43822 52195" /> 
<path d="M43930 52034 L43892 52125" /> 
<path d="M43930 51935 L43930 52034" /> 
<path d="M43930 51447 L43930 51935" /> 
<path d="M55000 51447 L43930 51447" /> 
<path d="M55171 51413 L55000 51447" /> 
<path d="M55316 51316 L55171 51413" /> 
<path d="M55816 50816 L55316 51316" /> 
<path d="M55913 50671 L55816 50816" /> 
<path d="M55947 50500 L55913 50671" /> 
<path d="M55947 49947 L55947 50500" /> 
<path d="M56148 49947 L55947 49947" /> 
<path d="M56180 49979 L56148 49947" /> 
<path d="M56387 50065 L56180 49979" /> 
<path d="M56612 50065 L56387 50065" /> 
<path d="M56820 49979 L56612 50065" /> 
<path d="M56979 49820 L56820 49979" /> 
<path d="M57053 49641 L56979 49820" /> 
<path d="M57053 53500 L57053 49641" /> 
<path d="M57087 53671 L57053 53500" /> 
<path d="M57184 53816 L57087 53671" /> 
<path d="M57684 54316 L57184 53816" /> 
<path d="M57829 54413 L57684 54316" /> 
<path d="M58000 54447 L57829 54413" /> 
<path d="M59163 54447 L58000 54447" /> 
<path d="M59199 54534 L59163 54447" /> 
<path d="M59269 54604 L59199 54534" /> 
<path d="M59360 54642 L59269 54604" /> 
<path d="M59459 54642 L59360 54642" /> 
<path d="M60639 54642 L59459 54642" /> 
<path d="M60731 54604 L60639 54642" /> 
<path d="M60801 54534 L60731 54604" /> 
<path d="M60837 54447 L60801 54534" /> 
<path d="M61358 54447 L60837 54447" /> 
<path d="M61358 54836 L61358 54447" /> 
<path d="M61396 54928 L61358 54836" /> 
<path d="M61466 54998 L61396 54928" /> 
<path d="M61557 55036 L61466 54998" /> 
<path d="M61656 55036 L61557 55036" /> 
<path d="M62442 55036 L61656 55036" /> 
<path d="M62499 55012 L62442 55036" /> 
<path d="M62557 55036 L62499 55012" /> 
<path d="M62656 55036 L62557 55036" /> 
<path d="M62888 55037 L62656 55036" /> 
<path d="M62950 54975 L62888 55037" /> 
<path d="M62950 54100 L62950 54975" /> 
<path d="M62950 54050 L62950 54100" /> 
<path d="M62950 53950 L62950 54050" /> 
<path d="M62950 53900 L62950 53950" /> 
<path d="M62950 53025 L62950 53900" /> 
<path d="M62888 52963 L62950 53025" /> 
<path d="M62656 52964 L62888 52963" /> 
<path d="M62557 52964 L62656 52964" /> 
<path d="M62500 52987 L62557 52964" /> 
<path d="M62443 52964 L62500 52987" /> 
<path d="M62344 52964 L62443 52964" /> 
<path d="M61558 52964 L62344 52964" /> 
<path d="M61466 53002 L61558 52964" /> 
<path d="M61396 53072 L61466 53002" /> 
<path d="M61358 53163 L61396 53072" /> 
<path d="M61358 53262 L61358 53163" /> 
<path d="M61358 53553 L61358 53262" /> 
<path d="M60836 53553 L61358 53553" /> 
<path d="M60801 53466 L60836 53553" /> 
<path d="M60731 53396 L60801 53466" /> 
<path d="M60640 53358 L60731 53396" /> 
<path d="M60541 53358 L60640 53358" /> 
<path d="M59361 53358 L60541 53358" /> 
<path d="M59269 53396 L59361 53358" /> 
<path d="M59199 53466 L59269 53396" /> 
<path d="M59162 53553 L59199 53466" /> 
<path d="M58185 53553 L59162 53553" /> 
<path d="M57947 53315 L58185 53553" /> 
<path d="M57947 51544 L57947 53315" /> 
<path d="M58029 51579 L57947 51544" /> 
<path d="M58128 51579 L58029 51579" /> 
<path d="M62888 51580 L58128 51579" /> 
<path d="M62950 51518 L62888 51580" /> 
<path d="M62950 47050 L62950 51518" /> 
<path d="M57891 47050 L62950 47050" /> 
<path d="M57829 47112 L57891 47050" /> 
<path d="M57829 48203 L57829 47112" /> 
<path d="M57816 48184 L57829 48203" /> 
<path d="M57316 47684 L57816 48184" /> 
<path d="M57171 47587 L57316 47684" /> 
<path d="M57000 47553 L57171 47587" /> 
<path d="M55016 47553 L57000 47553" /> 
<path d="M55047 47400 L55016 47553" /> 
<path d="M55047 47318 L55047 47400" /> 
<path d="M55066 47311 L55047 47318" /> 
<path d="M55136 47241 L55066 47311" /> 
<path d="M55174 47150 L55136 47241" /> 
<path d="M55174 47051 L55174 47150" /> 
<path d="M55174 45851 L55174 47051" /> 
<path d="M55136 45759 L55174 45851" /> 
<path d="M55066 45689 L55136 45759" /> 
<path d="M54975 45651 L55066 45689" /> 
<path d="M54876 45651 L54975 45651" /> 
<path d="M54226 45651 L54876 45651" /> 
<path d="M54134 45689 L54226 45651" /> 
<path d="M54064 45759 L54134 45689" /> 
<path d="M54026 45850 L54064 45759" /> 
<path d="M54026 45949 L54026 45850" /> 
<path d="M54026 47149 L54026 45949" /> 
<path d="M54064 47241 L54026 47149" /> 
<path d="M54113 47290 L54064 47241" /> 
<path d="M54087 47329 L54113 47290" /> 
<path d="M54053 47500 L54087 47329" /> 
<path d="M54053 47553 L54053 47500" /> 
<path d="M47447 47553 L54053 47553" /> 
<path d="M47447 46436 L47447 47553" /> 
<path d="M48427 46436 L47447 46436" /> 
<path d="M48519 46398 L48427 46436" /> 
<path d="M48589 46328 L48519 46398" /> 
<path d="M48627 46237 L48589 46328" /> 
<path d="M48627 46138 L48627 46237" /> 
<path d="M48627 45947 L48627 46138" /> 
<path d="M49100 45947 L48627 45947" /> 
<path d="M49190 45929 L49100 45947" /> 
<path d="M49329 45929 L49190 45929" /> 
<path d="M49421 45891 L49329 45929" /> 
<path d="M49454 45857 L49421 45891" /> 
<path d="M49471 45940 L49454 45857" /> 
<path d="M49471 46079 L49471 45940" /> 
<path d="M49509 46171 L49471 46079" /> 
<path d="M49579 46241 L49509 46171" /> 
<path d="M49670 46279 L49579 46241" /> 
<path d="M49769 46279 L49670 46279" /> 
<path d="M49809 46279 L49769 46279" /> 
<path d="M49900 46297 L49809 46279" /> 
<path d="M50350 46297 L49900 46297" /> 
<path d="M50521 46263 L50350 46297" /> 
<path d="M50666 46166 L50521 46263" /> 
<path d="M50767 46065 L50666 46166" /> 
<path d="M50767 46139 L50767 46065" /> 
<path d="M50805 46231 L50767 46139" /> 
<path d="M50875 46301 L50805 46231" /> 
<path d="M50966 46339 L50875 46301" /> 
<path d="M51065 46339 L50966 46339" /> 
<path d="M53033 46339 L51065 46339" /> 
<path d="M53125 46301 L53033 46339" /> 
<path d="M53195 46231 L53125 46301" /> 
<path d="M53233 46140 L53195 46231" /> 
<path d="M53233 46041 L53233 46140" /> 
<path d="M53233 45871 L53233 46041" /> 
<path d="M53316 45816 L53233 45871" /> 
<path d="M53816 45316 L53316 45816" /> 
<path d="M53913 45171 L53816 45316" /> 
<path d="M53947 45000 L53913 45171" /> 
<path d="M53947 44685 L53947 45000" /> 
<path d="M54051 44581 L53947 44685" /> 
<path d="M54051 45249 L54051 44581" /> 
<path d="M54089 45341 L54051 45249" /> 
<path d="M54159 45411 L54089 45341" /> 
<path d="M54250 45449 L54159 45411" /> 
<path d="M54349 45449 L54250 45449" /> 
<path d="M56749 45449 L54349 45449" /> 
<path d="M56841 45411 L56749 45449" /> 
<path d="M56911 45341 L56841 45411" /> 
<path d="M56949 45250 L56911 45341" /> 
<path d="M56949 45151 L56949 45250" /> 
<path d="M56949 42751 L56949 45151" /> 
<path d="M56911 42659 L56949 42751" /> 
<path d="M56841 42589 L56911 42659" /> 
<path d="M56750 42551 L56841 42589" /> 
<path d="M56651 42551 L56750 42551" /> 
<path d="M54251 42551 L56651 42551" /> 
<path d="M54159 42589 L54251 42551" /> 
<path d="M54089 42659 L54159 42589" /> 
<path d="M54051 42750 L54089 42659" /> 
<path d="M54051 42849 L54051 42750" /> 
<path d="M54051 43553 L54051 42849" /> 
<path d="M54000 43553 L54051 43553" /> 
<path d="M53829 43587 L54000 43553" /> 
<path d="M53684 43684 L53829 43587" /> 
<path d="M53233 44135 L53684 43684" /> 
<path d="M53233 44041 L53233 44135" /> 
<path d="M53233 42861 L53233 44041" /> 
<path d="M53195 42769 L53233 42861" /> 
<path d="M53125 42699 L53195 42769" /> 
<path d="M53034 42661 L53125 42699" /> 
<path d="M52935 42661 L53034 42661" /> 
<path d="M52447 42661 L52935 42661" /> 
<path d="M52447 42447 L52447 42661" /> 
<path d="M53000 42447 L52447 42447" /> 
<path d="M53171 42413 L53000 42447" /> 
<path d="M53316 42316 L53171 42413" /> 
<path d="M53816 41816 L53316 42316" /> 
<path d="M53913 41671 L53816 41816" /> 
<path d="M53947 41500 L53913 41671" /> 
<path d="M53947 40733 L53947 41500" /> 
<path d="M54139 40733 L53947 40733" /> 
<path d="M54231 40695 L54139 40733" /> 
<path d="M54301 40625 L54231 40695" /> 
<path d="M54339 40534 L54301 40625" /> 
<path d="M54339 40435 L54339 40534" /> 
<path d="M54339 38467 L54339 40435" /> 
<path d="M54301 38375 L54339 38467" /> 
<path d="M54231 38305 L54301 38375" /> 
<path d="M54140 38267 L54231 38305" /> 
<path d="M54041 38267 L54140 38267" /> 
<path d="M53947 38267 L54041 38267" /> 
<path d="M53947 34447 L53947 38267" /> 
<path d="M62815 34447 L53947 34447" /> 
<path d="M63053 34685 L62815 34447" /> 
<path d="M63053 38267 L63053 34685" /> 
<path d="M62861 38267 L63053 38267" /> 
<path d="M62769 38305 L62861 38267" /> 
<path d="M62699 38375 L62769 38305" /> 
<path d="M62661 38466 L62699 38375" /> 
<path d="M62661 38565 L62661 38466" /> 
<path d="M62661 40533 L62661 38565" /> 
<path d="M62699 40625 L62661 40533" /> 
<path d="M62769 40695 L62699 40625" /> 
<path d="M62860 40733 L62769 40695" /> 
<path d="M62959 40733 L62860 40733" /> 
<path d="M64139 40733 L62959 40733" /> 
<path d="M64231 40695 L64139 40733" /> 
<path d="M64301 40625 L64231 40695" /> 
<path d="M64339 40534 L64301 40625" /> 
<path d="M64339 41553 L64339 40534" /> 
<path d="M60340 41553 L64339 41553" /> 
<path d="M60340 39612 L60340 41553" /> 
<path d="M60340 39388 L60340 39612" /> 
<path d="M60339 38467 L60340 39388" /> 
<path d="M60301 38375 L60339 38467" /> 
<path d="M60231 38305 L60301 38375" /> 
<path d="M60140 38267 L60231 38305" /> 
<path d="M60041 38267 L60140 38267" /> 
<path d="M59612 38266 L60041 38267" /> 
<path d="M59550 38328 L59612 38266" /> 
<path d="M59550 39450 L59550 38328" /> 
<path d="M60278 39450 L59550 39450" /> 
<path d="M60340 39388 L60278 39450" /> 
<path d="M60340 39612 L60340 39388" /> 
<path d="M60278 39550 L60340 39612" /> 
<path d="M59550 39550 L60278 39550" /> 
<path d="M59550 40672 L59550 39550" /> 
<path d="M59612 40734 L59550 40672" /> 
<path d="M60041 40733 L59612 40734" /> 
<path d="M60140 40733 L60041 40733" /> 
<path d="M60231 40695 L60140 40733" /> 
<path d="M60301 40625 L60231 40695" /> 
<path d="M60339 40533 L60301 40625" /> 
<path d="M60340 39612 L60339 40533" /> 
<path d="M60340 41553 L60340 39612" /> 
<path d="M59450 41553 L60340 41553" /> 
<path d="M59450 40672 L59450 41553" /> 
<path d="M59450 39550 L59450 40672" /> 
<path d="M59450 39450 L59450 39550" /> 
<path d="M59450 38328 L59450 39450" /> 
<path d="M59388 38266 L59450 38328" /> 
<path d="M58959 38267 L59388 38266" /> 
<path d="M58860 38267 L58959 38267" /> 
<path d="M58769 38305 L58860 38267" /> 
<path d="M58699 38375 L58769 38305" /> 
<path d="M58661 38467 L58699 38375" /> 
<path d="M58660 39388 L58661 38467" /> 
<path d="M58722 39450 L58660 39388" /> 
<path d="M59450 39450 L58722 39450" /> 
<path d="M59450 39550 L59450 39450" /> 
<path d="M58722 39550 L59450 39550" /> 
<path d="M58660 39612 L58722 39550" /> 
<path d="M58661 40533 L58660 39612" /> 
<path d="M58699 40625 L58661 40533" /> 
<path d="M58769 40695 L58699 40625" /> 
<path d="M58860 40733 L58769 40695" /> 
<path d="M58959 40733 L58860 40733" /> 
<path d="M59388 40734 L58959 40733" /> 
<path d="M59450 40672 L59388 40734" /> 
<path d="M59450 41553 L59450 40672" /> 
<path d="M58000 41553 L59450 41553" /> 
<path d="M57829 41587 L58000 41553" /> 
<path d="M57684 41684 L57829 41587" /> 
<path d="M57184 42184 L57684 41684" /> 
<path d="M57087 42329 L57184 42184" /> 
<path d="M57053 42500 L57087 42329" /> 
<path d="M57053 45815 L57053 42500" /> 
<path d="M56974 45894 L57053 45815" /> 
<path d="M56974 45851 L56974 45894" /> 
<path d="M56936 45759 L56974 45851" /> 
<path d="M56866 45689 L56936 45759" /> 
<path d="M56775 45651 L56866 45689" /> 
<path d="M56676 45651 L56775 45651" /> 
<path d="M56026 45651 L56676 45651" /> 
<path d="M55934 45689 L56026 45651" /> 
<path d="M55864 45759 L55934 45689" /> 
<path d="M55826 45850 L55864 45759" /> 
<path d="M55826 45949 L55826 45850" /> 
<path d="M55826 47149 L55826 45949" /> 
<path d="M55864 47241 L55826 47149" /> 
<path d="M55934 47311 L55864 47241" /> 
<path d="M56025 47349 L55934 47311" /> 
<path d="M56124 47349 L56025 47349" /> 
<path d="M56774 47349 L56124 47349" /> 
<path d="M56866 47311 L56774 47349" /> 
<path d="M56936 47241 L56866 47311" /> 
<path d="M56974 47150 L56936 47241" /> 
<path d="M56974 47051 L56974 47150" /> 
<path d="M56974 46947 L56974 47051" /> 
<path d="M57000 46947 L56974 46947" /> 
<path d="M57171 46913 L57000 46947" /> 
<path d="M57316 46816 L57171 46913" /> 
<path d="M57816 46316 L57316 46816" /> 
<path d="M57829 46296 L57816 46316" /> 
<path d="M57829 46888 L57829 46296" /> 
<path d="M57891 46950 L57829 46888" /> 
<path d="M62900 46950 L57891 46950" /> 
<path d="M62950 46950 L62900 46950" /> 
<path d="M63050 46950 L62950 46950" /> 
<path d="M63100 46950 L63050 46950" /> 
<path d="M68109 46950 L63100 46950" /> 
<path d="M68171 46888 L68109 46950" /> 
<path d="M68170 42621 L68171 46888" /> 
<path d="M68132 42529 L68170 42621" /> 
<path d="M68062 42459 L68132 42529" /> 
<path d="M68033 42447 L68062 42459" /> 
<path d="M69053 42447 L68033 42447" /> 
<path d="M69053 53315 L69053 42447" /> 
<path d="M68815 53553 L69053 53315" /> 
<path d="M68171 53553 L68815 53553" /> 
<path d="M68171 47112 L68171 53553" /> 
<path d="M68109 47050 L68171 47112" /> 
<path d="M63050 47050 L68109 47050" /> 
<path d="M63050 51518 L63050 47050" /> 
<path d="M63112 51580 L63050 51518" /> 
<path d="M67872 51579 L63112 51580" /> 
<path d="M67971 51579 L67872 51579" /> 
<path d="M68062 51541 L67971 51579" /> 
<path d="M68132 51471 L68062 51541" /> 
<path d="M68170 51379 L68132 51471" /> 
<path d="M68171 47112 L68170 51379" /> 
<path d="M68171 53553 L68171 47112" /> 
<path d="M66836 53553 L68171 53553" /> 
<path d="M66801 53466 L66836 53553" /> 
<path d="M66731 53396 L66801 53466" /> 
<path d="M66640 53358 L66731 53396" /> 
<path d="M66541 53358 L66640 53358" /> 
<path d="M65361 53358 L66541 53358" /> 
<path d="M65269 53396 L65361 53358" /> 
<path d="M65199 53466 L65269 53396" /> 
<path d="M65162 53553 L65199 53466" /> 
<path d="M64642 53553 L65162 53553" /> 
<path d="M64642 53164 L64642 53553" /> 
<path d="M64604 53072 L64642 53164" /> 
<path d="M64534 53002 L64604 53072" /> 
<path d="M64443 52964 L64534 53002" /> 
<path d="M64344 52964 L64443 52964" /> 
<path d="M63558 52964 L64344 52964" /> 
<path d="M63500 52987 L63558 52964" /> 
<path d="M63443 52964 L63500 52987" /> 
<path d="M63344 52964 L63443 52964" /> 
<path d="M63112 52963 L63344 52964" /> 
<path d="M63050 53025 L63112 52963" /> 
<path d="M63050 53900 L63050 53025" /> 
<path d="M63050 53950 L63050 53900" /> 
<path d="M63050 54050 L63050 53950" /> 
<path d="M63050 54100 L63050 54050" /> 
<path d="M63050 54975 L63050 54100" /> 
<path d="M63112 55037 L63050 54975" /> 
<path d="M63344 55036 L63112 55037" /> 
<path d="M63443 55036 L63344 55036" /> 
<path d="M63500 55012 L63443 55036" /> 
<path d="M63557 55036 L63500 55012" /> 
<path d="M63656 55036 L63557 55036" /> 
<path d="M64442 55036 L63656 55036" /> 
<path d="M64534 54998 L64442 55036" /> 
<path d="M64604 54928 L64534 54998" /> 
<path d="M64642 54837 L64604 54928" /> 
<path d="M64642 54738 L64642 54837" /> 
<path d="M64642 54447 L64642 54738" /> 
<path d="M65163 54447 L64642 54447" /> 
<path d="M65199 54534 L65163 54447" /> 
<path d="M65269 54604 L65199 54534" /> 
<path d="M65360 54642 L65269 54604" /> 
<path d="M65459 54642 L65360 54642" /> 
<path d="M66639 54642 L65459 54642" /> 
<path d="M66731 54604 L66639 54642" /> 
<path d="M66801 54534 L66731 54604" /> 
<path d="M66837 54447 L66801 54534" /> 
<path d="M69000 54447 L66837 54447" /> 
<path d="M69171 54413 L69000 54447" /> 
<path d="M69316 54316 L69171 54413" /> 
<path d="M69816 53816 L69316 54316" /> 
<path d="M69913 53671 L69816 53816" /> 
<path d="M69947 53500 L69913 53671" /> 
<path d="M69947 60450 L69947 53500" /> 
<path d="M69550 60450 L69947 60450" /> 
<path d="M69550 58710 L69550 60450" /> 
<path d="M69550 58292 L69550 58710" /> 
<path d="M69390 57906 L69550 58292" /> 
<path d="M69095 57610 L69390 57906" /> 
<path d="M68710 57450 L69095 57610" /> 
<path d="M68292 57450 L68710 57450" /> 
<path d="M67906 57610 L68292 57450" /> 
<path d="M67610 57905 L67906 57610" /> 
<path d="M67450 58290 L67610 57905" /> 
<path d="M67450 58708 L67450 58290" /> 
<path d="M67610 59094 L67450 58708" /> 
<path d="M67905 59390 L67610 59094" /> 
<path d="M68290 59550 L67905 59390" /> 
<path d="M68708 59550 L68290 59550" /> 
<path d="M69094 59390 L68708 59550" /> 
<path d="M69390 59095 L69094 59390" /> 
<path d="M69550 58710 L69390 59095" /> 
<path d="M69550 60450 L69550 58710" /> 
<path d="M66840 60450 L69550 60450" /> 
<path d="M66840 56112 L66840 60450" /> 
<path d="M66840 55888 L66840 56112" /> 
<path d="M66839 55558 L66840 55888" /> 
<path d="M66801 55466 L66839 55558" /> 
<path d="M66731 55396 L66801 55466" /> 
<path d="M66640 55358 L66731 55396" /> 
<path d="M66541 55358 L66640 55358" /> 
<path d="M66112 55357 L66541 55358" /> 
<path d="M66050 55419 L66112 55357" /> 
<path d="M66050 55950 L66050 55419" /> 
<path d="M66778 55950 L66050 55950" /> 
<path d="M66840 55888 L66778 55950" /> 
<path d="M66840 56112 L66840 55888" /> 
<path d="M66778 56050 L66840 56112" /> 
<path d="M66050 56050 L66778 56050" /> 
<path d="M66050 56581 L66050 56050" /> 
<path d="M66112 56643 L66050 56581" /> 
<path d="M66541 56642 L66112 56643" /> 
<path d="M66640 56642 L66541 56642" /> 
<path d="M66731 56604 L66640 56642" /> 
<path d="M66801 56534 L66731 56604" /> 
<path d="M66839 56442 L66801 56534" /> 
<path d="M66840 56112 L66839 56442" /> 
<path d="M66840 60450 L66840 56112" /> 
<path d="M66096 60450 L66840 60450" /> 
<path d="M66096 60110 L66096 60450" /> 
<path d="M66096 57010 L66096 60110" /> 
<path d="M65950 57010 L66096 57010" /> 
<path d="M65950 56581 L65950 57010" /> 
<path d="M65950 56050 L65950 56581" /> 
<path d="M65950 55950 L65950 56050" /> 
<path d="M65950 55419 L65950 55950" /> 
<path d="M65888 55357 L65950 55419" /> 
<path d="M65459 55358 L65888 55357" /> 
<path d="M65360 55358 L65459 55358" /> 
<path d="M65269 55396 L65360 55358" /> 
<path d="M65199 55466 L65269 55396" /> 
<path d="M65161 55558 L65199 55466" /> 
<path d="M65160 55888 L65161 55558" /> 
<path d="M65222 55950 L65160 55888" /> 
<path d="M65950 55950 L65222 55950" /> 
<path d="M65950 56050 L65950 55950" /> 
<path d="M65222 56050 L65950 56050" /> 
<path d="M65160 56112 L65222 56050" /> 
<path d="M65161 56442 L65160 56112" /> 
<path d="M65199 56534 L65161 56442" /> 
<path d="M65269 56604 L65199 56534" /> 
<path d="M65360 56642 L65269 56604" /> 
<path d="M65459 56642 L65360 56642" /> 
<path d="M65888 56643 L65459 56642" /> 
<path d="M65950 56581 L65888 56643" /> 
<path d="M65950 57010 L65950 56581" /> 
<path d="M60840 57010 L65950 57010" /> 
<path d="M60840 56112 L60840 57010" /> 
<path d="M60840 55888 L60840 56112" /> 
<path d="M60839 55558 L60840 55888" /> 
<path d="M60801 55466 L60839 55558" /> 
<path d="M60731 55396 L60801 55466" /> 
<path d="M60640 55358 L60731 55396" /> 
<path d="M60541 55358 L60640 55358" /> 
<path d="M60112 55357 L60541 55358" /> 
<path d="M60050 55419 L60112 55357" /> 
<path d="M60050 55950 L60050 55419" /> 
<path d="M60778 55950 L60050 55950" /> 
<path d="M60840 55888 L60778 55950" /> 
<path d="M60840 56112 L60840 55888" /> 
<path d="M60778 56050 L60840 56112" /> 
<path d="M60050 56050 L60778 56050" /> 
<path d="M60050 56581 L60050 56050" /> 
<path d="M60112 56643 L60050 56581" /> 
<path d="M60541 56642 L60112 56643" /> 
<path d="M60640 56642 L60541 56642" /> 
<path d="M60731 56604 L60640 56642" /> 
<path d="M60801 56534 L60731 56604" /> 
<path d="M60839 56442 L60801 56534" /> 
<path d="M60840 56112 L60839 56442" /> 
<path d="M60840 57010 L60840 56112" /> 
<path d="M59950 57010 L60840 57010" /> 
<path d="M59950 56581 L59950 57010" /> 
<path d="M59950 56050 L59950 56581" /> 
<path d="M59950 55950 L59950 56050" /> 
<path d="M59950 55419 L59950 55950" /> 
<path d="M59888 55357 L59950 55419" /> 
<path d="M59459 55358 L59888 55357" /> 
<path d="M59360 55358 L59459 55358" /> 
<path d="M59269 55396 L59360 55358" /> 
<path d="M59199 55466 L59269 55396" /> 
<path d="M59161 55558 L59199 55466" /> 
<path d="M59160 55888 L59161 55558" /> 
<path d="M59222 55950 L59160 55888" /> 
<path d="M59950 55950 L59222 55950" /> 
<path d="M59950 56050 L59950 55950" /> 
<path d="M59222 56050 L59950 56050" /> 
<path d="M59160 56112 L59222 56050" /> 
<path d="M59161 56442 L59160 56112" /> 
<path d="M59199 56534 L59161 56442" /> 
<path d="M59269 56604 L59199 56534" /> 
<path d="M59360 56642 L59269 56604" /> 
<path d="M59459 56642 L59360 56642" /> 
<path d="M59888 56643 L59459 56642" /> 
<path d="M59950 56581 L59888 56643" /> 
<path d="M59950 57010 L59950 56581" /> 
<path d="M59784 57010 L59950 57010" /> 
<path d="M59784 60110 L59784 57010" /> 
<path d="M66096 60110 L59784 60110" /> 
<path d="M66096 60450 L66096 60110" /> 
<path d="M57058 60450 L66096 60450" /> 
<path d="M57058 59583 L57058 60450" /> 
<path d="M57047 59363 L57058 59583" /> 
<path d="M56984 59210 L57047 59363" /> 
<path d="M56889 59182 L56984 59210" /> 
<path d="M56818 59253 L56889 59182" /> 
<path d="M56818 59111 L56818 59253" /> 
<path d="M56790 59016 L56818 59111" /> 
<path d="M56583 58942 L56790 59016" /> 
<path d="M56363 58953 L56583 58942" /> 
<path d="M56210 59016 L56363 58953" /> 
<path d="M56182 59111 L56210 59016" /> 
<path d="M56500 59429 L56182 59111" /> 
<path d="M56818 59111 L56500 59429" /> 
<path d="M56818 59253 L56818 59111" /> 
<path d="M56571 59500 L56818 59253" /> 
<path d="M56889 59818 L56571 59500" /> 
<path d="M56984 59790 L56889 59818" /> 
<path d="M57058 59583 L56984 59790" /> 
<path d="M57058 60450 L57058 59583" /> 
<path d="M56818 60450 L57058 60450" /> 
<path d="M56818 59889 L56818 60450" /> 
<path d="M56500 59571 L56818 59889" /> 
<path d="M56429 59642 L56500 59571" /> 
<path d="M56429 59500 L56429 59642" /> 
<path d="M56111 59182 L56429 59500" /> 
<path d="M56016 59210 L56111 59182" /> 
<path d="M56001 59251 L56016 59210" /> 
<path d="M55984 59210 L56001 59251" /> 
<path d="M55889 59182 L55984 59210" /> 
<path d="M55818 59253 L55889 59182" /> 
<path d="M55818 59111 L55818 59253" /> 
<path d="M55790 59016 L55818 59111" /> 
<path d="M55583 58942 L55790 59016" /> 
<path d="M55363 58953 L55583 58942" /> 
<path d="M55210 59016 L55363 58953" /> 
<path d="M55182 59111 L55210 59016" /> 
<path d="M55500 59429 L55182 59111" /> 
<path d="M55818 59111 L55500 59429" /> 
<path d="M55818 59253 L55818 59111" /> 
<path d="M55571 59500 L55818 59253" /> 
<path d="M55889 59818 L55571 59500" /> 
<path d="M55984 59790 L55889 59818" /> 
<path d="M55998 59748 L55984 59790" /> 
<path d="M56016 59790 L55998 59748" /> 
<path d="M56111 59818 L56016 59790" /> 
<path d="M56429 59500 L56111 59818" /> 
<path d="M56429 59642 L56429 59500" /> 
<path d="M56182 59889 L56429 59642" /> 
<path d="M56210 59984 L56182 59889" /> 
<path d="M56417 60058 L56210 59984" /> 
<path d="M56637 60047 L56417 60058" /> 
<path d="M56790 59984 L56637 60047" /> 
<path d="M56818 59889 L56790 59984" /> 
<path d="M56818 60450 L56818 59889" /> 
<path d="M55818 60450 L56818 60450" /> 
<path d="M55818 59889 L55818 60450" /> 
<path d="M55500 59571 L55818 59889" /> 
<path d="M55429 59642 L55500 59571" /> 
<path d="M55429 59500 L55429 59642" /> 
<path d="M55111 59182 L55429 59500" /> 
<path d="M55016 59210 L55111 59182" /> 
<path d="M54942 59417 L55016 59210" /> 
<path d="M54953 59637 L54942 59417" /> 
<path d="M55016 59790 L54953 59637" /> 
<path d="M55111 59818 L55016 59790" /> 
<path d="M55429 59500 L55111 59818" /> 
<path d="M55429 59642 L55429 59500" /> 
<path d="M55182 59889 L55429 59642" /> 
<path d="M55210 59984 L55182 59889" /> 
<path d="M55417 60058 L55210 59984" /> 
<path d="M55637 60047 L55417 60058" /> 
<path d="M55790 59984 L55637 60047" /> 
<path d="M55818 59889 L55790 59984" /> 
<path d="M55818 60450 L55818 59889" /> 
<path d="M46058 60450 L55818 60450" /> 
<path d="M46058 59583 L46058 60450" /> 
<path d="M46047 59363 L46058 59583" /> 
<path d="M45984 59210 L46047 59363" /> 
<path d="M45889 59182 L45984 59210" /> 
<path d="M45818 59253 L45889 59182" /> 
<path d="M45818 59111 L45818 59253" /> 
<path d="M45790 59016 L45818 59111" /> 
<path d="M45583 58942 L45790 59016" /> 
<path d="M45363 58953 L45583 58942" /> 
<path d="M45210 59016 L45363 58953" /> 
<path d="M45182 59111 L45210 59016" /> 
<path d="M45500 59429 L45182 59111" /> 
<path d="M45818 59111 L45500 59429" /> 
<path d="M45818 59253 L45818 59111" /> 
<path d="M45571 59500 L45818 59253" /> 
<path d="M45889 59818 L45571 59500" /> 
<path d="M45984 59790 L45889 59818" /> 
<path d="M46058 59583 L45984 59790" /> 
<path d="M46058 60450 L46058 59583" /> 
<path d="M45818 60450 L46058 60450" /> 
<path d="M45818 59889 L45818 60450" /> 
<path d="M45500 59571 L45818 59889" /> 
<path d="M45429 59642 L45500 59571" /> 
<path d="M45429 59500 L45429 59642" /> 
<path d="M45111 59182 L45429 59500" /> 
<path d="M45016 59210 L45111 59182" /> 
<path d="M45001 59251 L45016 59210" /> 
<path d="M44984 59210 L45001 59251" /> 
<path d="M44889 59182 L44984 59210" /> 
<path d="M44818 59253 L44889 59182" /> 
<path d="M44818 59111 L44818 59253" /> 
<path d="M44790 59016 L44818 59111" /> 
<path d="M44583 58942 L44790 59016" /> 
<path d="M44363 58953 L44583 58942" /> 
<path d="M44210 59016 L44363 58953" /> 
<path d="M44182 59111 L44210 59016" /> 
<path d="M44500 59429 L44182 59111" /> 
<path d="M44818 59111 L44500 59429" /> 
<path d="M44818 59253 L44818 59111" /> 
<path d="M44571 59500 L44818 59253" /> 
<path d="M44889 59818 L44571 59500" /> 
<path d="M44984 59790 L44889 59818" /> 
<path d="M44998 59748 L44984 59790" /> 
<path d="M45016 59790 L44998 59748" /> 
<path d="M45111 59818 L45016 59790" /> 
<path d="M45429 59500 L45111 59818" /> 
<path d="M45429 59642 L45429 59500" /> 
<path d="M45182 59889 L45429 59642" /> 
<path d="M45210 59984 L45182 59889" /> 
<path d="M45417 60058 L45210 59984" /> 
<path d="M45637 60047 L45417 60058" /> 
<path d="M45790 59984 L45637 60047" /> 
<path d="M45818 59889 L45790 59984" /> 
<path d="M45818 60450 L45818 59889" /> 
<path d="M44818 60450 L45818 60450" /> 
<path d="M44818 59889 L44818 60450" /> 
<path d="M44500 59571 L44818 59889" /> 
<path d="M44429 59642 L44500 59571" /> 
<path d="M44429 59500 L44429 59642" /> 
<path d="M44111 59182 L44429 59500" /> 
<path d="M44016 59210 L44111 59182" /> 
<path d="M43942 59417 L44016 59210" /> 
<path d="M43953 59637 L43942 59417" /> 
<path d="M44016 59790 L43953 59637" /> 
<path d="M44111 59818 L44016 59790" /> 
<path d="M44429 59500 L44111 59818" /> 
<path d="M44429 59642 L44429 59500" /> 
<path d="M44182 59889 L44429 59642" /> 
<path d="M44210 59984 L44182 59889" /> 
<path d="M44417 60058 L44210 59984" /> 
<path d="M44637 60047 L44417 60058" /> 
<path d="M44790 59984 L44637 60047" /> 
<path d="M44818 59889 L44790 59984" /> 
<path d="M44818 60450 L44818 59889" /> 
<path d="M43931 60450 L44818 60450" /> 
<path d="M43931 54112 L43931 60450" /> 
<path d="M43931 53888 L43931 54112" /> 
<path d="M43930 53065 L43931 53888" /> 
<path d="M43930 52966 L43930 53065" /> 
<path d="M43892 52875 L43930 52966" /> 
<path d="M43822 52805 L43892 52875" /> 
<path d="M43730 52767 L43822 52805" /> 
<path d="M42612 52766 L43730 52767" /> 
<path d="M42550 52828 L42612 52766" /> 
<path d="M42550 53950 L42550 52828" /> 
<path d="M43869 53950 L42550 53950" /> 
<path d="M43931 53888 L43869 53950" /> 
<path d="M43931 54112 L43931 53888" /> 
<path d="M43869 54050 L43931 54112" /> 
<path d="M42550 54050 L43869 54050" /> 
<path d="M42550 55172 L42550 54050" /> 
<path d="M42612 55234 L42550 55172" /> 
<path d="M43730 55233 L42612 55234" /> 
<path d="M43822 55195 L43730 55233" /> 
<path d="M43892 55125 L43822 55195" /> 
<path d="M43930 55034 L43892 55125" /> 
<path d="M43930 54935 L43930 55034" /> 
<path d="M43931 54112 L43930 54935" /> 
<path d="M43931 60450 L43931 54112" /> 
<path d="M42550 60450 L43931 60450" /> 
<path d="M42550 58710 L42550 60450" /> 
<path d="M42550 58292 L42550 58710" /> 
<path d="M42450 58050 L42550 58292" /> 
<path d="M42450 55172 L42450 58050" /> 
<path d="M42450 54050 L42450 55172" /> 
<path d="M42450 53950 L42450 54050" /> 
<path d="M42450 52828 L42450 53950" /> 
<path d="M42388 52766 L42450 52828" /> 
<path d="M41270 52767 L42388 52766" /> 
<path d="M41178 52805 L41270 52767" /> 
<path d="M41108 52875 L41178 52805" /> 
<path d="M41070 52966 L41108 52875" /> 
<path d="M41070 53065 L41070 52966" /> 
<path d="M41069 53888 L41070 53065" /> 
<path d="M41131 53950 L41069 53888" /> 
<path d="M42450 53950 L41131 53950" /> 
<path d="M42450 54050 L42450 53950" /> 
<path d="M41131 54050 L42450 54050" /> 
<path d="M41069 54112 L41131 54050" /> 
<path d="M41070 54935 L41069 54112" /> 
<path d="M41070 55034 L41070 54935" /> 
<path d="M41108 55125 L41070 55034" /> 
<path d="M41178 55195 L41108 55125" /> 
<path d="M41270 55233 L41178 55195" /> 
<path d="M42388 55234 L41270 55233" /> 
<path d="M42450 55172 L42388 55234" /> 
<path d="M42450 58050 L42450 55172" /> 
<path d="M42390 57906 L42450 58050" /> 
<path d="M42095 57610 L42390 57906" /> 
<path d="M41710 57450 L42095 57610" /> 
<path d="M41292 57450 L41710 57450" /> 
<path d="M40906 57610 L41292 57450" /> 
<path d="M40610 57905 L40906 57610" /> 
<path d="M40450 58290 L40610 57905" /> 
<path d="M40450 58708 L40450 58290" /> 
<path d="M40610 59094 L40450 58708" /> 
<path d="M40905 59390 L40610 59094" /> 
<path d="M41290 59550 L40905 59390" /> 
<path d="M41708 59550 L41290 59550" /> 
<path d="M42094 59390 L41708 59550" /> 
<path d="M42390 59095 L42094 59390" /> 
<path d="M42550 58710 L42390 59095" /> 
<path d="M42550 60450 L42550 58710" /> 
<path d="M39550 60450 L42550 60450" /> 
<path d="M39550 21550 L39550 60450" /> 
<path d="M70450 21550 L39550 21550" /> 
<path d="M70450 60450 L70450 21550" /> 
</g>
<g style="fill:#A00000; fill-opacity:1.0; 
  stroke:#A00000; stroke-linecap:round; stroke-linejoin:round; stroke-opacity:1.0; stroke-opacity:1.0; stroke-width:0" 
   transform="translate(0 0) scale(1 1)">
<polygon style="fill-rule:evenodd; " 
points="69947,28500
69913,28329
69816,28184
69550,27918
69550,23710
69550,23292
69390,22906
69095,22610
68710,22450
68292,22450
67906,22610
67610,22905
67450,23290
67450,23708
67610,24094
67905,24390
68290,24550
68708,24550
69094,24390
69390,24095
69550,23710
69550,27918
69316,27684
69171,27587
69000,27553
43930,27553
43930,26967
43892,26875
43822,26805
43731,26767
43632,26767
42550,26767
42550,23710
42550,23292
42390,22906
42095,22610
41710,22450
41292,22450
40906,22610
40610,22905
40450,23290
40450,23708
40610,24094
40905,24390
41290,24550
41708,24550
42094,24390
42390,24095
42550,23710
42550,26767
41270,26767
41178,26805
41108,26875
41070,26966
41070,27065
41070,29033
41108,29125
41178,29195
41269,29233
41368,29233
43730,29233
43822,29195
43892,29125
43930,29034
43930,28935
43930,28447
68815,28447
69053,28685
69053,41553
64339,41553
64339,40534
64339,40435
64339,38467
64301,38375
64231,38305
64140,38267
64041,38267
63947,38267
63947,34500
63913,34329
63816,34184
63316,33684
63171,33587
63000,33553
53500,33553
46500,33553
43931,33553
43931,31112
43931,30888
43930,30065
43930,29966
43892,29875
43822,29805
43730,29767
42612,29766
42550,29828
42550,30950
43869,30950
43931,30888
43931,31112
43869,31050
42550,31050
42550,32172
42612,32234
43730,32233
43822,32195
43892,32125
43930,32034
43930,31935
43931,31112
43931,33553
43930,33553
43930,32967
43892,32875
43822,32805
43731,32767
43632,32767
42450,32767
42450,32172
42450,31050
42450,30950
42450,29828
42388,29766
41270,29767
41178,29805
41108,29875
41070,29966
41070,30065
41069,30888
41131,30950
42450,30950
42450,31050
41131,31050
41069,31112
41070,31935
41070,32034
41108,32125
41178,32195
41270,32233
42388,32234
42450,32172
42450,32767
41270,32767
41178,32805
41108,32875
41070,32966
41070,33065
41070,35033
41108,35125
41178,35195
41269,35233
41368,35233
43730,35233
43822,35195
43892,35125
43930,35034
43930,34935
43930,34447
46053,34447
46053,39315
45815,39553
43931,39553
43931,37112
43931,36888
43930,36065
43930,35966
43892,35875
43822,35805
43730,35767
42612,35766
42550,35828
42550,36950
43869,36950
43931,36888
43931,37112
43869,37050
42550,37050
42550,38172
42612,38234
43730,38233
43822,38195
43892,38125
43930,38034
43930,37935
43931,37112
43931,39553
43930,39553
43930,38967
43892,38875
43822,38805
43731,38767
43632,38767
42450,38767
42450,38172
42450,37050
42450,36950
42450,35828
42388,35766
41270,35767
41178,35805
41108,35875
41070,35966
41070,36065
41069,36888
41131,36950
42450,36950
42450,37050
41131,37050
41069,37112
41070,37935
41070,38034
41108,38125
41178,38195
41270,38233
42388,38234
42450,38172
42450,38767
41270,38767
41178,38805
41108,38875
41070,38966
41070,39065
41070,41033
41108,41125
41178,41195
41269,41233
41368,41233
43730,41233
43822,41195
43892,41125
43930,41034
43930,40935
43930,40447
46000,40447
46171,40413
46316,40316
46816,39816
46913,39671
46947,39500
46947,34447
53053,34447
53053,38267
52861,38267
52769,38305
52699,38375
52661,38466
52661,38565
52661,40533
52699,40625
52769,40695
52860,40733
52959,40733
53053,40733
53053,41315
52815,41553
52000,41553
50500,41553
50340,41553
50340,39612
50340,39388
50339,38467
50301,38375
50231,38305
50140,38267
50041,38267
49612,38266
49550,38328
49550,39450
50278,39450
50340,39388
50340,39612
50278,39550
49550,39550
49550,40672
49612,40734
50041,40733
50140,40733
50231,40695
50301,40625
50339,40533
50340,39612
50340,41553
49450,41553
49450,40672
49450,39550
49450,39450
49450,38328
49388,38266
48959,38267
48860,38267
48769,38305
48699,38375
48661,38467
48660,39388
48722,39450
49450,39450
49450,39550
48722,39550
48660,39612
48661,40533
48699,40625
48769,40695
48860,40733
48959,40733
49388,40734
49450,40672
49450,41553
47500,41553
47329,41587
47184,41684
46684,42184
46587,42329
46553,42500
46553,42564
45573,42564
45481,42602
45411,42672
45373,42763
45373,42862
45373,43153
44900,43153
44729,43187
44680,43219
44583,43284
44184,43684
44087,43829
44053,44000
44053,49148
44021,49180
43935,49387
43935,49612
44021,49820
44180,49979
44387,50065
44612,50065
44820,49979
44852,49947
45148,49947
45180,49979
45387,50065
45612,50065
45820,49979
45979,49820
46065,49613
46065,49388
45979,49180
45820,49021
45613,48935
45388,48935
45180,49021
45148,49053
44947,49053
44947,44185
45085,44047
45373,44047
45373,44436
45399,44499
45373,44563
45373,44662
45373,46236
45411,46328
45481,46398
45572,46436
45671,46436
46553,46436
46553,48000
46587,48171
46684,48316
46829,48413
47000,48447
54500,48447
56815,48447
57053,48685
57053,49358
56979,49180
56820,49021
56613,48935
56388,48935
56180,49021
56148,49053
55852,49053
55820,49021
55613,48935
55388,48935
55180,49021
55021,49180
54935,49387
54935,49612
55021,49820
55053,49852
55053,50315
54815,50553
43931,50553
43931,43112
43931,42888
43930,42065
43930,41966
43892,41875
43822,41805
43730,41767
42612,41766
42550,41828
42550,42950
43869,42950
43931,42888
43931,43112
43869,43050
42550,43050
42550,44172
42612,44234
43730,44233
43822,44195
43892,44125
43930,44034
43930,43935
43931,43112
43931,50553
43930,50553
43930,49967
43892,49875
43822,49805
43731,49767
43632,49767
42450,49767
42450,44172
42450,43050
42450,42950
42450,41828
42388,41766
41270,41767
41178,41805
41108,41875
41070,41966
41070,42065
41069,42888
41131,42950
42450,42950
42450,43050
41131,43050
41069,43112
41070,43935
41070,44034
41108,44125
41178,44195
41270,44233
42388,44234
42450,44172
42450,49767
41270,49767
41178,49805
41108,49875
41070,49966
41070,50065
41070,52033
41108,52125
41178,52195
41269,52233
41368,52233
43730,52233
43822,52195
43892,52125
43930,52034
43930,51935
43930,51447
55000,51447
55171,51413
55316,51316
55816,50816
55913,50671
55947,50500
55947,49947
56148,49947
56180,49979
56387,50065
56612,50065
56820,49979
56979,49820
57053,49641
57053,53500
57087,53671
57184,53816
57684,54316
57829,54413
58000,54447
59163,54447
59199,54534
59269,54604
59360,54642
59459,54642
60639,54642
60731,54604
60801,54534
60837,54447
61358,54447
61358,54836
61396,54928
61466,54998
61557,55036
61656,55036
62442,55036
62499,55012
62557,55036
62656,55036
62888,55037
62950,54975
62950,54100
62950,54050
62950,53950
62950,53900
62950,53025
62888,52963
62656,52964
62557,52964
62500,52987
62443,52964
62344,52964
61558,52964
61466,53002
61396,53072
61358,53163
61358,53262
61358,53553
60836,53553
60801,53466
60731,53396
60640,53358
60541,53358
59361,53358
59269,53396
59199,53466
59162,53553
58185,53553
57947,53315
57947,51544
58029,51579
58128,51579
62888,51580
62950,51518
62950,47050
57891,47050
57829,47112
57829,48203
57816,48184
57316,47684
57171,47587
57000,47553
55016,47553
55047,47400
55047,47318
55066,47311
55136,47241
55174,47150
55174,47051
55174,45851
55136,45759
55066,45689
54975,45651
54876,45651
54226,45651
54134,45689
54064,45759
54026,45850
54026,45949
54026,47149
54064,47241
54113,47290
54087,47329
54053,47500
54053,47553
47447,47553
47447,46436
48427,46436
48519,46398
48589,46328
48627,46237
48627,46138
48627,45947
49100,45947
49190,45929
49329,45929
49421,45891
49454,45857
49471,45940
49471,46079
49509,46171
49579,46241
49670,46279
49769,46279
49809,46279
49900,46297
50350,46297
50521,46263
50666,46166
50767,46065
50767,46139
50805,46231
50875,46301
50966,46339
51065,46339
53033,46339
53125,46301
53195,46231
53233,46140
53233,46041
53233,45871
53316,45816
53816,45316
53913,45171
53947,45000
53947,44685
54051,44581
54051,45249
54089,45341
54159,45411
54250,45449
54349,45449
56749,45449
56841,45411
56911,45341
56949,45250
56949,45151
56949,42751
56911,42659
56841,42589
56750,42551
56651,42551
54251,42551
54159,42589
54089,42659
54051,42750
54051,42849
54051,43553
54000,43553
53829,43587
53684,43684
53233,44135
53233,44041
53233,42861
53195,42769
53125,42699
53034,42661
52935,42661
52447,42661
52447,42447
53000,42447
53171,42413
53316,42316
53816,41816
53913,41671
53947,41500
53947,40733
54139,40733
54231,40695
54301,40625
54339,40534
54339,40435
54339,38467
54301,38375
54231,38305
54140,38267
54041,38267
53947,38267
53947,34447
62815,34447
63053,34685
63053,38267
62861,38267
62769,38305
62699,38375
62661,38466
62661,38565
62661,40533
62699,40625
62769,40695
62860,40733
62959,40733
64139,40733
64231,40695
64301,40625
64339,40534
64339,41553
60340,41553
60340,39612
60340,39388
60339,38467
60301,38375
60231,38305
60140,38267
60041,38267
59612,38266
59550,38328
59550,39450
60278,39450
60340,39388
60340,39612
60278,39550
59550,39550
59550,40672
59612,40734
60041,40733
60140,40733
60231,40695
60301,40625
60339,40533
60340,39612
60340,41553
59450,41553
59450,40672
59450,39550
59450,39450
59450,38328
59388,38266
58959,38267
58860,38267
58769,38305
58699,38375
58661,38467
58660,39388
58722,39450
59450,39450
59450,39550
58722,39550
58660,39612
58661,40533
58699,40625
58769,40695
58860,40733
58959,40733
59388,40734
59450,40672
59450,41553
58000,41553
57829,41587
57684,41684
57184,42184
57087,42329
57053,42500
57053,45815
56974,45894
56974,45851
56936,45759
56866,45689
56775,45651
56676,45651
56026,45651
55934,45689
55864,45759
55826,45850
55826,45949
55826,47149
55864,47241
55934,47311
56025,47349
56124,47349
56774,47349
56866,47311
56936,47241
56974,47150
56974,47051
56974,46947
57000,46947
57171,46913
57316,46816
57816,46316
57829,46296
57829,46888
57891,46950
62900,46950
62950,46950
63050,46950
63100,46950
68109,46950
68171,46888
68170,42621
68132,42529
68062,42459
68033,42447
69053,42447
69053,53315
68815,53553
68171,53553
68171,47112
68109,47050
63050,47050
63050,51518
63112,51580
67872,51579
67971,51579
68062,51541
68132,51471
68170,51379
68171,47112
68171,53553
66836,53553
66801,53466
66731,53396
66640,53358
66541,53358
65361,53358
65269,53396
65199,53466
65162,53553
64642,53553
64642,53164
64604,53072
64534,53002
64443,52964
64344,52964
63558,52964
63500,52987
63443,52964
63344,52964
63112,52963
63050,53025
63050,53900
63050,53950
63050,54050
63050,54100
63050,54975
63112,55037
63344,55036
63443,55036
63500,55012
63557,55036
63656,55036
64442,55036
64534,54998
64604,54928
64642,54837
64642,54738
64642,54447
65163,54447
65199,54534
65269,54604
65360,54642
65459,54642
66639,54642
66731,54604
66801,54534
66837,54447
69000,54447
69171,54413
69316,54316
69816,53816
69913,53671
69947,53500
69947,60450
69550,60450
69550,58710
69550,58292
69390,57906
69095,57610
68710,57450
68292,57450
67906,57610
67610,57905
67450,58290
67450,58708
67610,59094
67905,59390
68290,59550
68708,59550
69094,59390
69390,59095
69550,58710
69550,60450
66840,60450
66840,56112
66840,55888
66839,55558
66801,55466
66731,55396
66640,55358
66541,55358
66112,55357
66050,55419
66050,55950
66778,55950
66840,55888
66840,56112
66778,56050
66050,56050
66050,56581
66112,56643
66541,56642
66640,56642
66731,56604
66801,56534
66839,56442
66840,56112
66840,60450
66096,60450
66096,60110
66096,57010
65950,57010
65950,56581
65950,56050
65950,55950
65950,55419
65888,55357
65459,55358
65360,55358
65269,55396
65199,55466
65161,55558
65160,55888
65222,55950
65950,55950
65950,56050
65222,56050
65160,56112
65161,56442
65199,56534
65269,56604
65360,56642
65459,56642
65888,56643
65950,56581
65950,57010
60840,57010
60840,56112
60840,55888
60839,55558
60801,55466
60731,55396
60640,55358
60541,55358
60112,55357
60050,55419
60050,55950
60778,55950
60840,55888
60840,56112
60778,56050
60050,56050
60050,56581
60112,56643
60541,56642
60640,56642
60731,56604
60801,56534
60839,56442
60840,56112
60840,57010
59950,57010
59950,56581
59950,56050
59950,55950
59950,55419
59888,55357
59459,55358
59360,55358
59269,55396
59199,55466
59161,55558
59160,55888
59222,55950
59950,55950
59950,56050
59222,56050
59160,56112
59161,56442
59199,56534
59269,56604
59360,56642
59459,56642
59888,56643
59950,56581
59950,57010
59784,57010
59784,60110
66096,60110
66096,60450
57058,60450
57058,59583
57047,59363
56984,59210
56889,59182
56818,59253
56818,59111
56790,59016
56583,58942
56363,58953
56210,59016
56182,59111
56500,59429
56818,59111
56818,59253
56571,59500
56889,59818
56984,59790
57058,59583
57058,60450
56818,60450
56818,59889
56500,59571
56429,59642
56429,59500
56111,59182
56016,59210
56001,59251
55984,59210
55889,59182
55818,59253
55818,59111
55790,59016
55583,58942
55363,58953
55210,59016
55182,59111
55500,59429
55818,59111
55818,59253
55571,59500
55889,59818
55984,59790
55998,59748
56016,59790
56111,59818
56429,59500
56429,59642
56182,59889
56210,59984
56417,60058
56637,60047
56790,59984
56818,59889
56818,60450
55818,60450
55818,59889
55500,59571
55429,59642
55429,59500
55111,59182
55016,59210
54942,59417
54953,59637
55016,59790
55111,59818
55429,59500
55429,59642
55182,59889
55210,59984
55417,60058
55637,60047
55790,59984
55818,59889
55818,60450
46058,60450
46058,59583
46047,59363
45984,59210
45889,59182
45818,59253
45818,59111
45790,59016
45583,58942
45363,58953
45210,59016
45182,59111
45500,59429
45818,59111
45818,59253
45571,59500
45889,59818
45984,59790
46058,59583
46058,60450
45818,60450
45818,59889
45500,59571
45429,59642
45429,59500
45111,59182
45016,59210
45001,59251
44984,59210
44889,59182
44818,59253
44818,59111
44790,59016
44583,58942
44363,58953
44210,59016
44182,59111
44500,59429
44818,59111
44818,59253
44571,59500
44889,59818
44984,59790
44998,59748
45016,59790
45111,59818
45429,59500
45429,59642
45182,59889
45210,59984
45417,60058
45637,60047
45790,59984
45818,59889
45818,60450
44818,60450
44818,59889
44500,59571
44429,59642
44429,59500
44111,59182
44016,59210
43942,59417
43953,59637
44016,59790
44111,59818
44429,59500
44429,59642
44182,59889
44210,59984
44417,60058
44637,60047
44790,59984
44818,59889
44818,60450
43931,60450
43931,54112
43931,53888
43930,53065
43930,52966
43892,52875
43822,52805
43730,52767
42612,52766
42550,52828
42550,53950
43869,53950
43931,53888
43931,54112
43869,54050
42550,54050
42550,55172
42612,55234
43730,55233
43822,55195
43892,55125
43930,55034
43930,54935
43931,54112
43931,60450
42550,60450
42550,58710
42550,58292
42450,58050
42450,55172
42450,54050
42450,53950
42450,52828
42388,52766
41270,52767
41178,52805
41108,52875
41070,52966
41070,53065
41069,53888
41131,53950
42450,53950
42450,54050
41131,54050
41069,54112
41070,54935
41070,55034
41108,55125
41178,55195
41270,55233
42388,55234
42450,55172
42450,58050
42390,57906
42095,57610
41710,57450
41292,57450
40906,57610
40610,57905
40450,58290
40450,58708
40610,59094
40905,59390
41290,59550
41708,59550
42094,59390
42390,59095
42550,58710
42550,60450
39550,60450
39550,21550
70450,21550
70450,60450
70450,60450
69947,60450
69947,53500
69947,42000
" /> 
</g>
<g style="fill:#A00000; fill-opacity:1.0; 
  stroke:#A00000; stroke-linecap:round; stroke-linejoin:round; stroke-opacity:1.0; stroke-opacity:1.0; stroke-width:0" 
   transform="translate(0 0) scale(1 1)">
<polygon style="fill-rule:evenodd; " 
points="62393,54787
61607,54787
61607,53213
62393,53213
" /> 
<polygon style="fill-rule:evenodd; " 
points="63393,54787
62607,54787
62607,53213
63393,53213
" /> 
<polygon style="fill-rule:evenodd; " 
points="64393,54787
63607,54787
63607,53213
64393,53213
" /> 
</g>
<g style="fill:#808000; fill-opacity:1.0; 
  stroke:#808000; stroke-linecap:round; stroke-linejoin:round; stroke-opacity:1.0; stroke-opacity:1.0; stroke-width:0" 
   transform="translate(0 0) scale(1 1)">
<polygon style="fill-rule:evenodd; " 
points="67921,51330
58079,51330
58079,42670
67921,42670
" /> 
</g>
<g style="fill:#FFFFFF; fill-opacity:1.0; 
  stroke:#808000; stroke-linecap:round; stroke-linejoin:round; stroke-opacity:1.0; stroke-opacity:1.0; stroke-width:0" 
   transform="translate(0 0) scale(1 1)">
<ellipse cx="63000" cy="47000" rx="590" ry="590"  /> 
</g>
<g style="fill:#A00000; fill-opacity:1.0; 
  stroke:#A00000; stroke-linecap:round; stroke-linejoin:round; stroke-opacity:1.0; stroke-opacity:1.0; stroke-width:0" 
   transform="translate(0 0) scale(1 1)">
<polygon style="fill-rule:evenodd; " 
points="49720,44970
50080,44970
50080,45330
49720,45330
" /> 
<polygon style="fill-rule:evenodd; " 
points="49720,45670
50080,45670
50080,46030
49720,46030
" /> 
<polygon style="fill-rule:evenodd; " 
points="48920,45320
49280,45320
49280,45680
48920,45680
" /> 
<polygon style="fill-rule:evenodd; " 
points="59410,53607
60590,53607
60590,54393
59410,54393
" /> 
<polygon style="fill-rule:evenodd; " 
points="59410,55607
60590,55607
60590,56393
59410,56393
" /> 
<polygon style="fill-rule:evenodd; " 
points="65410,53607
66590,53607
66590,54393
65410,54393
" /> 
<polygon style="fill-rule:evenodd; " 
points="65410,55607
66590,55607
66590,56393
65410,56393
" /> 
<polygon style="fill-rule:evenodd; " 
points="52984,46090
51016,46090
51016,44910
52984,44910
" /> 
<polygon style="fill-rule:evenodd; " 
points="52984,44090
51016,44090
51016,42910
52984,42910
" /> 
<polygon style="fill-rule:evenodd; " 
points="45622,42813
48378,42813
48378,44387
45622,44387
" /> 
<polygon style="fill-rule:evenodd; " 
points="45622,44613
48378,44613
48378,46187
45622,46187
" /> 
<polygon style="fill-rule:evenodd; " 
points="54275,47100
54275,45900
54925,45900
54925,47100
" /> 
<polygon style="fill-rule:evenodd; " 
points="54300,45200
54300,42800
56700,42800
56700,45200
" /> 
<polygon style="fill-rule:evenodd; " 
points="56075,47100
56075,45900
56725,45900
56725,47100
" /> 
<polygon style="fill-rule:evenodd; " 
points="52910,38516
54090,38516
54090,40484
52910,40484
" /> 
<polygon style="fill-rule:evenodd; " 
points="48910,38516
50090,38516
50090,40484
48910,40484
" /> 
<polygon style="fill-rule:evenodd; " 
points="62910,38516
64090,38516
64090,40484
62910,40484
" /> 
<polygon style="fill-rule:evenodd; " 
points="58910,38516
60090,38516
60090,40484
58910,40484
" /> 
<polygon style="fill-rule:evenodd; " 
points="43681,42016
43681,43984
41319,43984
41319,42016
" /> 
<polygon style="fill-rule:evenodd; " 
points="43681,39016
43681,40984
41319,40984
41319,39016
" /> 
<polygon style="fill-rule:evenodd; " 
points="43681,30016
43681,31984
41319,31984
41319,30016
" /> 
<polygon style="fill-rule:evenodd; " 
points="43681,27016
43681,28984
41319,28984
41319,27016
" /> 
<polygon style="fill-rule:evenodd; " 
points="43681,53016
43681,54984
41319,54984
41319,53016
" /> 
<polygon style="fill-rule:evenodd; " 
points="43681,50016
43681,51984
41319,51984
41319,50016
" /> 
<polygon style="fill-rule:evenodd; " 
points="43681,36016
43681,37984
41319,37984
41319,36016
" /> 
<polygon style="fill-rule:evenodd; " 
points="43681,33016
43681,34984
41319,34984
41319,33016
" /> 
</g>
<g style="fill:#808000; fill-opacity:1.0; 
  stroke:#808000; stroke-linecap:round; stroke-linejoin:round; stroke-opacity:1.0; stroke-opacity:1.0; stroke-width:0" 
   transform="translate(0 0) scale(1 1)">
<ellipse cx="44500" cy="59500" rx="315" ry="315"  /> 
</g>
<g style="fill:#FFFFFF; fill-opacity:1.0; 
  stroke:#808000; stroke-linecap:round; stroke-linejoin:round; stroke-opacity:1.0; stroke-opacity:1.0; stroke-width:0" 
   transform="translate(0 0) scale(1 1)">
<ellipse cx="44500" cy="59500" rx="197" ry="197"  /> 
</g>
<g style="fill:#808000; fill-opacity:1.0; 
  stroke:#808000; stroke-linecap:round; stroke-linejoin:round; stroke-opacity:1.0; stroke-opacity:1.0; stroke-width:0" 
   transform="translate(0 0) scale(1 1)">
<ellipse cx="45500" cy="59500" rx="315" ry="315"  /> 
</g>
<g style="fill:#FFFFFF; fill-opacity:1.0; 
  stroke:#808000; stroke-linecap:round; stroke-linejoin:round; stroke-opacity:1.0; stroke-opacity:1.0; stroke-width:0" 
   transform="translate(0 0) scale(1 1)">
<ellipse cx="45500" cy="59500" rx="197" ry="197"  /> 
</g>
<g style="fill:#808000; fill-opacity:1.0; 
  stroke:#808000; stroke-linecap:round; stroke-linejoin:round; stroke-opacity:1.0; stroke-opacity:1.0; stroke-width:0" 
   transform="translate(0 0) scale(1 1)">
<ellipse cx="55500" cy="49500" rx="315" ry="315"  /> 
</g>
<g style="fill:#FFFFFF; fill-opacity:1.0; 
  stroke:#808000; stroke-linecap:round; stroke-linejoin:round; stroke-opacity:1.0; stroke-opacity:1.0; stroke-width:0" 
   transform="translate(0 0) scale(1 1)">
<ellipse cx="55500" cy="49500" rx="197" ry="197"  /> 
</g>
<g style="fill:#808000; fill-opacity:1.0; 
  stroke:#808000; stroke-linecap:round; stroke-linejoin:round; stroke-opacity:1.0; stroke-opacity:1.0; stroke-width:0" 
   transform="translate(0 0) scale(1 1)">
<ellipse cx="56500" cy="49500" rx="315" ry="315"  /> 
</g>
<g style="fill:#FFFFFF; fill-opacity:1.0; 
  stroke:#808000; stroke-linecap:round; stroke-linejoin:round; stroke-opacity:1.0; stroke-opacity:1.0; stroke-width:0" 
   transform="translate(0 0) scale(1 1)">
<ellipse cx="56500" cy="49500" rx="197" ry="197"  /> 
</g>
<g style="fill:#808000; fill-opacity:1.0; 
  stroke:#808000; stroke-linecap:round; stroke-linejoin:round; stroke-opacity:1.0; stroke-opacity:1.0; stroke-width:0" 
   transform="translate(0 0) scale(1 1)">
<ellipse cx="55500" cy="59500" rx="315" ry="315"  /> 
</g>
<g style="fill:#FFFFFF; fill-opacity:1.0; 
  stroke:#808000; stroke-linecap:round; stroke-linejoin:round; stroke-opacity:1.0; stroke-opacity:1.0; stroke-width:0" 
   transform="translate(0 0) scale(1 1)">
<ellipse cx="55500" cy="59500" rx="197" ry="197"  /> 
</g>
<g style="fill:#808000; fill-opacity:1.0; 
  stroke:#808000; stroke-linecap:round; stroke-linejoin:round; stroke-opacity:1.0; stroke-opacity:1.0; stroke-width:0" 
   transform="translate(0 0) scale(1 1)">
<ellipse cx="56500" cy="59500" rx="315" ry="315"  /> 
</g>
<g style="fill:#FFFFFF; fill-opacity:1.0; 
  stroke:#808000; stroke-linecap:round; stroke-linejoin:round; stroke-opacity:1.0; stroke-opacity:1.0; stroke-width:0" 
   transform="translate(0 0) scale(1 1)">
<ellipse cx="56500" cy="59500" rx="197" ry="197"  /> 
</g>
<g style="fill:#808000; fill-opacity:1.0; 
  stroke:#808000; stroke-linecap:round; stroke-linejoin:round; stroke-opacity:1.0; stroke-opacity:1.0; stroke-width:0" 
   transform="translate(0 0) scale(1 1)">
<ellipse cx="44500" cy="49500" rx="315" ry="315"  /> 
</g>
<g style="fill:#FFFFFF; fill-opacity:1.0; 
  stroke:#808000; stroke-linecap:round; stroke-linejoin:round; stroke-opacity:1.0; stroke-opacity:1.0; stroke-width:0" 
   transform="translate(0 0) scale(1 1)">
<ellipse cx="44500" cy="49500" rx="197" ry="197"  /> 
</g>
<g style="fill:#808000; fill-opacity:1.0; 
  stroke:#808000; stroke-linecap:round; stroke-linejoin:round; stroke-opacity:1.0; stroke-opacity:1.0; stroke-width:0" 
   transform="translate(0 0) scale(1 1)">
<ellipse cx="45500" cy="49500" rx="315" ry="315"  /> 
</g>
<g style="fill:#FFFFFF; fill-opacity:1.0; 
  stroke:#808000; stroke-linecap:round; stroke-linejoin:round; stroke-opacity:1.0; stroke-opacity:1.0; stroke-width:0" 
   transform="translate(0 0) scale(1 1)">
<ellipse cx="45500" cy="49500" rx="197" ry="197"  /> 
</g>
<g style="fill:#808000; fill-opacity:1.0; 
  stroke:#808000; stroke-linecap:round; stroke-linejoin:round; stroke-opacity:1.0; stroke-opacity:1.0; stroke-width:0" 
   transform="translate(0 0) scale(1 1)">
<ellipse cx="41500" cy="23500" rx="800" ry="800"  /> 
</g>
<g style="fill:#FFFFFF; fill-opacity:1.0; 
  stroke:#808000; stroke-linecap:round; stroke-linejoin:round; stroke-opacity:1.0; stroke-opacity:1.0; stroke-width:0" 
   transform="translate(0 0) scale(1 1)">
<ellipse cx="41500" cy="23500" rx="600" ry="600"  /> 
</g>
<g style="fill:#808000; fill-opacity:1.0; 
  stroke:#808000; stroke-linecap:round; stroke-linejoin:round; stroke-opacity:1.0; stroke-opacity:1.0; stroke-width:0" 
   transform="translate(0 0) scale(1 1)">
<ellipse cx="68500" cy="23500" rx="800" ry="800"  /> 
</g>
<g style="fill:#FFFFFF; fill-opacity:1.0; 
  stroke:#808000; stroke-linecap:round; stroke-linejoin:round; stroke-opacity:1.0; stroke-opacity:1.0; stroke-width:0" 
   transform="translate(0 0) scale(1 1)">
<ellipse cx="68500" cy="23500" rx="600" ry="600"  /> 
</g>
<g style="fill:#808000; fill-opacity:1.0; 
  stroke:#808000; stroke-linecap:round; stroke-linejoin:round; stroke-opacity:1.0; stroke-opacity:1.0; stroke-width:0" 
   transform="translate(0 0) scale(1 1)">
<ellipse cx="41500" cy="58500" rx="800" ry="800"  /> 
</g>
<g style="fill:#FFFFFF; fill-opacity:1.0; 
  stroke:#808000; stroke-linecap:round; stroke-linejoin:round; stroke-opacity:1.0; stroke-opacity:1.0; stroke-width:0" 
   transform="translate(0 0) scale(1 1)">
<ellipse cx="41500" cy="58500" rx="600" ry="600"  /> 
</g>
<g style="fill:#808000; fill-opacity:1.0; 
  stroke:#808000; stroke-linecap:round; stroke-linejoin:round; stroke-opacity:1.0; stroke-opacity:1.0; stroke-width:0" 
   transform="translate(0 0) scale(1 1)">
<ellipse cx="68500" cy="58500" rx="800" ry="800"  /> 
</g>
<g style="fill:#FFFFFF; fill-opacity:1.0; 
  stroke:#808000; stroke-linecap:round; stroke-linejoin:round; stroke-opacity:1.0; stroke-opacity:1.0; stroke-width:0" 
   transform="translate(0 0) scale(1 1)">
<ellipse cx="68500" cy="58500" rx="600" ry="600"  /> 
</g> 
</svg> 
