<?xml version="1.0" standalone="no"?>
<!DOCTYPE svg PUBLIC "-//W3C//DTD SVG 1.1//EN" 
"http://www.w3.org/Graphics/SVG/1.1/DTD/svg11.dtd"> 
<svg
  xmlns="http://www.w3.org/2000/svg"
  version="1.1"
  width="11.7in" height="8.267in" viewBox="0 0 117000 82670 "
>
  <title>SVG Picture created as Alim-Dessus.svg </title>
  <desc>Picture generated by wxSVG v0101 </desc>
  <g style="fill:black; stroke:black; stroke-width:1">
</g>
<g style="fill:#000000; fill-opacity:0.0; 
  stroke:#0000C0; stroke-linecap:round; stroke-linejoin:round; stroke-opacity:1.0; stroke-opacity:1.0; stroke-width:0" 
   transform="translate(0 0) scale(1 1)">
<path d="M62998 58000 L63002 58000" /> 
<path d="M63000 57998 L63000 58002" /> 
</g>
<g style="fill:#A00000; fill-opacity:0.0; 
  stroke:#A00000; stroke-linecap:round; stroke-linejoin:round; stroke-opacity:1.0; stroke-opacity:1.0; stroke-width:120" 
   transform="translate(0 0) scale(1 1)">
<path d="M60529 58324 L60529 57524" /> 
<path d="M60529 57524 L60757 57524" /> 
<path d="M60757 57524 L60815 57562" /> 
<path d="M60815 57562 L60843 57600" /> 
<path d="M60843 57600 L60872 57676" /> 
<path d="M60872 57676 L60872 57790" /> 
<path d="M60872 57790 L60843 57867" /> 
<path d="M60843 57867 L60815 57905" /> 
<path d="M60815 57905 L60757 57943" /> 
<path d="M60757 57943 L60529 57943" /> 
<g style = "stroke-linecap:round;" > 
<path d="M60529 57943 L60529 57943" /> 
</g><path d="M61243 57524 L61357 57524" /> 
<path d="M61357 57524 L61415 57562" /> 
<path d="M61415 57562 L61472 57638" /> 
<path d="M61472 57638 L61500 57790" /> 
<path d="M61500 57790 L61500 58057" /> 
<path d="M61500 58057 L61472 58210" /> 
<path d="M61472 58210 L61415 58286" /> 
<path d="M61415 58286 L61357 58324" /> 
<path d="M61357 58324 L61243 58324" /> 
<path d="M61243 58324 L61186 58286" /> 
<path d="M61186 58286 L61129 58210" /> 
<path d="M61129 58210 L61100 58057" /> 
<path d="M61100 58057 L61100 57790" /> 
<path d="M61100 57790 L61129 57638" /> 
<path d="M61129 57638 L61186 57562" /> 
<path d="M61186 57562 L61243 57524" /> 
<path d="M61729 58286 L61815 58324" /> 
<path d="M61815 58324 L61958 58324" /> 
<path d="M61958 58324 L62015 58286" /> 
<path d="M62015 58286 L62044 58248" /> 
<path d="M62044 58248 L62072 58171" /> 
<path d="M62072 58171 L62072 58095" /> 
<path d="M62072 58095 L62044 58019" /> 
<path d="M62044 58019 L62015 57981" /> 
<path d="M62015 57981 L61958 57943" /> 
<path d="M61958 57943 L61844 57905" /> 
<path d="M61844 57905 L61786 57867" /> 
<path d="M61786 57867 L61758 57829" /> 
<path d="M61758 57829 L61729 57752" /> 
<path d="M61729 57752 L61729 57676" /> 
<path d="M61729 57676 L61758 57600" /> 
<path d="M61758 57600 L61786 57562" /> 
<path d="M61786 57562 L61844 57524" /> 
<path d="M61844 57524 L61986 57524" /> 
<path d="M61986 57524 L62072 57562" /> 
<g style = "stroke-linecap:round;" > 
<path d="M62072 57562 L62072 57562" /> 
</g><path d="M62615 58324 L62329 58324" /> 
<path d="M62329 58324 L62329 57524" /> 
<g style = "stroke-linecap:round;" > 
<path d="M62329 57524 L62329 57524" /> 
</g><path d="M63615 58324 L63415 57943" /> 
<g style = "stroke-linecap:round;" > 
<path d="M63415 57943 L63415 57943" /> 
</g><path d="M63272 58324 L63272 57524" /> 
<path d="M63272 57524 L63500 57524" /> 
<path d="M63500 57524 L63558 57562" /> 
<path d="M63558 57562 L63586 57600" /> 
<path d="M63586 57600 L63615 57676" /> 
<path d="M63615 57676 L63615 57790" /> 
<path d="M63615 57790 L63586 57867" /> 
<path d="M63586 57867 L63558 57905" /> 
<path d="M63558 57905 L63500 57943" /> 
<path d="M63500 57943 L63272 57943" /> 
<g style = "stroke-linecap:round;" > 
<path d="M63272 57943 L63272 57943" /> 
</g><path d="M63958 58324 L63900 58286" /> 
<path d="M63900 58286 L63872 58248" /> 
<path d="M63872 58248 L63843 58171" /> 
<path d="M63843 58171 L63843 57943" /> 
<path d="M63843 57943 L63872 57867" /> 
<path d="M63872 57867 L63900 57829" /> 
<path d="M63900 57829 L63958 57790" /> 
<path d="M63958 57790 L64043 57790" /> 
<path d="M64043 57790 L64100 57829" /> 
<path d="M64100 57829 L64129 57867" /> 
<path d="M64129 57867 L64158 57943" /> 
<path d="M64158 57943 L64158 58171" /> 
<path d="M64158 58171 L64129 58248" /> 
<path d="M64129 58248 L64100 58286" /> 
<path d="M64100 58286 L64043 58324" /> 
<path d="M64043 58324 L63958 58324" /> 
<path d="M64358 57790 L64501 58324" /> 
<path d="M64501 58324 L64643 57790" /> 
<g style = "stroke-linecap:round;" > 
<path d="M64643 57790 L64643 57790" /> 
</g><path d="M65100 58286 L65043 58324" /> 
<path d="M65043 58324 L64929 58324" /> 
<path d="M64929 58324 L64872 58286" /> 
<path d="M64872 58286 L64843 58210" /> 
<path d="M64843 58210 L64843 57905" /> 
<path d="M64843 57905 L64872 57829" /> 
<path d="M64872 57829 L64929 57790" /> 
<path d="M64929 57790 L65043 57790" /> 
<path d="M65043 57790 L65100 57829" /> 
<path d="M65100 57829 L65129 57905" /> 
<path d="M65129 57905 L65129 57981" /> 
<path d="M65129 57981 L64843 58057" /> 
<g style = "stroke-linecap:round;" > 
<path d="M64843 58057 L64843 58057" /> 
</g><path d="M65386 58324 L65386 57790" /> 
<g style = "stroke-linecap:round;" > 
<path d="M65386 57790 L65386 57790" /> 
</g><path d="M65386 57943 L65414 57867" /> 
<path d="M65414 57867 L65443 57829" /> 
<path d="M65443 57829 L65500 57790" /> 
<path d="M65500 57790 L65557 57790" /> 
<g style = "stroke-linecap:round;" > 
<path d="M65557 57790 L65557 57790" /> 
</g></g>
<g style="fill:#A00000; fill-opacity:0.0; 
  stroke:#0000C0; stroke-linecap:round; stroke-linejoin:round; stroke-opacity:1.0; stroke-opacity:1.0; stroke-width:0" 
   transform="translate(0 0) scale(1 1)">
<path d="M62998 59240 L63002 59240" /> 
<path d="M63000 59238 L63000 59242" /> 
</g>
<g style="fill:#A00000; fill-opacity:0.0; 
  stroke:#A00000; stroke-linecap:round; stroke-linejoin:round; stroke-opacity:1.0; stroke-opacity:1.0; stroke-width:120" 
   transform="translate(0 0) scale(1 1)">
<path d="M60328 59335 L60614 59335" /> 
<g style = "stroke-linecap:round;" > 
<path d="M60614 59335 L60614 59335" /> 
</g><path d="M60271 59564 L60471 58764" /> 
<path d="M60471 58764 L60671 59564" /> 
<g style = "stroke-linecap:round;" > 
<path d="M60671 59564 L60671 59564" /> 
</g><path d="M60957 59564 L60899 59526" /> 
<path d="M60899 59526 L60871 59450" /> 
<path d="M60871 59450 L60871 58764" /> 
<g style = "stroke-linecap:round;" > 
<path d="M60871 58764 L60871 58764" /> 
</g><path d="M61185 59564 L61185 59030" /> 
<g style = "stroke-linecap:round;" > 
<path d="M61185 59030 L61185 59030" /> 
</g><path d="M61185 58764 L61156 58802" /> 
<path d="M61156 58802 L61185 58840" /> 
<path d="M61185 58840 L61213 58802" /> 
<path d="M61213 58802 L61185 58764" /> 
<path d="M61185 58764 L61185 58840" /> 
<g style = "stroke-linecap:round;" > 
<path d="M61185 58840 L61185 58840" /> 
</g><path d="M61471 59564 L61471 59030" /> 
<g style = "stroke-linecap:round;" > 
<path d="M61471 59030 L61471 59030" /> 
</g><path d="M61471 59107 L61499 59069" /> 
<path d="M61499 59069 L61557 59030" /> 
<path d="M61557 59030 L61642 59030" /> 
<path d="M61642 59030 L61699 59069" /> 
<path d="M61699 59069 L61728 59145" /> 
<path d="M61728 59145 L61728 59564" /> 
<g style = "stroke-linecap:round;" > 
<path d="M61728 59564 L61728 59564" /> 
</g><path d="M61728 59145 L61757 59069" /> 
<path d="M61757 59069 L61814 59030" /> 
<path d="M61814 59030 L61899 59030" /> 
<path d="M61899 59030 L61957 59069" /> 
<path d="M61957 59069 L61985 59145" /> 
<path d="M61985 59145 L61985 59564" /> 
<g style = "stroke-linecap:round;" > 
<path d="M61985 59564 L61985 59564" /> 
</g><path d="M62499 59526 L62442 59564" /> 
<path d="M62442 59564 L62328 59564" /> 
<path d="M62328 59564 L62271 59526" /> 
<path d="M62271 59526 L62242 59450" /> 
<path d="M62242 59450 L62242 59145" /> 
<path d="M62242 59145 L62271 59069" /> 
<path d="M62271 59069 L62328 59030" /> 
<path d="M62328 59030 L62442 59030" /> 
<path d="M62442 59030 L62499 59069" /> 
<path d="M62499 59069 L62528 59145" /> 
<path d="M62528 59145 L62528 59221" /> 
<path d="M62528 59221 L62242 59297" /> 
<g style = "stroke-linecap:round;" > 
<path d="M62242 59297 L62242 59297" /> 
</g><path d="M62785 59030 L62785 59564" /> 
<g style = "stroke-linecap:round;" > 
<path d="M62785 59564 L62785 59564" /> 
</g><path d="M62785 59107 L62813 59069" /> 
<path d="M62813 59069 L62871 59030" /> 
<path d="M62871 59030 L62956 59030" /> 
<path d="M62956 59030 L63013 59069" /> 
<path d="M63013 59069 L63042 59145" /> 
<path d="M63042 59145 L63042 59564" /> 
<g style = "stroke-linecap:round;" > 
<path d="M63042 59564 L63042 59564" /> 
</g><path d="M63242 59030 L63471 59030" /> 
<g style = "stroke-linecap:round;" > 
<path d="M63471 59030 L63471 59030" /> 
</g><path d="M63328 58764 L63328 59450" /> 
<path d="M63328 59450 L63356 59526" /> 
<path d="M63356 59526 L63414 59564" /> 
<path d="M63414 59564 L63471 59564" /> 
<g style = "stroke-linecap:round;" > 
<path d="M63471 59564 L63471 59564" /> 
</g><path d="M63928 59564 L63928 59145" /> 
<path d="M63928 59145 L63899 59069" /> 
<path d="M63899 59069 L63842 59030" /> 
<path d="M63842 59030 L63728 59030" /> 
<path d="M63728 59030 L63671 59069" /> 
<g style = "stroke-linecap:round;" > 
<path d="M63671 59069 L63671 59069" /> 
</g><path d="M63928 59526 L63871 59564" /> 
<path d="M63871 59564 L63728 59564" /> 
<path d="M63728 59564 L63671 59526" /> 
<path d="M63671 59526 L63642 59450" /> 
<path d="M63642 59450 L63642 59373" /> 
<path d="M63642 59373 L63671 59297" /> 
<path d="M63671 59297 L63728 59259" /> 
<path d="M63728 59259 L63871 59259" /> 
<path d="M63871 59259 L63928 59221" /> 
<g style = "stroke-linecap:round;" > 
<path d="M63928 59221 L63928 59221" /> 
</g><path d="M64128 59030 L64357 59030" /> 
<g style = "stroke-linecap:round;" > 
<path d="M64357 59030 L64357 59030" /> 
</g><path d="M64214 58764 L64214 59450" /> 
<path d="M64214 59450 L64242 59526" /> 
<path d="M64242 59526 L64300 59564" /> 
<path d="M64300 59564 L64357 59564" /> 
<g style = "stroke-linecap:round;" > 
<path d="M64357 59564 L64357 59564" /> 
</g><path d="M64557 59564 L64557 59030" /> 
<g style = "stroke-linecap:round;" > 
<path d="M64557 59030 L64557 59030" /> 
</g><path d="M64557 58764 L64528 58802" /> 
<path d="M64528 58802 L64557 58840" /> 
<path d="M64557 58840 L64585 58802" /> 
<path d="M64585 58802 L64557 58764" /> 
<path d="M64557 58764 L64557 58840" /> 
<g style = "stroke-linecap:round;" > 
<path d="M64557 58840 L64557 58840" /> 
</g><path d="M64929 59564 L64871 59526" /> 
<path d="M64871 59526 L64843 59488" /> 
<path d="M64843 59488 L64814 59411" /> 
<path d="M64814 59411 L64814 59183" /> 
<path d="M64814 59183 L64843 59107" /> 
<path d="M64843 59107 L64871 59069" /> 
<path d="M64871 59069 L64929 59030" /> 
<path d="M64929 59030 L65014 59030" /> 
<path d="M65014 59030 L65071 59069" /> 
<path d="M65071 59069 L65100 59107" /> 
<path d="M65100 59107 L65129 59183" /> 
<path d="M65129 59183 L65129 59411" /> 
<path d="M65129 59411 L65100 59488" /> 
<path d="M65100 59488 L65071 59526" /> 
<path d="M65071 59526 L65014 59564" /> 
<path d="M65014 59564 L64929 59564" /> 
<path d="M65386 59030 L65386 59564" /> 
<g style = "stroke-linecap:round;" > 
<path d="M65386 59564 L65386 59564" /> 
</g><path d="M65386 59107 L65414 59069" /> 
<path d="M65414 59069 L65472 59030" /> 
<path d="M65472 59030 L65557 59030" /> 
<path d="M65557 59030 L65614 59069" /> 
<path d="M65614 59069 L65643 59145" /> 
<path d="M65643 59145 L65643 59564" /> 
<g style = "stroke-linecap:round;" > 
<path d="M65643 59564 L65643 59564" /> 
</g></g>
<g style="fill:#A00000; fill-opacity:0.0; 
  stroke:#A00000; stroke-linecap:round; stroke-linejoin:round; stroke-opacity:1.0; stroke-opacity:1.0; stroke-width:394" 
   transform="translate(0 0) scale(1 1)">
<path d="M69500 41500 L58000 41500" /> 
<path d="M54000 47000 L54000 43500" /> 
<path d="M54500 47500 L54000 47000" /> 
<path d="M57000 47500 L54500 47500" /> 
<path d="M57500 47000 L57000 47500" /> 
<path d="M57500 42000 L57500 47000" /> 
<path d="M58000 41500 L57500 42000" /> 
<path d="M69500 42000 L69500 41500" /> 
<path d="M69500 41500 L69500 28500" /> 
<path d="M69000 28000 L42500 28000" /> 
<path d="M69500 28500 L69000 28000" /> 
<path d="M66000 54000 L69000 54000" /> 
<path d="M69500 53500 L69500 42000" /> 
<path d="M69000 54000 L69500 53500" /> 
<path d="M64000 54000 L66000 54000" /> 
<path d="M53100 48500 L57000 48500" /> 
<path d="M58000 54000 L60000 54000" /> 
<path d="M57500 53500 L58000 54000" /> 
<path d="M57500 49000 L57500 53500" /> 
<path d="M57000 48500 L57500 49000" /> 
<path d="M53100 46000 L53100 48500" /> 
<path d="M53100 48500 L53100 48900" /> 
<path d="M53000 49000 L50900 49000" /> 
<path d="M53100 48900 L53000 49000" /> 
<path d="M50400 45500 L51000 45500" /> 
<path d="M51500 46000 L53100 46000" /> 
<path d="M51000 45500 L51500 46000" /> 
<path d="M62000 54000 L60000 54000" /> 
<path d="M42500 51500 L45000 51500" /> 
<path d="M45500 52000 L45500 59500" /> 
<path d="M45000 51500 L45500 52000" /> 
<path d="M44500 59500 L45500 59500" /> 
<path d="M47000 44500 L47000 42000" /> 
<path d="M55500 46000 L54900 46000" /> 
<path d="M56000 45500 L55500 46000" /> 
<path d="M56000 42000 L56000 45500" /> 
<path d="M55500 41500 L56000 42000" /> 
<path d="M47500 41500 L55500 41500" /> 
<path d="M47000 42000 L47500 41500" /> 
<path d="M49600 45150 L49150 45150" /> 
<path d="M48500 44500 L47000 44500" /> 
<path d="M49150 45150 L48500 44500" /> 
<path d="M45500 49000 L45500 48500" /> 
<path d="M45000 48000 L45000 46500" /> 
<path d="M45500 48500 L45000 48000" /> 
<path d="M45500 50500 L45500 49000" /> 
<path d="M49100 49000 L45500 49000" /> 
<path d="M44500 50500 L45500 50500" /> 
<path d="M49600 45850 L49150 45850" /> 
<path d="M48500 46500 L47000 46500" /> 
<path d="M49150 45850 L48500 46500" /> 
<path d="M47000 46500 L45000 46500" /> 
<path d="M45000 40000 L45000 46500" /> 
<path d="M42500 40000 L45000 40000" /> 
<path d="M45000 40000 L45000 34000" /> 
<path d="M63500 39500 L63500 34500" /> 
<path d="M63000 34000 L53500 34000" /> 
<path d="M63500 34500 L63000 34000" /> 
<path d="M42500 34000 L45000 34000" /> 
<path d="M45000 34000 L53500 34000" /> 
<path d="M53500 34000 L53500 39500" /> 
</g>
<g style="fill:#A00000; fill-opacity:0.0; 
  stroke:#A00000; stroke-linecap:round; stroke-linejoin:round; stroke-opacity:1.0; stroke-opacity:1.0; stroke-width:100" 
   transform="translate(0 0) scale(1 1)">
<path d="M70450 60450 L70450 60450" /> 
<path d="M69947 60450 L70450 60450" /> 
<path d="M69947 53500 L69947 60450" /> 
<path d="M69947 42000 L69947 53500" /> 
<path d="M69947 41500 L69947 42000" /> 
<path d="M69947 28500 L69947 41500" /> 
<path d="M69913 28329 L69947 28500" /> 
<path d="M69816 28184 L69913 28329" /> 
<path d="M69316 27684 L69816 28184" /> 
<path d="M69171 27587 L69316 27684" /> 
<path d="M69050 27562 L69171 27587" /> 
<path d="M69050 24210 L69050 27562" /> 
<path d="M69050 23792 L69050 24210" /> 
<path d="M68890 23406 L69050 23792" /> 
<path d="M68595 23110 L68890 23406" /> 
<path d="M68210 22950 L68595 23110" /> 
<path d="M67792 22950 L68210 22950" /> 
<path d="M67406 23110 L67792 22950" /> 
<path d="M67110 23405 L67406 23110" /> 
<path d="M66950 23790 L67110 23405" /> 
<path d="M66950 24208 L66950 23790" /> 
<path d="M67110 24594 L66950 24208" /> 
<path d="M67405 24890 L67110 24594" /> 
<path d="M67790 25050 L67405 24890" /> 
<path d="M68208 25050 L67790 25050" /> 
<path d="M68594 24890 L68208 25050" /> 
<path d="M68890 24595 L68594 24890" /> 
<path d="M69050 24210 L68890 24595" /> 
<path d="M69050 27562 L69050 24210" /> 
<path d="M69000 27553 L69050 27562" /> 
<path d="M43930 27553 L69000 27553" /> 
<path d="M43930 26967 L43930 27553" /> 
<path d="M43892 26875 L43930 26967" /> 
<path d="M43822 26805 L43892 26875" /> 
<path d="M43731 26767 L43822 26805" /> 
<path d="M43632 26767 L43731 26767" /> 
<path d="M43050 26767 L43632 26767" /> 
<path d="M43050 24210 L43050 26767" /> 
<path d="M43050 23792 L43050 24210" /> 
<path d="M42890 23406 L43050 23792" /> 
<path d="M42595 23110 L42890 23406" /> 
<path d="M42210 22950 L42595 23110" /> 
<path d="M41792 22950 L42210 22950" /> 
<path d="M41406 23110 L41792 22950" /> 
<path d="M41110 23405 L41406 23110" /> 
<path d="M40950 23790 L41110 23405" /> 
<path d="M40950 24208 L40950 23790" /> 
<path d="M41110 24594 L40950 24208" /> 
<path d="M41405 24890 L41110 24594" /> 
<path d="M41790 25050 L41405 24890" /> 
<path d="M42208 25050 L41790 25050" /> 
<path d="M42594 24890 L42208 25050" /> 
<path d="M42890 24595 L42594 24890" /> 
<path d="M43050 24210 L42890 24595" /> 
<path d="M43050 26767 L43050 24210" /> 
<path d="M41270 26767 L43050 26767" /> 
<path d="M41178 26805 L41270 26767" /> 
<path d="M41108 26875 L41178 26805" /> 
<path d="M41070 26966 L41108 26875" /> 
<path d="M41070 27065 L41070 26966" /> 
<path d="M41070 29033 L41070 27065" /> 
<path d="M41108 29125 L41070 29033" /> 
<path d="M41178 29195 L41108 29125" /> 
<path d="M41269 29233 L41178 29195" /> 
<path d="M41368 29233 L41269 29233" /> 
<path d="M43730 29233 L41368 29233" /> 
<path d="M43822 29195 L43730 29233" /> 
<path d="M43892 29125 L43822 29195" /> 
<path d="M43930 29034 L43892 29125" /> 
<path d="M43930 28935 L43930 29034" /> 
<path d="M43930 28447 L43930 28935" /> 
<path d="M68815 28447 L43930 28447" /> 
<path d="M69053 28685 L68815 28447" /> 
<path d="M69053 41053 L69053 28685" /> 
<path d="M60340 41053 L69053 41053" /> 
<path d="M60340 39612 L60340 41053" /> 
<path d="M60340 39388 L60340 39612" /> 
<path d="M60339 38467 L60340 39388" /> 
<path d="M60301 38375 L60339 38467" /> 
<path d="M60231 38305 L60301 38375" /> 
<path d="M60140 38267 L60231 38305" /> 
<path d="M60041 38267 L60140 38267" /> 
<path d="M59612 38266 L60041 38267" /> 
<path d="M59550 38328 L59612 38266" /> 
<path d="M59550 39450 L59550 38328" /> 
<path d="M60278 39450 L59550 39450" /> 
<path d="M60340 39388 L60278 39450" /> 
<path d="M60340 39612 L60340 39388" /> 
<path d="M60278 39550 L60340 39612" /> 
<path d="M59550 39550 L60278 39550" /> 
<path d="M59550 40672 L59550 39550" /> 
<path d="M59612 40734 L59550 40672" /> 
<path d="M60041 40733 L59612 40734" /> 
<path d="M60140 40733 L60041 40733" /> 
<path d="M60231 40695 L60140 40733" /> 
<path d="M60301 40625 L60231 40695" /> 
<path d="M60339 40533 L60301 40625" /> 
<path d="M60340 39612 L60339 40533" /> 
<path d="M60340 41053 L60340 39612" /> 
<path d="M59450 41053 L60340 41053" /> 
<path d="M59450 40672 L59450 41053" /> 
<path d="M59450 39550 L59450 40672" /> 
<path d="M59450 39450 L59450 39550" /> 
<path d="M59450 38328 L59450 39450" /> 
<path d="M59388 38266 L59450 38328" /> 
<path d="M58959 38267 L59388 38266" /> 
<path d="M58860 38267 L58959 38267" /> 
<path d="M58769 38305 L58860 38267" /> 
<path d="M58699 38375 L58769 38305" /> 
<path d="M58661 38467 L58699 38375" /> 
<path d="M58660 39388 L58661 38467" /> 
<path d="M58722 39450 L58660 39388" /> 
<path d="M59450 39450 L58722 39450" /> 
<path d="M59450 39550 L59450 39450" /> 
<path d="M58722 39550 L59450 39550" /> 
<path d="M58660 39612 L58722 39550" /> 
<path d="M58661 40533 L58660 39612" /> 
<path d="M58699 40625 L58661 40533" /> 
<path d="M58769 40695 L58699 40625" /> 
<path d="M58860 40733 L58769 40695" /> 
<path d="M58959 40733 L58860 40733" /> 
<path d="M59388 40734 L58959 40733" /> 
<path d="M59450 40672 L59388 40734" /> 
<path d="M59450 41053 L59450 40672" /> 
<path d="M58000 41053 L59450 41053" /> 
<path d="M57829 41087 L58000 41053" /> 
<path d="M57684 41184 L57829 41087" /> 
<path d="M57184 41684 L57684 41184" /> 
<path d="M57087 41829 L57184 41684" /> 
<path d="M57053 42000 L57087 41829" /> 
<path d="M57053 46815 L57053 42000" /> 
<path d="M56815 47053 L57053 46815" /> 
<path d="M54685 47053 L56815 47053" /> 
<path d="M54449 46817 L54685 47053" /> 
<path d="M54525 46849 L54449 46817" /> 
<path d="M54624 46849 L54525 46849" /> 
<path d="M55274 46849 L54624 46849" /> 
<path d="M55366 46811 L55274 46849" /> 
<path d="M55436 46741 L55366 46811" /> 
<path d="M55474 46650 L55436 46741" /> 
<path d="M55474 46551 L55474 46650" /> 
<path d="M55474 46447 L55474 46551" /> 
<path d="M55500 46447 L55474 46447" /> 
<path d="M55671 46413 L55500 46447" /> 
<path d="M55816 46316 L55671 46413" /> 
<path d="M56316 45816 L55816 46316" /> 
<path d="M56413 45671 L56316 45816" /> 
<path d="M56447 45500 L56413 45671" /> 
<path d="M56447 42000 L56447 45500" /> 
<path d="M56413 41829 L56447 42000" /> 
<path d="M56316 41684 L56413 41829" /> 
<path d="M55816 41184 L56316 41684" /> 
<path d="M55671 41087 L55816 41184" /> 
<path d="M55500 41053 L55671 41087" /> 
<path d="M50340 41053 L55500 41053" /> 
<path d="M50340 39612 L50340 41053" /> 
<path d="M50340 39388 L50340 39612" /> 
<path d="M50339 38467 L50340 39388" /> 
<path d="M50301 38375 L50339 38467" /> 
<path d="M50231 38305 L50301 38375" /> 
<path d="M50140 38267 L50231 38305" /> 
<path d="M50041 38267 L50140 38267" /> 
<path d="M49612 38266 L50041 38267" /> 
<path d="M49550 38328 L49612 38266" /> 
<path d="M49550 39450 L49550 38328" /> 
<path d="M50278 39450 L49550 39450" /> 
<path d="M50340 39388 L50278 39450" /> 
<path d="M50340 39612 L50340 39388" /> 
<path d="M50278 39550 L50340 39612" /> 
<path d="M49550 39550 L50278 39550" /> 
<path d="M49550 40672 L49550 39550" /> 
<path d="M49612 40734 L49550 40672" /> 
<path d="M50041 40733 L49612 40734" /> 
<path d="M50140 40733 L50041 40733" /> 
<path d="M50231 40695 L50140 40733" /> 
<path d="M50301 40625 L50231 40695" /> 
<path d="M50339 40533 L50301 40625" /> 
<path d="M50340 39612 L50339 40533" /> 
<path d="M50340 41053 L50340 39612" /> 
<path d="M49450 41053 L50340 41053" /> 
<path d="M49450 40672 L49450 41053" /> 
<path d="M49450 39550 L49450 40672" /> 
<path d="M49450 39450 L49450 39550" /> 
<path d="M49450 38328 L49450 39450" /> 
<path d="M49388 38266 L49450 38328" /> 
<path d="M48959 38267 L49388 38266" /> 
<path d="M48860 38267 L48959 38267" /> 
<path d="M48769 38305 L48860 38267" /> 
<path d="M48699 38375 L48769 38305" /> 
<path d="M48661 38467 L48699 38375" /> 
<path d="M48660 39388 L48661 38467" /> 
<path d="M48722 39450 L48660 39388" /> 
<path d="M49450 39450 L48722 39450" /> 
<path d="M49450 39550 L49450 39450" /> 
<path d="M48722 39550 L49450 39550" /> 
<path d="M48660 39612 L48722 39550" /> 
<path d="M48661 40533 L48660 39612" /> 
<path d="M48699 40625 L48661 40533" /> 
<path d="M48769 40695 L48699 40625" /> 
<path d="M48860 40733 L48769 40695" /> 
<path d="M48959 40733 L48860 40733" /> 
<path d="M49388 40734 L48959 40733" /> 
<path d="M49450 40672 L49388 40734" /> 
<path d="M49450 41053 L49450 40672" /> 
<path d="M47500 41053 L49450 41053" /> 
<path d="M47329 41087 L47500 41053" /> 
<path d="M47184 41184 L47329 41087" /> 
<path d="M46684 41684 L47184 41184" /> 
<path d="M46587 41829 L46684 41684" /> 
<path d="M46553 42000 L46587 41829" /> 
<path d="M46553 43661 L46553 42000" /> 
<path d="M45967 43661 L46553 43661" /> 
<path d="M45875 43699 L45967 43661" /> 
<path d="M45805 43769 L45875 43699" /> 
<path d="M45767 43860 L45805 43769" /> 
<path d="M45767 43959 L45767 43860" /> 
<path d="M45767 45139 L45767 43959" /> 
<path d="M45805 45231 L45767 45139" /> 
<path d="M45875 45301 L45805 45231" /> 
<path d="M45966 45339 L45875 45301" /> 
<path d="M46065 45339 L45966 45339" /> 
<path d="M48033 45339 L46065 45339" /> 
<path d="M48125 45301 L48033 45339" /> 
<path d="M48195 45231 L48125 45301" /> 
<path d="M48233 45140 L48195 45231" /> 
<path d="M48233 45041 L48233 45140" /> 
<path d="M48233 44947 L48233 45041" /> 
<path d="M48315 44947 L48233 44947" /> 
<path d="M48834 45466 L48315 44947" /> 
<path d="M48884 45500 L48834 45466" /> 
<path d="M48834 45534 L48884 45500" /> 
<path d="M48315 46053 L48834 45534" /> 
<path d="M48233 46053 L48315 46053" /> 
<path d="M48233 45861 L48233 46053" /> 
<path d="M48195 45769 L48233 45861" /> 
<path d="M48125 45699 L48195 45769" /> 
<path d="M48034 45661 L48125 45699" /> 
<path d="M47935 45661 L48034 45661" /> 
<path d="M45967 45661 L47935 45661" /> 
<path d="M45875 45699 L45967 45661" /> 
<path d="M45805 45769 L45875 45699" /> 
<path d="M45767 45860 L45805 45769" /> 
<path d="M45767 45959 L45767 45860" /> 
<path d="M45767 46053 L45767 45959" /> 
<path d="M45447 46053 L45767 46053" /> 
<path d="M45447 40000 L45447 46053" /> 
<path d="M45447 34447 L45447 40000" /> 
<path d="M53053 34447 L45447 34447" /> 
<path d="M53053 38267 L53053 34447" /> 
<path d="M52861 38267 L53053 38267" /> 
<path d="M52769 38305 L52861 38267" /> 
<path d="M52699 38375 L52769 38305" /> 
<path d="M52661 38466 L52699 38375" /> 
<path d="M52661 38565 L52661 38466" /> 
<path d="M52661 40533 L52661 38565" /> 
<path d="M52699 40625 L52661 40533" /> 
<path d="M52769 40695 L52699 40625" /> 
<path d="M52860 40733 L52769 40695" /> 
<path d="M52959 40733 L52860 40733" /> 
<path d="M54139 40733 L52959 40733" /> 
<path d="M54231 40695 L54139 40733" /> 
<path d="M54301 40625 L54231 40695" /> 
<path d="M54339 40534 L54301 40625" /> 
<path d="M54339 40435 L54339 40534" /> 
<path d="M54339 38467 L54339 40435" /> 
<path d="M54301 38375 L54339 38467" /> 
<path d="M54231 38305 L54301 38375" /> 
<path d="M54140 38267 L54231 38305" /> 
<path d="M54041 38267 L54140 38267" /> 
<path d="M53947 38267 L54041 38267" /> 
<path d="M53947 34447 L53947 38267" /> 
<path d="M62815 34447 L53947 34447" /> 
<path d="M63053 34685 L62815 34447" /> 
<path d="M63053 38267 L63053 34685" /> 
<path d="M62861 38267 L63053 38267" /> 
<path d="M62769 38305 L62861 38267" /> 
<path d="M62699 38375 L62769 38305" /> 
<path d="M62661 38466 L62699 38375" /> 
<path d="M62661 38565 L62661 38466" /> 
<path d="M62661 40533 L62661 38565" /> 
<path d="M62699 40625 L62661 40533" /> 
<path d="M62769 40695 L62699 40625" /> 
<path d="M62860 40733 L62769 40695" /> 
<path d="M62959 40733 L62860 40733" /> 
<path d="M64139 40733 L62959 40733" /> 
<path d="M64231 40695 L64139 40733" /> 
<path d="M64301 40625 L64231 40695" /> 
<path d="M64339 40534 L64301 40625" /> 
<path d="M64339 40435 L64339 40534" /> 
<path d="M64339 38467 L64339 40435" /> 
<path d="M64301 38375 L64339 38467" /> 
<path d="M64231 38305 L64301 38375" /> 
<path d="M64140 38267 L64231 38305" /> 
<path d="M64041 38267 L64140 38267" /> 
<path d="M63947 38267 L64041 38267" /> 
<path d="M63947 34500 L63947 38267" /> 
<path d="M63913 34329 L63947 34500" /> 
<path d="M63816 34184 L63913 34329" /> 
<path d="M63316 33684 L63816 34184" /> 
<path d="M63171 33587 L63316 33684" /> 
<path d="M63000 33553 L63171 33587" /> 
<path d="M53500 33553 L63000 33553" /> 
<path d="M45000 33553 L53500 33553" /> 
<path d="M43931 33553 L45000 33553" /> 
<path d="M43931 31112 L43931 33553" /> 
<path d="M43931 30888 L43931 31112" /> 
<path d="M43930 30065 L43931 30888" /> 
<path d="M43930 29966 L43930 30065" /> 
<path d="M43892 29875 L43930 29966" /> 
<path d="M43822 29805 L43892 29875" /> 
<path d="M43730 29767 L43822 29805" /> 
<path d="M42612 29766 L43730 29767" /> 
<path d="M42550 29828 L42612 29766" /> 
<path d="M42550 30950 L42550 29828" /> 
<path d="M43869 30950 L42550 30950" /> 
<path d="M43931 30888 L43869 30950" /> 
<path d="M43931 31112 L43931 30888" /> 
<path d="M43869 31050 L43931 31112" /> 
<path d="M42550 31050 L43869 31050" /> 
<path d="M42550 32172 L42550 31050" /> 
<path d="M42612 32234 L42550 32172" /> 
<path d="M43730 32233 L42612 32234" /> 
<path d="M43822 32195 L43730 32233" /> 
<path d="M43892 32125 L43822 32195" /> 
<path d="M43930 32034 L43892 32125" /> 
<path d="M43930 31935 L43930 32034" /> 
<path d="M43931 31112 L43930 31935" /> 
<path d="M43931 33553 L43931 31112" /> 
<path d="M43930 33553 L43931 33553" /> 
<path d="M43930 32967 L43930 33553" /> 
<path d="M43892 32875 L43930 32967" /> 
<path d="M43822 32805 L43892 32875" /> 
<path d="M43731 32767 L43822 32805" /> 
<path d="M43632 32767 L43731 32767" /> 
<path d="M42450 32767 L43632 32767" /> 
<path d="M42450 32172 L42450 32767" /> 
<path d="M42450 31050 L42450 32172" /> 
<path d="M42450 30950 L42450 31050" /> 
<path d="M42450 29828 L42450 30950" /> 
<path d="M42388 29766 L42450 29828" /> 
<path d="M41270 29767 L42388 29766" /> 
<path d="M41178 29805 L41270 29767" /> 
<path d="M41108 29875 L41178 29805" /> 
<path d="M41070 29966 L41108 29875" /> 
<path d="M41070 30065 L41070 29966" /> 
<path d="M41069 30888 L41070 30065" /> 
<path d="M41131 30950 L41069 30888" /> 
<path d="M42450 30950 L41131 30950" /> 
<path d="M42450 31050 L42450 30950" /> 
<path d="M41131 31050 L42450 31050" /> 
<path d="M41069 31112 L41131 31050" /> 
<path d="M41070 31935 L41069 31112" /> 
<path d="M41070 32034 L41070 31935" /> 
<path d="M41108 32125 L41070 32034" /> 
<path d="M41178 32195 L41108 32125" /> 
<path d="M41270 32233 L41178 32195" /> 
<path d="M42388 32234 L41270 32233" /> 
<path d="M42450 32172 L42388 32234" /> 
<path d="M42450 32767 L42450 32172" /> 
<path d="M41270 32767 L42450 32767" /> 
<path d="M41178 32805 L41270 32767" /> 
<path d="M41108 32875 L41178 32805" /> 
<path d="M41070 32966 L41108 32875" /> 
<path d="M41070 33065 L41070 32966" /> 
<path d="M41070 35033 L41070 33065" /> 
<path d="M41108 35125 L41070 35033" /> 
<path d="M41178 35195 L41108 35125" /> 
<path d="M41269 35233 L41178 35195" /> 
<path d="M41368 35233 L41269 35233" /> 
<path d="M43730 35233 L41368 35233" /> 
<path d="M43822 35195 L43730 35233" /> 
<path d="M43892 35125 L43822 35195" /> 
<path d="M43930 35034 L43892 35125" /> 
<path d="M43930 34935 L43930 35034" /> 
<path d="M43930 34447 L43930 34935" /> 
<path d="M44553 34447 L43930 34447" /> 
<path d="M44553 39553 L44553 34447" /> 
<path d="M43931 39553 L44553 39553" /> 
<path d="M43931 37112 L43931 39553" /> 
<path d="M43931 36888 L43931 37112" /> 
<path d="M43930 36065 L43931 36888" /> 
<path d="M43930 35966 L43930 36065" /> 
<path d="M43892 35875 L43930 35966" /> 
<path d="M43822 35805 L43892 35875" /> 
<path d="M43730 35767 L43822 35805" /> 
<path d="M42612 35766 L43730 35767" /> 
<path d="M42550 35828 L42612 35766" /> 
<path d="M42550 36950 L42550 35828" /> 
<path d="M43869 36950 L42550 36950" /> 
<path d="M43931 36888 L43869 36950" /> 
<path d="M43931 37112 L43931 36888" /> 
<path d="M43869 37050 L43931 37112" /> 
<path d="M42550 37050 L43869 37050" /> 
<path d="M42550 38172 L42550 37050" /> 
<path d="M42612 38234 L42550 38172" /> 
<path d="M43730 38233 L42612 38234" /> 
<path d="M43822 38195 L43730 38233" /> 
<path d="M43892 38125 L43822 38195" /> 
<path d="M43930 38034 L43892 38125" /> 
<path d="M43930 37935 L43930 38034" /> 
<path d="M43931 37112 L43930 37935" /> 
<path d="M43931 39553 L43931 37112" /> 
<path d="M43930 39553 L43931 39553" /> 
<path d="M43930 38967 L43930 39553" /> 
<path d="M43892 38875 L43930 38967" /> 
<path d="M43822 38805 L43892 38875" /> 
<path d="M43731 38767 L43822 38805" /> 
<path d="M43632 38767 L43731 38767" /> 
<path d="M42450 38767 L43632 38767" /> 
<path d="M42450 38172 L42450 38767" /> 
<path d="M42450 37050 L42450 38172" /> 
<path d="M42450 36950 L42450 37050" /> 
<path d="M42450 35828 L42450 36950" /> 
<path d="M42388 35766 L42450 35828" /> 
<path d="M41270 35767 L42388 35766" /> 
<path d="M41178 35805 L41270 35767" /> 
<path d="M41108 35875 L41178 35805" /> 
<path d="M41070 35966 L41108 35875" /> 
<path d="M41070 36065 L41070 35966" /> 
<path d="M41069 36888 L41070 36065" /> 
<path d="M41131 36950 L41069 36888" /> 
<path d="M42450 36950 L41131 36950" /> 
<path d="M42450 37050 L42450 36950" /> 
<path d="M41131 37050 L42450 37050" /> 
<path d="M41069 37112 L41131 37050" /> 
<path d="M41070 37935 L41069 37112" /> 
<path d="M41070 38034 L41070 37935" /> 
<path d="M41108 38125 L41070 38034" /> 
<path d="M41178 38195 L41108 38125" /> 
<path d="M41270 38233 L41178 38195" /> 
<path d="M42388 38234 L41270 38233" /> 
<path d="M42450 38172 L42388 38234" /> 
<path d="M42450 38767 L42450 38172" /> 
<path d="M41270 38767 L42450 38767" /> 
<path d="M41178 38805 L41270 38767" /> 
<path d="M41108 38875 L41178 38805" /> 
<path d="M41070 38966 L41108 38875" /> 
<path d="M41070 39065 L41070 38966" /> 
<path d="M41070 41033 L41070 39065" /> 
<path d="M41108 41125 L41070 41033" /> 
<path d="M41178 41195 L41108 41125" /> 
<path d="M41269 41233 L41178 41195" /> 
<path d="M41368 41233 L41269 41233" /> 
<path d="M43730 41233 L41368 41233" /> 
<path d="M43822 41195 L43730 41233" /> 
<path d="M43892 41125 L43822 41195" /> 
<path d="M43930 41034 L43892 41125" /> 
<path d="M43930 40935 L43930 41034" /> 
<path d="M43930 40447 L43930 40935" /> 
<path d="M44553 40447 L43930 40447" /> 
<path d="M44553 46500 L44553 40447" /> 
<path d="M44553 48000 L44553 46500" /> 
<path d="M44587 48171 L44553 48000" /> 
<path d="M44684 48316 L44587 48171" /> 
<path d="M45053 48685 L44684 48316" /> 
<path d="M45053 49000 L45053 48685" /> 
<path d="M45053 50053 L45053 49000" /> 
<path d="M44852 50053 L45053 50053" /> 
<path d="M44820 50021 L44852 50053" /> 
<path d="M44613 49935 L44820 50021" /> 
<path d="M44388 49935 L44613 49935" /> 
<path d="M44180 50021 L44388 49935" /> 
<path d="M44021 50180 L44180 50021" /> 
<path d="M43935 50387 L44021 50180" /> 
<path d="M43935 50612 L43935 50387" /> 
<path d="M44021 50820 L43935 50612" /> 
<path d="M44180 50979 L44021 50820" /> 
<path d="M44358 51053 L44180 50979" /> 
<path d="M43931 51053 L44358 51053" /> 
<path d="M43931 43112 L43931 51053" /> 
<path d="M43931 42888 L43931 43112" /> 
<path d="M43930 42065 L43931 42888" /> 
<path d="M43930 41966 L43930 42065" /> 
<path d="M43892 41875 L43930 41966" /> 
<path d="M43822 41805 L43892 41875" /> 
<path d="M43730 41767 L43822 41805" /> 
<path d="M42612 41766 L43730 41767" /> 
<path d="M42550 41828 L42612 41766" /> 
<path d="M42550 42950 L42550 41828" /> 
<path d="M43869 42950 L42550 42950" /> 
<path d="M43931 42888 L43869 42950" /> 
<path d="M43931 43112 L43931 42888" /> 
<path d="M43869 43050 L43931 43112" /> 
<path d="M42550 43050 L43869 43050" /> 
<path d="M42550 44172 L42550 43050" /> 
<path d="M42612 44234 L42550 44172" /> 
<path d="M43730 44233 L42612 44234" /> 
<path d="M43822 44195 L43730 44233" /> 
<path d="M43892 44125 L43822 44195" /> 
<path d="M43930 44034 L43892 44125" /> 
<path d="M43930 43935 L43930 44034" /> 
<path d="M43931 43112 L43930 43935" /> 
<path d="M43931 51053 L43931 43112" /> 
<path d="M43930 51053 L43931 51053" /> 
<path d="M43930 50467 L43930 51053" /> 
<path d="M43892 50375 L43930 50467" /> 
<path d="M43822 50305 L43892 50375" /> 
<path d="M43731 50267 L43822 50305" /> 
<path d="M43632 50267 L43731 50267" /> 
<path d="M42450 50267 L43632 50267" /> 
<path d="M42450 44172 L42450 50267" /> 
<path d="M42450 43050 L42450 44172" /> 
<path d="M42450 42950 L42450 43050" /> 
<path d="M42450 41828 L42450 42950" /> 
<path d="M42388 41766 L42450 41828" /> 
<path d="M41270 41767 L42388 41766" /> 
<path d="M41178 41805 L41270 41767" /> 
<path d="M41108 41875 L41178 41805" /> 
<path d="M41070 41966 L41108 41875" /> 
<path d="M41070 42065 L41070 41966" /> 
<path d="M41069 42888 L41070 42065" /> 
<path d="M41131 42950 L41069 42888" /> 
<path d="M42450 42950 L41131 42950" /> 
<path d="M42450 43050 L42450 42950" /> 
<path d="M41131 43050 L42450 43050" /> 
<path d="M41069 43112 L41131 43050" /> 
<path d="M41070 43935 L41069 43112" /> 
<path d="M41070 44034 L41070 43935" /> 
<path d="M41108 44125 L41070 44034" /> 
<path d="M41178 44195 L41108 44125" /> 
<path d="M41270 44233 L41178 44195" /> 
<path d="M42388 44234 L41270 44233" /> 
<path d="M42450 44172 L42388 44234" /> 
<path d="M42450 50267 L42450 44172" /> 
<path d="M41270 50267 L42450 50267" /> 
<path d="M41178 50305 L41270 50267" /> 
<path d="M41108 50375 L41178 50305" /> 
<path d="M41070 50466 L41108 50375" /> 
<path d="M41070 50565 L41070 50466" /> 
<path d="M41070 52533 L41070 50565" /> 
<path d="M41108 52625 L41070 52533" /> 
<path d="M41178 52695 L41108 52625" /> 
<path d="M41269 52733 L41178 52695" /> 
<path d="M41368 52733 L41269 52733" /> 
<path d="M43730 52733 L41368 52733" /> 
<path d="M43822 52695 L43730 52733" /> 
<path d="M43892 52625 L43822 52695" /> 
<path d="M43930 52534 L43892 52625" /> 
<path d="M43930 52435 L43930 52534" /> 
<path d="M43930 51947 L43930 52435" /> 
<path d="M44815 51947 L43930 51947" /> 
<path d="M45053 52185 L44815 51947" /> 
<path d="M45053 59053 L45053 52185" /> 
<path d="M44852 59053 L45053 59053" /> 
<path d="M44820 59021 L44852 59053" /> 
<path d="M44613 58935 L44820 59021" /> 
<path d="M44388 58935 L44613 58935" /> 
<path d="M44180 59021 L44388 58935" /> 
<path d="M44021 59180 L44180 59021" /> 
<path d="M43935 59387 L44021 59180" /> 
<path d="M43935 59612 L43935 59387" /> 
<path d="M44021 59820 L43935 59612" /> 
<path d="M44180 59979 L44021 59820" /> 
<path d="M44387 60065 L44180 59979" /> 
<path d="M44612 60065 L44387 60065" /> 
<path d="M44820 59979 L44612 60065" /> 
<path d="M44852 59947 L44820 59979" /> 
<path d="M45148 59947 L44852 59947" /> 
<path d="M45180 59979 L45148 59947" /> 
<path d="M45387 60065 L45180 59979" /> 
<path d="M45612 60065 L45387 60065" /> 
<path d="M45820 59979 L45612 60065" /> 
<path d="M45979 59820 L45820 59979" /> 
<path d="M46065 59613 L45979 59820" /> 
<path d="M46065 59388 L46065 59613" /> 
<path d="M45979 59180 L46065 59388" /> 
<path d="M45947 59148 L45979 59180" /> 
<path d="M45947 52000 L45947 59148" /> 
<path d="M45913 51829 L45947 52000" /> 
<path d="M45816 51684 L45913 51829" /> 
<path d="M45316 51184 L45816 51684" /> 
<path d="M45171 51087 L45316 51184" /> 
<path d="M45000 51053 L45171 51087" /> 
<path d="M44641 51053 L45000 51053" /> 
<path d="M44820 50979 L44641 51053" /> 
<path d="M44852 50947 L44820 50979" /> 
<path d="M45148 50947 L44852 50947" /> 
<path d="M45180 50979 L45148 50947" /> 
<path d="M45387 51065 L45180 50979" /> 
<path d="M45612 51065 L45387 51065" /> 
<path d="M45820 50979 L45612 51065" /> 
<path d="M45979 50820 L45820 50979" /> 
<path d="M46065 50613 L45979 50820" /> 
<path d="M46065 50388 L46065 50613" /> 
<path d="M45979 50180 L46065 50388" /> 
<path d="M45947 50148 L45979 50180" /> 
<path d="M45947 49447 L45947 50148" /> 
<path d="M48064 49447 L45947 49447" /> 
<path d="M48064 50427 L48064 49447" /> 
<path d="M48102 50519 L48064 50427" /> 
<path d="M48172 50589 L48102 50519" /> 
<path d="M48263 50627 L48172 50589" /> 
<path d="M48362 50627 L48263 50627" /> 
<path d="M49936 50627 L48362 50627" /> 
<path d="M49999 50600 L49936 50627" /> 
<path d="M50063 50627 L49999 50600" /> 
<path d="M50162 50627 L50063 50627" /> 
<path d="M51736 50627 L50162 50627" /> 
<path d="M51828 50589 L51736 50627" /> 
<path d="M51898 50519 L51828 50589" /> 
<path d="M51936 50428 L51898 50519" /> 
<path d="M51936 50329 L51936 50428" /> 
<path d="M51936 49447 L51936 50329" /> 
<path d="M53000 49447 L51936 49447" /> 
<path d="M53171 49413 L53000 49447" /> 
<path d="M53316 49316 L53171 49413" /> 
<path d="M53416 49216 L53316 49316" /> 
<path d="M53513 49071 L53416 49216" /> 
<path d="M53537 48947 L53513 49071" /> 
<path d="M56815 48947 L53537 48947" /> 
<path d="M57053 49185 L56815 48947" /> 
<path d="M57053 50483 L57053 49185" /> 
<path d="M57047 50363 L57053 50483" /> 
<path d="M56984 50210 L57047 50363" /> 
<path d="M56889 50182 L56984 50210" /> 
<path d="M56818 50253 L56889 50182" /> 
<path d="M56818 50111 L56818 50253" /> 
<path d="M56790 50016 L56818 50111" /> 
<path d="M56583 49942 L56790 50016" /> 
<path d="M56363 49953 L56583 49942" /> 
<path d="M56210 50016 L56363 49953" /> 
<path d="M56182 50111 L56210 50016" /> 
<path d="M56500 50429 L56182 50111" /> 
<path d="M56818 50111 L56500 50429" /> 
<path d="M56818 50253 L56818 50111" /> 
<path d="M56571 50500 L56818 50253" /> 
<path d="M56889 50818 L56571 50500" /> 
<path d="M56984 50790 L56889 50818" /> 
<path d="M57053 50596 L56984 50790" /> 
<path d="M57053 53500 L57053 50596" /> 
<path d="M57087 53671 L57053 53500" /> 
<path d="M57184 53816 L57087 53671" /> 
<path d="M57684 54316 L57184 53816" /> 
<path d="M57829 54413 L57684 54316" /> 
<path d="M58000 54447 L57829 54413" /> 
<path d="M59163 54447 L58000 54447" /> 
<path d="M59199 54534 L59163 54447" /> 
<path d="M59269 54604 L59199 54534" /> 
<path d="M59360 54642 L59269 54604" /> 
<path d="M59459 54642 L59360 54642" /> 
<path d="M60639 54642 L59459 54642" /> 
<path d="M60731 54604 L60639 54642" /> 
<path d="M60801 54534 L60731 54604" /> 
<path d="M60837 54447 L60801 54534" /> 
<path d="M61358 54447 L60837 54447" /> 
<path d="M61358 54836 L61358 54447" /> 
<path d="M61396 54928 L61358 54836" /> 
<path d="M61466 54998 L61396 54928" /> 
<path d="M61557 55036 L61466 54998" /> 
<path d="M61656 55036 L61557 55036" /> 
<path d="M62442 55036 L61656 55036" /> 
<path d="M62499 55012 L62442 55036" /> 
<path d="M62557 55036 L62499 55012" /> 
<path d="M62656 55036 L62557 55036" /> 
<path d="M62888 55037 L62656 55036" /> 
<path d="M62950 54975 L62888 55037" /> 
<path d="M62950 54100 L62950 54975" /> 
<path d="M62950 54050 L62950 54100" /> 
<path d="M62950 53950 L62950 54050" /> 
<path d="M62950 53900 L62950 53950" /> 
<path d="M62950 53025 L62950 53900" /> 
<path d="M62888 52963 L62950 53025" /> 
<path d="M62656 52964 L62888 52963" /> 
<path d="M62557 52964 L62656 52964" /> 
<path d="M62500 52987 L62557 52964" /> 
<path d="M62443 52964 L62500 52987" /> 
<path d="M62344 52964 L62443 52964" /> 
<path d="M61558 52964 L62344 52964" /> 
<path d="M61466 53002 L61558 52964" /> 
<path d="M61396 53072 L61466 53002" /> 
<path d="M61358 53163 L61396 53072" /> 
<path d="M61358 53262 L61358 53163" /> 
<path d="M61358 53553 L61358 53262" /> 
<path d="M60836 53553 L61358 53553" /> 
<path d="M60801 53466 L60836 53553" /> 
<path d="M60731 53396 L60801 53466" /> 
<path d="M60640 53358 L60731 53396" /> 
<path d="M60541 53358 L60640 53358" /> 
<path d="M59361 53358 L60541 53358" /> 
<path d="M59269 53396 L59361 53358" /> 
<path d="M59199 53466 L59269 53396" /> 
<path d="M59162 53553 L59199 53466" /> 
<path d="M58185 53553 L59162 53553" /> 
<path d="M57947 53315 L58185 53553" /> 
<path d="M57947 51544 L57947 53315" /> 
<path d="M58029 51579 L57947 51544" /> 
<path d="M58128 51579 L58029 51579" /> 
<path d="M62888 51580 L58128 51579" /> 
<path d="M62950 51518 L62888 51580" /> 
<path d="M62950 47100 L62950 51518" /> 
<path d="M62950 47050 L62950 47100" /> 
<path d="M62950 46950 L62950 47050" /> 
<path d="M62950 46900 L62950 46950" /> 
<path d="M62950 42482 L62950 46900" /> 
<path d="M62888 42420 L62950 42482" /> 
<path d="M58128 42421 L62888 42420" /> 
<path d="M58029 42421 L58128 42421" /> 
<path d="M57947 42455 L58029 42421" /> 
<path d="M57947 42185 L57947 42455" /> 
<path d="M58185 41947 L57947 42185" /> 
<path d="M69053 41947 L58185 41947" /> 
<path d="M69053 42000 L69053 41947" /> 
<path d="M69053 53315 L69053 42000" /> 
<path d="M68815 53553 L69053 53315" /> 
<path d="M68171 53553 L68815 53553" /> 
<path d="M68171 47112 L68171 53553" /> 
<path d="M68171 46888 L68171 47112" /> 
<path d="M68170 42621 L68171 46888" /> 
<path d="M68132 42529 L68170 42621" /> 
<path d="M68062 42459 L68132 42529" /> 
<path d="M67971 42421 L68062 42459" /> 
<path d="M67872 42421 L67971 42421" /> 
<path d="M63112 42420 L67872 42421" /> 
<path d="M63050 42482 L63112 42420" /> 
<path d="M63050 46950 L63050 42482" /> 
<path d="M68109 46950 L63050 46950" /> 
<path d="M68171 46888 L68109 46950" /> 
<path d="M68171 47112 L68171 46888" /> 
<path d="M68109 47050 L68171 47112" /> 
<path d="M63050 47050 L68109 47050" /> 
<path d="M63050 51518 L63050 47050" /> 
<path d="M63112 51580 L63050 51518" /> 
<path d="M67872 51579 L63112 51580" /> 
<path d="M67971 51579 L67872 51579" /> 
<path d="M68062 51541 L67971 51579" /> 
<path d="M68132 51471 L68062 51541" /> 
<path d="M68170 51379 L68132 51471" /> 
<path d="M68171 47112 L68170 51379" /> 
<path d="M68171 53553 L68171 47112" /> 
<path d="M66836 53553 L68171 53553" /> 
<path d="M66801 53466 L66836 53553" /> 
<path d="M66731 53396 L66801 53466" /> 
<path d="M66640 53358 L66731 53396" /> 
<path d="M66541 53358 L66640 53358" /> 
<path d="M65361 53358 L66541 53358" /> 
<path d="M65269 53396 L65361 53358" /> 
<path d="M65199 53466 L65269 53396" /> 
<path d="M65162 53553 L65199 53466" /> 
<path d="M64642 53553 L65162 53553" /> 
<path d="M64642 53164 L64642 53553" /> 
<path d="M64604 53072 L64642 53164" /> 
<path d="M64534 53002 L64604 53072" /> 
<path d="M64443 52964 L64534 53002" /> 
<path d="M64344 52964 L64443 52964" /> 
<path d="M63558 52964 L64344 52964" /> 
<path d="M63500 52987 L63558 52964" /> 
<path d="M63443 52964 L63500 52987" /> 
<path d="M63344 52964 L63443 52964" /> 
<path d="M63112 52963 L63344 52964" /> 
<path d="M63050 53025 L63112 52963" /> 
<path d="M63050 53900 L63050 53025" /> 
<path d="M63050 53950 L63050 53900" /> 
<path d="M63050 54050 L63050 53950" /> 
<path d="M63050 54100 L63050 54050" /> 
<path d="M63050 54975 L63050 54100" /> 
<path d="M63112 55037 L63050 54975" /> 
<path d="M63344 55036 L63112 55037" /> 
<path d="M63443 55036 L63344 55036" /> 
<path d="M63500 55012 L63443 55036" /> 
<path d="M63557 55036 L63500 55012" /> 
<path d="M63656 55036 L63557 55036" /> 
<path d="M64442 55036 L63656 55036" /> 
<path d="M64534 54998 L64442 55036" /> 
<path d="M64604 54928 L64534 54998" /> 
<path d="M64642 54837 L64604 54928" /> 
<path d="M64642 54738 L64642 54837" /> 
<path d="M64642 54447 L64642 54738" /> 
<path d="M65163 54447 L64642 54447" /> 
<path d="M65199 54534 L65163 54447" /> 
<path d="M65269 54604 L65199 54534" /> 
<path d="M65360 54642 L65269 54604" /> 
<path d="M65459 54642 L65360 54642" /> 
<path d="M66639 54642 L65459 54642" /> 
<path d="M66731 54604 L66639 54642" /> 
<path d="M66801 54534 L66731 54604" /> 
<path d="M66837 54447 L66801 54534" /> 
<path d="M69000 54447 L66837 54447" /> 
<path d="M69171 54413 L69000 54447" /> 
<path d="M69316 54316 L69171 54413" /> 
<path d="M69816 53816 L69316 54316" /> 
<path d="M69913 53671 L69816 53816" /> 
<path d="M69947 53500 L69913 53671" /> 
<path d="M69947 60450 L69947 53500" /> 
<path d="M69050 60450 L69947 60450" /> 
<path d="M69050 58210 L69050 60450" /> 
<path d="M69050 57792 L69050 58210" /> 
<path d="M68890 57406 L69050 57792" /> 
<path d="M68595 57110 L68890 57406" /> 
<path d="M68210 56950 L68595 57110" /> 
<path d="M67792 56950 L68210 56950" /> 
<path d="M67406 57110 L67792 56950" /> 
<path d="M67110 57405 L67406 57110" /> 
<path d="M66950 57790 L67110 57405" /> 
<path d="M66950 58208 L66950 57790" /> 
<path d="M67110 58594 L66950 58208" /> 
<path d="M67405 58890 L67110 58594" /> 
<path d="M67790 59050 L67405 58890" /> 
<path d="M68208 59050 L67790 59050" /> 
<path d="M68594 58890 L68208 59050" /> 
<path d="M68890 58595 L68594 58890" /> 
<path d="M69050 58210 L68890 58595" /> 
<path d="M69050 60450 L69050 58210" /> 
<path d="M66840 60450 L69050 60450" /> 
<path d="M66840 56112 L66840 60450" /> 
<path d="M66840 55888 L66840 56112" /> 
<path d="M66839 55558 L66840 55888" /> 
<path d="M66801 55466 L66839 55558" /> 
<path d="M66731 55396 L66801 55466" /> 
<path d="M66640 55358 L66731 55396" /> 
<path d="M66541 55358 L66640 55358" /> 
<path d="M66112 55357 L66541 55358" /> 
<path d="M66050 55419 L66112 55357" /> 
<path d="M66050 55950 L66050 55419" /> 
<path d="M66778 55950 L66050 55950" /> 
<path d="M66840 55888 L66778 55950" /> 
<path d="M66840 56112 L66840 55888" /> 
<path d="M66778 56050 L66840 56112" /> 
<path d="M66050 56050 L66778 56050" /> 
<path d="M66050 56581 L66050 56050" /> 
<path d="M66112 56643 L66050 56581" /> 
<path d="M66541 56642 L66112 56643" /> 
<path d="M66640 56642 L66541 56642" /> 
<path d="M66731 56604 L66640 56642" /> 
<path d="M66801 56534 L66731 56604" /> 
<path d="M66839 56442 L66801 56534" /> 
<path d="M66840 56112 L66839 56442" /> 
<path d="M66840 60450 L66840 56112" /> 
<path d="M66096 60450 L66840 60450" /> 
<path d="M66096 60110 L66096 60450" /> 
<path d="M66096 57010 L66096 60110" /> 
<path d="M65950 57010 L66096 57010" /> 
<path d="M65950 56581 L65950 57010" /> 
<path d="M65950 56050 L65950 56581" /> 
<path d="M65950 55950 L65950 56050" /> 
<path d="M65950 55419 L65950 55950" /> 
<path d="M65888 55357 L65950 55419" /> 
<path d="M65459 55358 L65888 55357" /> 
<path d="M65360 55358 L65459 55358" /> 
<path d="M65269 55396 L65360 55358" /> 
<path d="M65199 55466 L65269 55396" /> 
<path d="M65161 55558 L65199 55466" /> 
<path d="M65160 55888 L65161 55558" /> 
<path d="M65222 55950 L65160 55888" /> 
<path d="M65950 55950 L65222 55950" /> 
<path d="M65950 56050 L65950 55950" /> 
<path d="M65222 56050 L65950 56050" /> 
<path d="M65160 56112 L65222 56050" /> 
<path d="M65161 56442 L65160 56112" /> 
<path d="M65199 56534 L65161 56442" /> 
<path d="M65269 56604 L65199 56534" /> 
<path d="M65360 56642 L65269 56604" /> 
<path d="M65459 56642 L65360 56642" /> 
<path d="M65888 56643 L65459 56642" /> 
<path d="M65950 56581 L65888 56643" /> 
<path d="M65950 57010 L65950 56581" /> 
<path d="M60840 57010 L65950 57010" /> 
<path d="M60840 56112 L60840 57010" /> 
<path d="M60840 55888 L60840 56112" /> 
<path d="M60839 55558 L60840 55888" /> 
<path d="M60801 55466 L60839 55558" /> 
<path d="M60731 55396 L60801 55466" /> 
<path d="M60640 55358 L60731 55396" /> 
<path d="M60541 55358 L60640 55358" /> 
<path d="M60112 55357 L60541 55358" /> 
<path d="M60050 55419 L60112 55357" /> 
<path d="M60050 55950 L60050 55419" /> 
<path d="M60778 55950 L60050 55950" /> 
<path d="M60840 55888 L60778 55950" /> 
<path d="M60840 56112 L60840 55888" /> 
<path d="M60778 56050 L60840 56112" /> 
<path d="M60050 56050 L60778 56050" /> 
<path d="M60050 56581 L60050 56050" /> 
<path d="M60112 56643 L60050 56581" /> 
<path d="M60541 56642 L60112 56643" /> 
<path d="M60640 56642 L60541 56642" /> 
<path d="M60731 56604 L60640 56642" /> 
<path d="M60801 56534 L60731 56604" /> 
<path d="M60839 56442 L60801 56534" /> 
<path d="M60840 56112 L60839 56442" /> 
<path d="M60840 57010 L60840 56112" /> 
<path d="M59950 57010 L60840 57010" /> 
<path d="M59950 56581 L59950 57010" /> 
<path d="M59950 56050 L59950 56581" /> 
<path d="M59950 55950 L59950 56050" /> 
<path d="M59950 55419 L59950 55950" /> 
<path d="M59888 55357 L59950 55419" /> 
<path d="M59459 55358 L59888 55357" /> 
<path d="M59360 55358 L59459 55358" /> 
<path d="M59269 55396 L59360 55358" /> 
<path d="M59199 55466 L59269 55396" /> 
<path d="M59161 55558 L59199 55466" /> 
<path d="M59160 55888 L59161 55558" /> 
<path d="M59222 55950 L59160 55888" /> 
<path d="M59950 55950 L59222 55950" /> 
<path d="M59950 56050 L59950 55950" /> 
<path d="M59222 56050 L59950 56050" /> 
<path d="M59160 56112 L59222 56050" /> 
<path d="M59161 56442 L59160 56112" /> 
<path d="M59199 56534 L59161 56442" /> 
<path d="M59269 56604 L59199 56534" /> 
<path d="M59360 56642 L59269 56604" /> 
<path d="M59459 56642 L59360 56642" /> 
<path d="M59888 56643 L59459 56642" /> 
<path d="M59950 56581 L59888 56643" /> 
<path d="M59950 57010 L59950 56581" /> 
<path d="M59784 57010 L59950 57010" /> 
<path d="M59784 60110 L59784 57010" /> 
<path d="M66096 60110 L59784 60110" /> 
<path d="M66096 60450 L66096 60110" /> 
<path d="M57058 60450 L66096 60450" /> 
<path d="M57058 59583 L57058 60450" /> 
<path d="M57047 59363 L57058 59583" /> 
<path d="M56984 59210 L57047 59363" /> 
<path d="M56889 59182 L56984 59210" /> 
<path d="M56818 59253 L56889 59182" /> 
<path d="M56818 59111 L56818 59253" /> 
<path d="M56818 50889 L56818 59111" /> 
<path d="M56500 50571 L56818 50889" /> 
<path d="M56429 50642 L56500 50571" /> 
<path d="M56429 50500 L56429 50642" /> 
<path d="M56111 50182 L56429 50500" /> 
<path d="M56016 50210 L56111 50182" /> 
<path d="M56001 50251 L56016 50210" /> 
<path d="M55984 50210 L56001 50251" /> 
<path d="M55889 50182 L55984 50210" /> 
<path d="M55818 50253 L55889 50182" /> 
<path d="M55818 50111 L55818 50253" /> 
<path d="M55790 50016 L55818 50111" /> 
<path d="M55583 49942 L55790 50016" /> 
<path d="M55363 49953 L55583 49942" /> 
<path d="M55210 50016 L55363 49953" /> 
<path d="M55182 50111 L55210 50016" /> 
<path d="M55500 50429 L55182 50111" /> 
<path d="M55818 50111 L55500 50429" /> 
<path d="M55818 50253 L55818 50111" /> 
<path d="M55571 50500 L55818 50253" /> 
<path d="M55889 50818 L55571 50500" /> 
<path d="M55984 50790 L55889 50818" /> 
<path d="M55998 50748 L55984 50790" /> 
<path d="M56016 50790 L55998 50748" /> 
<path d="M56111 50818 L56016 50790" /> 
<path d="M56429 50500 L56111 50818" /> 
<path d="M56429 50642 L56429 50500" /> 
<path d="M56182 50889 L56429 50642" /> 
<path d="M56210 50984 L56182 50889" /> 
<path d="M56417 51058 L56210 50984" /> 
<path d="M56637 51047 L56417 51058" /> 
<path d="M56790 50984 L56637 51047" /> 
<path d="M56818 50889 L56790 50984" /> 
<path d="M56818 59111 L56818 50889" /> 
<path d="M56790 59016 L56818 59111" /> 
<path d="M56583 58942 L56790 59016" /> 
<path d="M56363 58953 L56583 58942" /> 
<path d="M56210 59016 L56363 58953" /> 
<path d="M56182 59111 L56210 59016" /> 
<path d="M56500 59429 L56182 59111" /> 
<path d="M56818 59111 L56500 59429" /> 
<path d="M56818 59253 L56818 59111" /> 
<path d="M56571 59500 L56818 59253" /> 
<path d="M56889 59818 L56571 59500" /> 
<path d="M56984 59790 L56889 59818" /> 
<path d="M57058 59583 L56984 59790" /> 
<path d="M57058 60450 L57058 59583" /> 
<path d="M56818 60450 L57058 60450" /> 
<path d="M56818 59889 L56818 60450" /> 
<path d="M56500 59571 L56818 59889" /> 
<path d="M56429 59642 L56500 59571" /> 
<path d="M56429 59500 L56429 59642" /> 
<path d="M56111 59182 L56429 59500" /> 
<path d="M56016 59210 L56111 59182" /> 
<path d="M56001 59251 L56016 59210" /> 
<path d="M55984 59210 L56001 59251" /> 
<path d="M55889 59182 L55984 59210" /> 
<path d="M55818 59253 L55889 59182" /> 
<path d="M55818 59111 L55818 59253" /> 
<path d="M55818 50889 L55818 59111" /> 
<path d="M55500 50571 L55818 50889" /> 
<path d="M55429 50642 L55500 50571" /> 
<path d="M55429 50500 L55429 50642" /> 
<path d="M55111 50182 L55429 50500" /> 
<path d="M55016 50210 L55111 50182" /> 
<path d="M54942 50417 L55016 50210" /> 
<path d="M54953 50637 L54942 50417" /> 
<path d="M55016 50790 L54953 50637" /> 
<path d="M55111 50818 L55016 50790" /> 
<path d="M55429 50500 L55111 50818" /> 
<path d="M55429 50642 L55429 50500" /> 
<path d="M55182 50889 L55429 50642" /> 
<path d="M55210 50984 L55182 50889" /> 
<path d="M55417 51058 L55210 50984" /> 
<path d="M55637 51047 L55417 51058" /> 
<path d="M55790 50984 L55637 51047" /> 
<path d="M55818 50889 L55790 50984" /> 
<path d="M55818 59111 L55818 50889" /> 
<path d="M55790 59016 L55818 59111" /> 
<path d="M55583 58942 L55790 59016" /> 
<path d="M55363 58953 L55583 58942" /> 
<path d="M55210 59016 L55363 58953" /> 
<path d="M55182 59111 L55210 59016" /> 
<path d="M55500 59429 L55182 59111" /> 
<path d="M55818 59111 L55500 59429" /> 
<path d="M55818 59253 L55818 59111" /> 
<path d="M55571 59500 L55818 59253" /> 
<path d="M55889 59818 L55571 59500" /> 
<path d="M55984 59790 L55889 59818" /> 
<path d="M55998 59748 L55984 59790" /> 
<path d="M56016 59790 L55998 59748" /> 
<path d="M56111 59818 L56016 59790" /> 
<path d="M56429 59500 L56111 59818" /> 
<path d="M56429 59642 L56429 59500" /> 
<path d="M56182 59889 L56429 59642" /> 
<path d="M56210 59984 L56182 59889" /> 
<path d="M56417 60058 L56210 59984" /> 
<path d="M56637 60047 L56417 60058" /> 
<path d="M56790 59984 L56637 60047" /> 
<path d="M56818 59889 L56790 59984" /> 
<path d="M56818 60450 L56818 59889" /> 
<path d="M55818 60450 L56818 60450" /> 
<path d="M55818 59889 L55818 60450" /> 
<path d="M55500 59571 L55818 59889" /> 
<path d="M55429 59642 L55500 59571" /> 
<path d="M55429 59500 L55429 59642" /> 
<path d="M55111 59182 L55429 59500" /> 
<path d="M55016 59210 L55111 59182" /> 
<path d="M54942 59417 L55016 59210" /> 
<path d="M54953 59637 L54942 59417" /> 
<path d="M55016 59790 L54953 59637" /> 
<path d="M55111 59818 L55016 59790" /> 
<path d="M55429 59500 L55111 59818" /> 
<path d="M55429 59642 L55429 59500" /> 
<path d="M55182 59889 L55429 59642" /> 
<path d="M55210 59984 L55182 59889" /> 
<path d="M55417 60058 L55210 59984" /> 
<path d="M55637 60047 L55417 60058" /> 
<path d="M55790 59984 L55637 60047" /> 
<path d="M55818 59889 L55790 59984" /> 
<path d="M55818 60450 L55818 59889" /> 
<path d="M43931 60450 L55818 60450" /> 
<path d="M43931 54612 L43931 60450" /> 
<path d="M43931 54388 L43931 54612" /> 
<path d="M43930 53565 L43931 54388" /> 
<path d="M43930 53466 L43930 53565" /> 
<path d="M43892 53375 L43930 53466" /> 
<path d="M43822 53305 L43892 53375" /> 
<path d="M43730 53267 L43822 53305" /> 
<path d="M42612 53266 L43730 53267" /> 
<path d="M42550 53328 L42612 53266" /> 
<path d="M42550 54450 L42550 53328" /> 
<path d="M43869 54450 L42550 54450" /> 
<path d="M43931 54388 L43869 54450" /> 
<path d="M43931 54612 L43931 54388" /> 
<path d="M43869 54550 L43931 54612" /> 
<path d="M42550 54550 L43869 54550" /> 
<path d="M42550 55672 L42550 54550" /> 
<path d="M42612 55734 L42550 55672" /> 
<path d="M43730 55733 L42612 55734" /> 
<path d="M43822 55695 L43730 55733" /> 
<path d="M43892 55625 L43822 55695" /> 
<path d="M43930 55534 L43892 55625" /> 
<path d="M43930 55435 L43930 55534" /> 
<path d="M43931 54612 L43930 55435" /> 
<path d="M43931 60450 L43931 54612" /> 
<path d="M43050 60450 L43931 60450" /> 
<path d="M43050 58210 L43050 60450" /> 
<path d="M43050 57792 L43050 58210" /> 
<path d="M42890 57406 L43050 57792" /> 
<path d="M42595 57110 L42890 57406" /> 
<path d="M42450 57049 L42595 57110" /> 
<path d="M42450 55672 L42450 57049" /> 
<path d="M42450 54550 L42450 55672" /> 
<path d="M42450 54450 L42450 54550" /> 
<path d="M42450 53328 L42450 54450" /> 
<path d="M42388 53266 L42450 53328" /> 
<path d="M41270 53267 L42388 53266" /> 
<path d="M41178 53305 L41270 53267" /> 
<path d="M41108 53375 L41178 53305" /> 
<path d="M41070 53466 L41108 53375" /> 
<path d="M41070 53565 L41070 53466" /> 
<path d="M41069 54388 L41070 53565" /> 
<path d="M41131 54450 L41069 54388" /> 
<path d="M42450 54450 L41131 54450" /> 
<path d="M42450 54550 L42450 54450" /> 
<path d="M41131 54550 L42450 54550" /> 
<path d="M41069 54612 L41131 54550" /> 
<path d="M41070 55435 L41069 54612" /> 
<path d="M41070 55534 L41070 55435" /> 
<path d="M41108 55625 L41070 55534" /> 
<path d="M41178 55695 L41108 55625" /> 
<path d="M41270 55733 L41178 55695" /> 
<path d="M42388 55734 L41270 55733" /> 
<path d="M42450 55672 L42388 55734" /> 
<path d="M42450 57049 L42450 55672" /> 
<path d="M42210 56950 L42450 57049" /> 
<path d="M41792 56950 L42210 56950" /> 
<path d="M41406 57110 L41792 56950" /> 
<path d="M41110 57405 L41406 57110" /> 
<path d="M40950 57790 L41110 57405" /> 
<path d="M40950 58208 L40950 57790" /> 
<path d="M41110 58594 L40950 58208" /> 
<path d="M41405 58890 L41110 58594" /> 
<path d="M41790 59050 L41405 58890" /> 
<path d="M42208 59050 L41790 59050" /> 
<path d="M42594 58890 L42208 59050" /> 
<path d="M42890 58595 L42594 58890" /> 
<path d="M43050 58210 L42890 58595" /> 
<path d="M43050 60450 L43050 58210" /> 
<path d="M39550 60450 L43050 60450" /> 
<path d="M39550 21550 L39550 60450" /> 
<path d="M70450 21550 L39550 21550" /> 
<path d="M70450 60450 L70450 21550" /> 
</g>
<g style="fill:#A00000; fill-opacity:1.0; 
  stroke:#A00000; stroke-linecap:round; stroke-linejoin:round; stroke-opacity:1.0; stroke-opacity:1.0; stroke-width:0" 
   transform="translate(0 0) scale(1 1)">
<polygon style="fill-rule:evenodd; " 
points="69947,41500
69947,28500
69913,28329
69816,28184
69316,27684
69171,27587
69050,27562
69050,24210
69050,23792
68890,23406
68595,23110
68210,22950
67792,22950
67406,23110
67110,23405
66950,23790
66950,24208
67110,24594
67405,24890
67790,25050
68208,25050
68594,24890
68890,24595
69050,24210
69050,27562
69000,27553
43930,27553
43930,26967
43892,26875
43822,26805
43731,26767
43632,26767
43050,26767
43050,24210
43050,23792
42890,23406
42595,23110
42210,22950
41792,22950
41406,23110
41110,23405
40950,23790
40950,24208
41110,24594
41405,24890
41790,25050
42208,25050
42594,24890
42890,24595
43050,24210
43050,26767
41270,26767
41178,26805
41108,26875
41070,26966
41070,27065
41070,29033
41108,29125
41178,29195
41269,29233
41368,29233
43730,29233
43822,29195
43892,29125
43930,29034
43930,28935
43930,28447
68815,28447
69053,28685
69053,41053
60340,41053
60340,39612
60340,39388
60339,38467
60301,38375
60231,38305
60140,38267
60041,38267
59612,38266
59550,38328
59550,39450
60278,39450
60340,39388
60340,39612
60278,39550
59550,39550
59550,40672
59612,40734
60041,40733
60140,40733
60231,40695
60301,40625
60339,40533
60340,39612
60340,41053
59450,41053
59450,40672
59450,39550
59450,39450
59450,38328
59388,38266
58959,38267
58860,38267
58769,38305
58699,38375
58661,38467
58660,39388
58722,39450
59450,39450
59450,39550
58722,39550
58660,39612
58661,40533
58699,40625
58769,40695
58860,40733
58959,40733
59388,40734
59450,40672
59450,41053
58000,41053
57829,41087
57684,41184
57184,41684
57087,41829
57053,42000
57053,46815
56815,47053
54685,47053
54449,46817
54525,46849
54624,46849
55274,46849
55366,46811
55436,46741
55474,46650
55474,46551
55474,46447
55500,46447
55671,46413
55816,46316
56316,45816
56413,45671
56447,45500
56447,42000
56413,41829
56316,41684
55816,41184
55671,41087
55500,41053
50340,41053
50340,39612
50340,39388
50339,38467
50301,38375
50231,38305
50140,38267
50041,38267
49612,38266
49550,38328
49550,39450
50278,39450
50340,39388
50340,39612
50278,39550
49550,39550
49550,40672
49612,40734
50041,40733
50140,40733
50231,40695
50301,40625
50339,40533
50340,39612
50340,41053
49450,41053
49450,40672
49450,39550
49450,39450
49450,38328
49388,38266
48959,38267
48860,38267
48769,38305
48699,38375
48661,38467
48660,39388
48722,39450
49450,39450
49450,39550
48722,39550
48660,39612
48661,40533
48699,40625
48769,40695
48860,40733
48959,40733
49388,40734
49450,40672
49450,41053
47500,41053
47329,41087
47184,41184
46684,41684
46587,41829
46553,42000
46553,43661
45967,43661
45875,43699
45805,43769
45767,43860
45767,43959
45767,45139
45805,45231
45875,45301
45966,45339
46065,45339
48033,45339
48125,45301
48195,45231
48233,45140
48233,45041
48233,44947
48315,44947
48834,45466
48884,45500
48834,45534
48315,46053
48233,46053
48233,45861
48195,45769
48125,45699
48034,45661
47935,45661
45967,45661
45875,45699
45805,45769
45767,45860
45767,45959
45767,46053
45447,46053
45447,40000
45447,34447
53053,34447
53053,38267
52861,38267
52769,38305
52699,38375
52661,38466
52661,38565
52661,40533
52699,40625
52769,40695
52860,40733
52959,40733
54139,40733
54231,40695
54301,40625
54339,40534
54339,40435
54339,38467
54301,38375
54231,38305
54140,38267
54041,38267
53947,38267
53947,34447
62815,34447
63053,34685
63053,38267
62861,38267
62769,38305
62699,38375
62661,38466
62661,38565
62661,40533
62699,40625
62769,40695
62860,40733
62959,40733
64139,40733
64231,40695
64301,40625
64339,40534
64339,40435
64339,38467
64301,38375
64231,38305
64140,38267
64041,38267
63947,38267
63947,34500
63913,34329
63816,34184
63316,33684
63171,33587
63000,33553
53500,33553
45000,33553
43931,33553
43931,31112
43931,30888
43930,30065
43930,29966
43892,29875
43822,29805
43730,29767
42612,29766
42550,29828
42550,30950
43869,30950
43931,30888
43931,31112
43869,31050
42550,31050
42550,32172
42612,32234
43730,32233
43822,32195
43892,32125
43930,32034
43930,31935
43931,31112
43931,33553
43930,33553
43930,32967
43892,32875
43822,32805
43731,32767
43632,32767
42450,32767
42450,32172
42450,31050
42450,30950
42450,29828
42388,29766
41270,29767
41178,29805
41108,29875
41070,29966
41070,30065
41069,30888
41131,30950
42450,30950
42450,31050
41131,31050
41069,31112
41070,31935
41070,32034
41108,32125
41178,32195
41270,32233
42388,32234
42450,32172
42450,32767
41270,32767
41178,32805
41108,32875
41070,32966
41070,33065
41070,35033
41108,35125
41178,35195
41269,35233
41368,35233
43730,35233
43822,35195
43892,35125
43930,35034
43930,34935
43930,34447
44553,34447
44553,39553
43931,39553
43931,37112
43931,36888
43930,36065
43930,35966
43892,35875
43822,35805
43730,35767
42612,35766
42550,35828
42550,36950
43869,36950
43931,36888
43931,37112
43869,37050
42550,37050
42550,38172
42612,38234
43730,38233
43822,38195
43892,38125
43930,38034
43930,37935
43931,37112
43931,39553
43930,39553
43930,38967
43892,38875
43822,38805
43731,38767
43632,38767
42450,38767
42450,38172
42450,37050
42450,36950
42450,35828
42388,35766
41270,35767
41178,35805
41108,35875
41070,35966
41070,36065
41069,36888
41131,36950
42450,36950
42450,37050
41131,37050
41069,37112
41070,37935
41070,38034
41108,38125
41178,38195
41270,38233
42388,38234
42450,38172
42450,38767
41270,38767
41178,38805
41108,38875
41070,38966
41070,39065
41070,41033
41108,41125
41178,41195
41269,41233
41368,41233
43730,41233
43822,41195
43892,41125
43930,41034
43930,40935
43930,40447
44553,40447
44553,46500
44553,48000
44587,48171
44684,48316
45053,48685
45053,49000
45053,50053
44852,50053
44820,50021
44613,49935
44388,49935
44180,50021
44021,50180
43935,50387
43935,50612
44021,50820
44180,50979
44358,51053
43931,51053
43931,43112
43931,42888
43930,42065
43930,41966
43892,41875
43822,41805
43730,41767
42612,41766
42550,41828
42550,42950
43869,42950
43931,42888
43931,43112
43869,43050
42550,43050
42550,44172
42612,44234
43730,44233
43822,44195
43892,44125
43930,44034
43930,43935
43931,43112
43931,51053
43930,51053
43930,50467
43892,50375
43822,50305
43731,50267
43632,50267
42450,50267
42450,44172
42450,43050
42450,42950
42450,41828
42388,41766
41270,41767
41178,41805
41108,41875
41070,41966
41070,42065
41069,42888
41131,42950
42450,42950
42450,43050
41131,43050
41069,43112
41070,43935
41070,44034
41108,44125
41178,44195
41270,44233
42388,44234
42450,44172
42450,50267
41270,50267
41178,50305
41108,50375
41070,50466
41070,50565
41070,52533
41108,52625
41178,52695
41269,52733
41368,52733
43730,52733
43822,52695
43892,52625
43930,52534
43930,52435
43930,51947
44815,51947
45053,52185
45053,59053
44852,59053
44820,59021
44613,58935
44388,58935
44180,59021
44021,59180
43935,59387
43935,59612
44021,59820
44180,59979
44387,60065
44612,60065
44820,59979
44852,59947
45148,59947
45180,59979
45387,60065
45612,60065
45820,59979
45979,59820
46065,59613
46065,59388
45979,59180
45947,59148
45947,52000
45913,51829
45816,51684
45316,51184
45171,51087
45000,51053
44641,51053
44820,50979
44852,50947
45148,50947
45180,50979
45387,51065
45612,51065
45820,50979
45979,50820
46065,50613
46065,50388
45979,50180
45947,50148
45947,49447
48064,49447
48064,50427
48102,50519
48172,50589
48263,50627
48362,50627
49936,50627
49999,50600
50063,50627
50162,50627
51736,50627
51828,50589
51898,50519
51936,50428
51936,50329
51936,49447
53000,49447
53171,49413
53316,49316
53416,49216
53513,49071
53537,48947
56815,48947
57053,49185
57053,50483
57047,50363
56984,50210
56889,50182
56818,50253
56818,50111
56790,50016
56583,49942
56363,49953
56210,50016
56182,50111
56500,50429
56818,50111
56818,50253
56571,50500
56889,50818
56984,50790
57053,50596
57053,53500
57087,53671
57184,53816
57684,54316
57829,54413
58000,54447
59163,54447
59199,54534
59269,54604
59360,54642
59459,54642
60639,54642
60731,54604
60801,54534
60837,54447
61358,54447
61358,54836
61396,54928
61466,54998
61557,55036
61656,55036
62442,55036
62499,55012
62557,55036
62656,55036
62888,55037
62950,54975
62950,54100
62950,54050
62950,53950
62950,53900
62950,53025
62888,52963
62656,52964
62557,52964
62500,52987
62443,52964
62344,52964
61558,52964
61466,53002
61396,53072
61358,53163
61358,53262
61358,53553
60836,53553
60801,53466
60731,53396
60640,53358
60541,53358
59361,53358
59269,53396
59199,53466
59162,53553
58185,53553
57947,53315
57947,51544
58029,51579
58128,51579
62888,51580
62950,51518
62950,47100
62950,47050
62950,46950
62950,46900
62950,42482
62888,42420
58128,42421
58029,42421
57947,42455
57947,42185
58185,41947
69053,41947
69053,42000
69053,53315
68815,53553
68171,53553
68171,47112
68171,46888
68170,42621
68132,42529
68062,42459
67971,42421
67872,42421
63112,42420
63050,42482
63050,46950
68109,46950
68171,46888
68171,47112
68109,47050
63050,47050
63050,51518
63112,51580
67872,51579
67971,51579
68062,51541
68132,51471
68170,51379
68171,47112
68171,53553
66836,53553
66801,53466
66731,53396
66640,53358
66541,53358
65361,53358
65269,53396
65199,53466
65162,53553
64642,53553
64642,53164
64604,53072
64534,53002
64443,52964
64344,52964
63558,52964
63500,52987
63443,52964
63344,52964
63112,52963
63050,53025
63050,53900
63050,53950
63050,54050
63050,54100
63050,54975
63112,55037
63344,55036
63443,55036
63500,55012
63557,55036
63656,55036
64442,55036
64534,54998
64604,54928
64642,54837
64642,54738
64642,54447
65163,54447
65199,54534
65269,54604
65360,54642
65459,54642
66639,54642
66731,54604
66801,54534
66837,54447
69000,54447
69171,54413
69316,54316
69816,53816
69913,53671
69947,53500
69947,60450
69050,60450
69050,58210
69050,57792
68890,57406
68595,57110
68210,56950
67792,56950
67406,57110
67110,57405
66950,57790
66950,58208
67110,58594
67405,58890
67790,59050
68208,59050
68594,58890
68890,58595
69050,58210
69050,60450
66840,60450
66840,56112
66840,55888
66839,55558
66801,55466
66731,55396
66640,55358
66541,55358
66112,55357
66050,55419
66050,55950
66778,55950
66840,55888
66840,56112
66778,56050
66050,56050
66050,56581
66112,56643
66541,56642
66640,56642
66731,56604
66801,56534
66839,56442
66840,56112
66840,60450
66096,60450
66096,60110
66096,57010
65950,57010
65950,56581
65950,56050
65950,55950
65950,55419
65888,55357
65459,55358
65360,55358
65269,55396
65199,55466
65161,55558
65160,55888
65222,55950
65950,55950
65950,56050
65222,56050
65160,56112
65161,56442
65199,56534
65269,56604
65360,56642
65459,56642
65888,56643
65950,56581
65950,57010
60840,57010
60840,56112
60840,55888
60839,55558
60801,55466
60731,55396
60640,55358
60541,55358
60112,55357
60050,55419
60050,55950
60778,55950
60840,55888
60840,56112
60778,56050
60050,56050
60050,56581
60112,56643
60541,56642
60640,56642
60731,56604
60801,56534
60839,56442
60840,56112
60840,57010
59950,57010
59950,56581
59950,56050
59950,55950
59950,55419
59888,55357
59459,55358
59360,55358
59269,55396
59199,55466
59161,55558
59160,55888
59222,55950
59950,55950
59950,56050
59222,56050
59160,56112
59161,56442
59199,56534
59269,56604
59360,56642
59459,56642
59888,56643
59950,56581
59950,57010
59784,57010
59784,60110
66096,60110
66096,60450
57058,60450
57058,59583
57047,59363
56984,59210
56889,59182
56818,59253
56818,59111
56818,50889
56500,50571
56429,50642
56429,50500
56111,50182
56016,50210
56001,50251
55984,50210
55889,50182
55818,50253
55818,50111
55790,50016
55583,49942
55363,49953
55210,50016
55182,50111
55500,50429
55818,50111
55818,50253
55571,50500
55889,50818
55984,50790
55998,50748
56016,50790
56111,50818
56429,50500
56429,50642
56182,50889
56210,50984
56417,51058
56637,51047
56790,50984
56818,50889
56818,59111
56790,59016
56583,58942
56363,58953
56210,59016
56182,59111
56500,59429
56818,59111
56818,59253
56571,59500
56889,59818
56984,59790
57058,59583
57058,60450
56818,60450
56818,59889
56500,59571
56429,59642
56429,59500
56111,59182
56016,59210
56001,59251
55984,59210
55889,59182
55818,59253
55818,59111
55818,50889
55500,50571
55429,50642
55429,50500
55111,50182
55016,50210
54942,50417
54953,50637
55016,50790
55111,50818
55429,50500
55429,50642
55182,50889
55210,50984
55417,51058
55637,51047
55790,50984
55818,50889
55818,59111
55790,59016
55583,58942
55363,58953
55210,59016
55182,59111
55500,59429
55818,59111
55818,59253
55571,59500
55889,59818
55984,59790
55998,59748
56016,59790
56111,59818
56429,59500
56429,59642
56182,59889
56210,59984
56417,60058
56637,60047
56790,59984
56818,59889
56818,60450
55818,60450
55818,59889
55500,59571
55429,59642
55429,59500
55111,59182
55016,59210
54942,59417
54953,59637
55016,59790
55111,59818
55429,59500
55429,59642
55182,59889
55210,59984
55417,60058
55637,60047
55790,59984
55818,59889
55818,60450
43931,60450
43931,54612
43931,54388
43930,53565
43930,53466
43892,53375
43822,53305
43730,53267
42612,53266
42550,53328
42550,54450
43869,54450
43931,54388
43931,54612
43869,54550
42550,54550
42550,55672
42612,55734
43730,55733
43822,55695
43892,55625
43930,55534
43930,55435
43931,54612
43931,60450
43050,60450
43050,58210
43050,57792
42890,57406
42595,57110
42450,57049
42450,55672
42450,54550
42450,54450
42450,53328
42388,53266
41270,53267
41178,53305
41108,53375
41070,53466
41070,53565
41069,54388
41131,54450
42450,54450
42450,54550
41131,54550
41069,54612
41070,55435
41070,55534
41108,55625
41178,55695
41270,55733
42388,55734
42450,55672
42450,57049
42210,56950
41792,56950
41406,57110
41110,57405
40950,57790
40950,58208
41110,58594
41405,58890
41790,59050
42208,59050
42594,58890
42890,58595
43050,58210
43050,60450
39550,60450
39550,21550
70450,21550
70450,60450
70450,60450
69947,60450
69947,53500
69947,42000
" /> 
</g>
<g style="fill:#A00000; fill-opacity:1.0; 
  stroke:#A00000; stroke-linecap:round; stroke-linejoin:round; stroke-opacity:1.0; stroke-opacity:1.0; stroke-width:0" 
   transform="translate(0 0) scale(1 1)">
<polygon style="fill-rule:evenodd; " 
points="62393,54787
61607,54787
61607,53213
62393,53213
" /> 
<polygon style="fill-rule:evenodd; " 
points="63393,54787
62607,54787
62607,53213
63393,53213
" /> 
<polygon style="fill-rule:evenodd; " 
points="64393,54787
63607,54787
63607,53213
64393,53213
" /> 
</g>
<g style="fill:#808000; fill-opacity:1.0; 
  stroke:#808000; stroke-linecap:round; stroke-linejoin:round; stroke-opacity:1.0; stroke-opacity:1.0; stroke-width:0" 
   transform="translate(0 0) scale(1 1)">
<polygon style="fill-rule:evenodd; " 
points="67921,51330
58079,51330
58079,42670
67921,42670
" /> 
</g>
<g style="fill:#FFFFFF; fill-opacity:1.0; 
  stroke:#808000; stroke-linecap:round; stroke-linejoin:round; stroke-opacity:1.0; stroke-opacity:1.0; stroke-width:0" 
   transform="translate(0 0) scale(1 1)">
<ellipse cx="63000" cy="47000" rx="590" ry="590"  /> 
</g>
<g style="fill:#A00000; fill-opacity:1.0; 
  stroke:#A00000; stroke-linecap:round; stroke-linejoin:round; stroke-opacity:1.0; stroke-opacity:1.0; stroke-width:0" 
   transform="translate(0 0) scale(1 1)">
<polygon style="fill-rule:evenodd; " 
points="49780,46030
49420,46030
49420,45670
49780,45670
" /> 
<polygon style="fill-rule:evenodd; " 
points="49780,45330
49420,45330
49420,44970
49780,44970
" /> 
<polygon style="fill-rule:evenodd; " 
points="50580,45680
50220,45680
50220,45320
50580,45320
" /> 
<polygon style="fill-rule:evenodd; " 
points="59410,53607
60590,53607
60590,54393
59410,54393
" /> 
<polygon style="fill-rule:evenodd; " 
points="59410,55607
60590,55607
60590,56393
59410,56393
" /> 
<polygon style="fill-rule:evenodd; " 
points="65410,53607
66590,53607
66590,54393
65410,54393
" /> 
<polygon style="fill-rule:evenodd; " 
points="65410,55607
66590,55607
66590,56393
65410,56393
" /> 
<polygon style="fill-rule:evenodd; " 
points="46016,43910
47984,43910
47984,45090
46016,45090
" /> 
<polygon style="fill-rule:evenodd; " 
points="46016,45910
47984,45910
47984,47090
46016,47090
" /> 
<polygon style="fill-rule:evenodd; " 
points="48313,50378
48313,47622
49887,47622
49887,50378
" /> 
<polygon style="fill-rule:evenodd; " 
points="50113,50378
50113,47622
51687,47622
51687,50378
" /> 
<polygon style="fill-rule:evenodd; " 
points="52910,38516
54090,38516
54090,40484
52910,40484
" /> 
<polygon style="fill-rule:evenodd; " 
points="48910,38516
50090,38516
50090,40484
48910,40484
" /> 
<polygon style="fill-rule:evenodd; " 
points="62910,38516
64090,38516
64090,40484
62910,40484
" /> 
<polygon style="fill-rule:evenodd; " 
points="58910,38516
60090,38516
60090,40484
58910,40484
" /> 
<polygon style="fill-rule:evenodd; " 
points="43681,42016
43681,43984
41319,43984
41319,42016
" /> 
<polygon style="fill-rule:evenodd; " 
points="43681,39016
43681,40984
41319,40984
41319,39016
" /> 
<polygon style="fill-rule:evenodd; " 
points="43681,30016
43681,31984
41319,31984
41319,30016
" /> 
<polygon style="fill-rule:evenodd; " 
points="43681,27016
43681,28984
41319,28984
41319,27016
" /> 
<polygon style="fill-rule:evenodd; " 
points="43681,53516
43681,55484
41319,55484
41319,53516
" /> 
<polygon style="fill-rule:evenodd; " 
points="43681,50516
43681,52484
41319,52484
41319,50516
" /> 
<polygon style="fill-rule:evenodd; " 
points="43681,36016
43681,37984
41319,37984
41319,36016
" /> 
<polygon style="fill-rule:evenodd; " 
points="43681,33016
43681,34984
41319,34984
41319,33016
" /> 
</g>
<g style="fill:#808000; fill-opacity:1.0; 
  stroke:#808000; stroke-linecap:round; stroke-linejoin:round; stroke-opacity:1.0; stroke-opacity:1.0; stroke-width:0" 
   transform="translate(0 0) scale(1 1)">
<ellipse cx="44500" cy="59500" rx="315" ry="315"  /> 
</g>
<g style="fill:#FFFFFF; fill-opacity:1.0; 
  stroke:#808000; stroke-linecap:round; stroke-linejoin:round; stroke-opacity:1.0; stroke-opacity:1.0; stroke-width:0" 
   transform="translate(0 0) scale(1 1)">
<ellipse cx="44500" cy="59500" rx="197" ry="197"  /> 
</g>
<g style="fill:#808000; fill-opacity:1.0; 
  stroke:#808000; stroke-linecap:round; stroke-linejoin:round; stroke-opacity:1.0; stroke-opacity:1.0; stroke-width:0" 
   transform="translate(0 0) scale(1 1)">
<ellipse cx="45500" cy="59500" rx="315" ry="315"  /> 
</g>
<g style="fill:#FFFFFF; fill-opacity:1.0; 
  stroke:#808000; stroke-linecap:round; stroke-linejoin:round; stroke-opacity:1.0; stroke-opacity:1.0; stroke-width:0" 
   transform="translate(0 0) scale(1 1)">
<ellipse cx="45500" cy="59500" rx="197" ry="197"  /> 
</g>
<g style="fill:#808000; fill-opacity:1.0; 
  stroke:#808000; stroke-linecap:round; stroke-linejoin:round; stroke-opacity:1.0; stroke-opacity:1.0; stroke-width:0" 
   transform="translate(0 0) scale(1 1)">
<ellipse cx="55500" cy="50500" rx="315" ry="315"  /> 
</g>
<g style="fill:#FFFFFF; fill-opacity:1.0; 
  stroke:#808000; stroke-linecap:round; stroke-linejoin:round; stroke-opacity:1.0; stroke-opacity:1.0; stroke-width:0" 
   transform="translate(0 0) scale(1 1)">
<ellipse cx="55500" cy="50500" rx="197" ry="197"  /> 
</g>
<g style="fill:#808000; fill-opacity:1.0; 
  stroke:#808000; stroke-linecap:round; stroke-linejoin:round; stroke-opacity:1.0; stroke-opacity:1.0; stroke-width:0" 
   transform="translate(0 0) scale(1 1)">
<ellipse cx="56500" cy="50500" rx="315" ry="315"  /> 
</g>
<g style="fill:#FFFFFF; fill-opacity:1.0; 
  stroke:#808000; stroke-linecap:round; stroke-linejoin:round; stroke-opacity:1.0; stroke-opacity:1.0; stroke-width:0" 
   transform="translate(0 0) scale(1 1)">
<ellipse cx="56500" cy="50500" rx="197" ry="197"  /> 
</g>
<g style="fill:#808000; fill-opacity:1.0; 
  stroke:#808000; stroke-linecap:round; stroke-linejoin:round; stroke-opacity:1.0; stroke-opacity:1.0; stroke-width:0" 
   transform="translate(0 0) scale(1 1)">
<ellipse cx="55500" cy="59500" rx="315" ry="315"  /> 
</g>
<g style="fill:#FFFFFF; fill-opacity:1.0; 
  stroke:#808000; stroke-linecap:round; stroke-linejoin:round; stroke-opacity:1.0; stroke-opacity:1.0; stroke-width:0" 
   transform="translate(0 0) scale(1 1)">
<ellipse cx="55500" cy="59500" rx="197" ry="197"  /> 
</g>
<g style="fill:#808000; fill-opacity:1.0; 
  stroke:#808000; stroke-linecap:round; stroke-linejoin:round; stroke-opacity:1.0; stroke-opacity:1.0; stroke-width:0" 
   transform="translate(0 0) scale(1 1)">
<ellipse cx="56500" cy="59500" rx="315" ry="315"  /> 
</g>
<g style="fill:#FFFFFF; fill-opacity:1.0; 
  stroke:#808000; stroke-linecap:round; stroke-linejoin:round; stroke-opacity:1.0; stroke-opacity:1.0; stroke-width:0" 
   transform="translate(0 0) scale(1 1)">
<ellipse cx="56500" cy="59500" rx="197" ry="197"  /> 
</g>
<g style="fill:#808000; fill-opacity:1.0; 
  stroke:#808000; stroke-linecap:round; stroke-linejoin:round; stroke-opacity:1.0; stroke-opacity:1.0; stroke-width:0" 
   transform="translate(0 0) scale(1 1)">
<ellipse cx="44500" cy="50500" rx="315" ry="315"  /> 
</g>
<g style="fill:#FFFFFF; fill-opacity:1.0; 
  stroke:#808000; stroke-linecap:round; stroke-linejoin:round; stroke-opacity:1.0; stroke-opacity:1.0; stroke-width:0" 
   transform="translate(0 0) scale(1 1)">
<ellipse cx="44500" cy="50500" rx="197" ry="197"  /> 
</g>
<g style="fill:#808000; fill-opacity:1.0; 
  stroke:#808000; stroke-linecap:round; stroke-linejoin:round; stroke-opacity:1.0; stroke-opacity:1.0; stroke-width:0" 
   transform="translate(0 0) scale(1 1)">
<ellipse cx="45500" cy="50500" rx="315" ry="315"  /> 
</g>
<g style="fill:#FFFFFF; fill-opacity:1.0; 
  stroke:#808000; stroke-linecap:round; stroke-linejoin:round; stroke-opacity:1.0; stroke-opacity:1.0; stroke-width:0" 
   transform="translate(0 0) scale(1 1)">
<ellipse cx="45500" cy="50500" rx="197" ry="197"  /> 
</g>
<g style="fill:#A00000; fill-opacity:1.0; 
  stroke:#A00000; stroke-linecap:round; stroke-linejoin:round; stroke-opacity:1.0; stroke-opacity:1.0; stroke-width:0" 
   transform="translate(0 0) scale(1 1)">
<polygon style="fill-rule:evenodd; " 
points="52775,46600
52775,45400
53425,45400
53425,46600
" /> 
<polygon style="fill-rule:evenodd; " 
points="52800,44700
52800,42300
55200,42300
55200,44700
" /> 
<polygon style="fill-rule:evenodd; " 
points="54575,46600
54575,45400
55225,45400
55225,46600
" /> 
</g>
<g style="fill:#808000; fill-opacity:1.0; 
  stroke:#808000; stroke-linecap:round; stroke-linejoin:round; stroke-opacity:1.0; stroke-opacity:1.0; stroke-width:0" 
   transform="translate(0 0) scale(1 1)">
<ellipse cx="42000" cy="24000" rx="800" ry="800"  /> 
</g>
<g style="fill:#FFFFFF; fill-opacity:1.0; 
  stroke:#808000; stroke-linecap:round; stroke-linejoin:round; stroke-opacity:1.0; stroke-opacity:1.0; stroke-width:0" 
   transform="translate(0 0) scale(1 1)">
<ellipse cx="42000" cy="24000" rx="600" ry="600"  /> 
</g>
<g style="fill:#808000; fill-opacity:1.0; 
  stroke:#808000; stroke-linecap:round; stroke-linejoin:round; stroke-opacity:1.0; stroke-opacity:1.0; stroke-width:0" 
   transform="translate(0 0) scale(1 1)">
<ellipse cx="68000" cy="24000" rx="800" ry="800"  /> 
</g>
<g style="fill:#FFFFFF; fill-opacity:1.0; 
  stroke:#808000; stroke-linecap:round; stroke-linejoin:round; stroke-opacity:1.0; stroke-opacity:1.0; stroke-width:0" 
   transform="translate(0 0) scale(1 1)">
<ellipse cx="68000" cy="24000" rx="600" ry="600"  /> 
</g>
<g style="fill:#808000; fill-opacity:1.0; 
  stroke:#808000; stroke-linecap:round; stroke-linejoin:round; stroke-opacity:1.0; stroke-opacity:1.0; stroke-width:0" 
   transform="translate(0 0) scale(1 1)">
<ellipse cx="68000" cy="58000" rx="800" ry="800"  /> 
</g>
<g style="fill:#FFFFFF; fill-opacity:1.0; 
  stroke:#808000; stroke-linecap:round; stroke-linejoin:round; stroke-opacity:1.0; stroke-opacity:1.0; stroke-width:0" 
   transform="translate(0 0) scale(1 1)">
<ellipse cx="68000" cy="58000" rx="600" ry="600"  /> 
</g>
<g style="fill:#808000; fill-opacity:1.0; 
  stroke:#808000; stroke-linecap:round; stroke-linejoin:round; stroke-opacity:1.0; stroke-opacity:1.0; stroke-width:0" 
   transform="translate(0 0) scale(1 1)">
<ellipse cx="42000" cy="58000" rx="800" ry="800"  /> 
</g>
<g style="fill:#FFFFFF; fill-opacity:1.0; 
  stroke:#808000; stroke-linecap:round; stroke-linejoin:round; stroke-opacity:1.0; stroke-opacity:1.0; stroke-width:0" 
   transform="translate(0 0) scale(1 1)">
<ellipse cx="42000" cy="58000" rx="600" ry="600"  /> 
</g> 
</svg> 
